<?xml version="1.0" encoding="UTF-8"?>
<svg xmlns="http://www.w3.org/2000/svg" width="573" height="368" viewBox="0 0 573 368" fill="none">
  <g clip-path="url(#clip0_1981_1161)">
    <rect width="573" height="368" fill="url(#paint0_linear_1981_1161)"/>
    <path d="M419.278 254.982H142.499C142.051 254.982 141.687 255.346 141.687 255.794C141.687 256.243 142.051 256.606 142.499 256.606H419.278C419.727 256.606 420.09 256.243 420.09 255.794C420.09 255.346 419.727 254.982 419.278 254.982Z" fill="#0A0910"/>
    <path d="M244.517 132.13L245.342 136.37L243.338 135.829" stroke="#0A0910" stroke-width="1.42" stroke-linecap="round" stroke-linejoin="round"/>
    <path d="M244.105 139.148C243.721 139.06 243.374 138.852 243.114 138.555C242.855 138.257 242.697 137.885 242.662 137.492" stroke="#0A0910" stroke-width="1.42" stroke-linecap="round" stroke-linejoin="round"/>
    <path d="M242.132 128.715C240.572 127.316 238.265 127.213 235.687 128.135" stroke="#0A0910" stroke-width="3.4" stroke-linecap="round" stroke-linejoin="round"/>
    <path d="M212.874 68.5874C213.959 68.5874 214.839 67.7074 214.839 66.6218C214.839 65.5363 213.959 64.6562 212.874 64.6562C211.788 64.6562 210.908 65.5363 210.908 66.6218C210.908 67.7074 211.788 68.5874 212.874 68.5874Z" stroke="#0A0910" stroke-width="1.42" stroke-miterlimit="22.93"/>
    <path d="M166.024 119.035C167.458 119.035 168.86 118.61 170.052 117.813C171.244 117.017 172.173 115.884 172.722 114.56C173.271 113.235 173.414 111.777 173.135 110.371C172.855 108.964 172.164 107.672 171.151 106.658C170.137 105.645 168.845 104.954 167.438 104.674C166.032 104.395 164.574 104.538 163.249 105.087C161.925 105.636 160.792 106.565 159.996 107.757C159.199 108.949 158.774 110.351 158.774 111.785C158.777 113.707 159.542 115.549 160.901 116.908C162.26 118.267 164.102 119.032 166.024 119.035V119.035ZM144.048 90.3248C144.724 90.3248 145.384 90.1245 145.946 89.7492C146.507 89.3739 146.945 88.8405 147.204 88.2163C147.462 87.5922 147.53 86.9055 147.398 86.2429C147.266 85.5803 146.941 84.9717 146.463 84.4941C145.986 84.0164 145.377 83.6911 144.715 83.5593C144.052 83.4275 143.365 83.4951 142.741 83.7537C142.117 84.0122 141.584 84.45 141.208 85.0116C140.833 85.5733 140.633 86.2337 140.633 86.9092C140.634 87.8146 140.995 88.6824 141.635 89.3226C142.275 89.9627 143.143 90.3231 144.048 90.3248V90.3248Z" stroke="#0A0910" stroke-width="1.42" stroke-miterlimit="22.93"/>
    <path d="M140.174 117.211C141.21 117.211 142.05 116.372 142.05 115.336C142.05 114.3 141.21 113.46 140.174 113.46C139.138 113.46 138.299 114.3 138.299 115.336C138.299 116.372 139.138 117.211 140.174 117.211Z" stroke="#0A0910" stroke-width="1.42" stroke-miterlimit="22.93"/>
    <path d="M165.74 157.038C166.441 157.038 167.009 156.47 167.009 155.769C167.009 155.067 166.441 154.499 165.74 154.499C165.039 154.499 164.47 155.067 164.47 155.769C164.47 156.47 165.039 157.038 165.74 157.038Z" stroke="#0A0910" stroke-width="1.42" stroke-miterlimit="22.93"/>
    <path fill-rule="evenodd" clip-rule="evenodd" d="M250.343 149.692L246.515 149.789L250.131 153.211L250.343 149.692Z" fill="#0A0910"/>
    <path d="M254.273 133.986C254.362 133.022 254.051 132.205 253.58 132.162C253.108 132.119 252.655 132.866 252.566 133.83C252.478 134.794 252.789 135.61 253.26 135.653C253.731 135.696 254.185 134.95 254.273 133.986Z" fill="#0A0910"/>
    <path d="M258.541 129.965C257.11 128.148 254.623 127.594 251.671 128.116" stroke="#0A0910" stroke-width="3.4" stroke-linecap="round" stroke-linejoin="round"/>
    <path d="M241.198 131.589C240.249 131.773 239.273 131.773 238.324 131.589" stroke="#0A0910" stroke-width="1.42" stroke-linecap="round" stroke-linejoin="round"/>
    <path fill-rule="evenodd" clip-rule="evenodd" d="M310.741 212.397C306.874 201.681 304.928 190.367 304.993 178.975C304.993 155.176 313.042 134.173 325.318 121.619L333.509 121.587L371.481 175.231L318.964 212.403L310.741 212.397ZM404.451 160.286H412.667C417.133 180.909 416.45 199.327 411.926 214.375C405.366 236.215 392.425 253.042 372.17 256.187C346.656 260.183 328.386 243.021 319.924 220.098L404.451 160.286Z" fill="#0A0910"/>
    <path fill-rule="evenodd" clip-rule="evenodd" d="M318.971 212.397C315.104 201.681 313.158 190.367 313.222 178.975C313.222 155.176 321.272 134.173 333.548 121.619L371.494 175.231L318.971 212.397Z" fill="#00CA72"/>
    <path fill-rule="evenodd" clip-rule="evenodd" d="M412.667 160.286C415.015 168.896 416.192 177.784 416.166 186.709C416.166 225.15 395.176 256.309 369.282 256.309C351.54 256.309 336.106 241.68 328.14 220.111L412.667 160.286Z" fill="#208AF1"/>
    <path fill-rule="evenodd" clip-rule="evenodd" d="M380.567 104.787C399.578 108.402 414.079 127.787 419.589 150.394L388.01 172.802H379.774L340.385 117.179C352.405 104.651 366.164 102.054 380.567 104.787Z" fill="#0A0910"/>
    <path fill-rule="evenodd" clip-rule="evenodd" d="M375.566 104.542C395.841 104.542 413.112 123.649 419.647 150.394L387.991 172.802L348.622 117.179C356.246 109.22 365.519 104.542 375.566 104.542Z" fill="#FFA100"/>
    <path d="M134 183.312C140.219 180.039 142.487 183.448 144.749 186.097C147.579 189.409 150.84 189.428 154.1 186.097C156.279 183.867 160.004 179.478 165.056 185.517C169.664 191.046 174.323 180.277 181.045 185.233L181.264 185.736" stroke="#242F92" stroke-width="2.13" stroke-linecap="round" stroke-linejoin="round"/>
    <path d="M134.303 281.938C172.322 278.854 186.19 282.066 200.018 284.561C217.314 287.682 237.249 287.7 257.184 284.561C270.5 282.46 293.272 278.326 324.16 284.015C352.329 289.224 380.813 279.079 421.905 283.748L423.244 284.221" stroke="#242F92" stroke-width="2.13" stroke-linecap="round" stroke-linejoin="round"/>
    <path d="M392.49 219.08C398.709 215.806 400.977 219.215 403.239 221.864C406.068 225.176 409.329 225.195 412.59 221.864C414.768 219.634 418.493 215.245 423.546 221.284C428.154 226.813 432.813 216.044 439.535 221L439.754 221.503" stroke="#F00000" stroke-width="2.13" stroke-linecap="round" stroke-linejoin="round"/>
    <path d="M259.026 300.725C265.245 297.451 267.514 300.86 269.776 303.509C272.605 306.821 275.866 306.84 279.127 303.509C281.305 301.279 285.03 296.89 290.082 302.929C294.69 308.458 299.35 297.689 306.071 302.645L306.29 303.148" stroke="#355DA8" stroke-width="2.13" stroke-linecap="round" stroke-linejoin="round"/>
    <path fill-rule="evenodd" clip-rule="evenodd" d="M307.964 91.4072C308.002 97.9484 311.521 99.1406 314.814 99.2115C308.898 100.404 308.37 101.37 307.803 107.95C307.674 103.11 307.036 99.682 300.43 98.5993C301.719 98.5993 308.331 100.339 307.964 91.4072Z" fill="#FC151E"/>
    <path fill-rule="evenodd" clip-rule="evenodd" d="M329.211 105.044C329.211 109.832 331.789 110.683 334.225 110.76C329.895 111.63 329.501 112.339 329.07 117.153C328.973 113.622 328.503 111.102 323.669 110.316C324.636 110.361 329.482 111.611 329.211 105.044Z" fill="#FFAB15"/>
    <path fill-rule="evenodd" clip-rule="evenodd" d="M325.175 62C325.233 72.0341 330.633 73.8192 335.692 73.9803C326.612 75.8106 325.787 77.2928 324.93 87.3849C324.73 79.9802 323.744 74.7021 313.607 73.0588C315.579 73.0588 325.736 75.7075 325.175 62Z" fill="#355DA8"/>
    <path fill-rule="evenodd" clip-rule="evenodd" d="M227.936 136.081C228.095 136.11 228.247 136.171 228.382 136.26C228.517 136.349 228.633 136.464 228.722 136.599C228.812 136.733 228.873 136.885 228.903 137.044C228.933 137.203 228.931 137.366 228.896 137.524C228.843 137.849 228.669 138.142 228.407 138.342C228.146 138.542 227.818 138.634 227.491 138.601C227.333 138.569 227.183 138.507 227.049 138.416C226.916 138.326 226.802 138.21 226.714 138.074C226.626 137.939 226.567 137.788 226.539 137.629C226.51 137.47 226.514 137.308 226.55 137.151C226.604 136.831 226.777 136.543 227.033 136.344C227.29 136.146 227.613 136.052 227.936 136.081V136.081Z" fill="#FFA100"/>
    <path fill-rule="evenodd" clip-rule="evenodd" d="M225.061 141.926C226.072 142.066 227.101 141.873 227.992 141.375C228.883 140.877 229.587 140.102 229.998 139.167C228.764 139.669 227.392 139.71 226.131 139.283L225.061 141.926Z" fill="#0A0910"/>
    <path fill-rule="evenodd" clip-rule="evenodd" d="M210.806 149.421L214.717 150.155L217.295 148.222L217.437 150.632L218.758 150.871L219.609 150.007L220.021 151.096L222.49 151.541L224.971 142.022C225.124 142.05 225.279 142.07 225.435 142.08L226.176 139.342C224.926 138.963 223.809 138.239 222.954 137.254C221.188 141.765 210.825 142.267 210.793 149.427L210.806 149.421ZM232.717 112.577C227.645 115.445 226.962 121.394 226.163 126.111C227.355 126.472 229.185 126.543 230.726 131.621C229.437 127.819 234.322 130.545 235.153 121.999H245.11L245.786 119.75L247.514 122.006L249.273 122.206L251.393 114.543C248.351 112.043 243.86 110.489 238.594 110.921C239.144 109.139 239.574 107.322 239.883 105.482C240.843 100.971 238.465 96.6724 234.567 95.8153C230.668 94.9582 226.73 97.9549 225.763 102.466C224.958 106.236 229.069 110.728 232.717 112.565V112.577ZM252.05 117.894L253.385 120.511L256.555 121.078L257.039 119.544L257.947 121.271L262.149 122.07C262.626 117.636 259.958 112.835 255.06 109.793L252.05 117.894Z" fill="#0A0910"/>
    <path d="M228.548 134.166C228.258 131.75 226.898 130.177 224.095 129.836M272.074 212.77L286.671 207.26M169.787 204.289L194.824 214.149M196.415 207.215L171.63 197.271M258.141 120.298L256.755 147.178C256.633 149.511 254.906 150.761 252.573 151.212M236.777 189.802L248.668 179.291C251.89 176.43 256.401 177.396 256.73 180.683M270.869 206.564L285.343 200.861M278.589 255.259L268.278 191.883M255.318 158.9C257.851 191.284 207.919 185.967 215.317 159.068M249.847 150.046L250.285 159.165C251.432 182.939 215.279 178.936 220.763 158.565L225.88 139.548C216.013 133.103 221.968 121.993 229.257 127.574L229.701 125.95M296.473 255.072C295.416 251.109 285.227 198.276 284.28 194.59C279.885 177.448 278.602 158.907 255.86 158.997H250.227M253.978 190.897C256.215 190.001 258.559 189.399 260.951 189.106C267.647 188.126 266.635 198.128 260.48 198.953M254.268 200.622C255.705 200.12 259.494 198.824 261.75 198.805C265.797 198.766 266.132 205.952 259.172 207.685C252.895 209.251 251.439 210.573 246.283 214.214C232.414 225.04 215.633 239.231 201.03 248.267C182.308 259.867 159.14 249.987 164.032 229.577L171.765 197.258M199.702 191.999L193.258 220.864L236.713 189.853C245.606 184.917 252.18 182.12 256.839 180.76C269.309 177.016 267.299 189.099 261.015 189.093M220.615 159.139L200.463 159.216C176.528 159.306 176.154 179.839 171.668 197.851M187.651 255.201L187.992 253.003M226.962 130.906C226.069 131.599 225.423 132.562 225.119 133.651" stroke="#0A0910" stroke-width="1.42" stroke-linecap="round" stroke-linejoin="round"/>
    <path d="M328.077 239.38C321.858 236.106 319.589 239.515 317.327 242.164C314.498 245.476 311.237 245.496 307.976 242.164C305.798 239.934 302.073 235.545 297.021 241.584C292.413 247.113 287.753 236.344 281.032 241.3L280.813 241.803" stroke="#FFA100" stroke-width="2.13" stroke-linecap="round" stroke-linejoin="round"/>
    <path fill-rule="evenodd" clip-rule="evenodd" d="M263.696 157.779C264.663 158.746 265.907 159.377 265.629 160.711L261.647 179.594C260.008 179.586 258.379 179.838 256.82 180.341L260.77 159.719C261.028 158.378 262.704 156.819 263.703 157.785L263.696 157.779ZM255.75 209.187L253.61 219.111C253.32 220.445 252.044 221.045 250.678 221.045C249.312 221.045 248.461 219.453 248.745 218.112L250.034 212.106C251.87 210.946 253.701 209.696 255.75 209.187Z" fill="#415EA9"/>
    <path fill-rule="evenodd" clip-rule="evenodd" d="M263.695 157.779C264.34 157.913 264.906 158.296 265.268 158.846C265.63 159.396 265.76 160.067 265.629 160.712L264.069 168.2L260.847 159.455C261.034 158.875 261.428 158.385 261.953 158.076C262.478 157.767 263.098 157.662 263.695 157.779V157.779Z" fill="#0A0910"/>
    <path fill-rule="evenodd" clip-rule="evenodd" d="M275.902 91.7489C288.089 92.5545 295.236 108.537 291.878 127.445C288.521 146.353 275.915 161.021 263.728 160.215C251.542 159.41 244.395 143.427 247.753 124.519C251.11 105.611 263.696 90.9434 275.902 91.7489ZM275.58 94.3267C265.166 93.6372 254.313 107.216 251.368 124.687C248.423 142.158 254.448 156.858 264.863 157.554C275.277 158.25 286.13 144.665 289.075 127.194C292.02 109.723 285.994 95.0034 275.58 94.3074V94.3267Z" fill="#415EA9"/>
    <path fill-rule="evenodd" clip-rule="evenodd" d="M283.261 103.923C290.853 114.266 287.276 134.534 280.606 144.955C279.768 146.05 278.344 145.097 278.834 144.124C284.711 134.618 288.288 115.561 281.947 106.404C279.949 104.258 281.625 101.686 283.236 103.916L283.261 103.923ZM278.422 147.952C279.852 146.231 277.629 145.554 276.856 146.547C274.677 148.88 272.274 150.375 269.857 150.748C267.575 150.884 266.422 154.731 270.701 153.526C273.401 152.772 276.05 150.8 278.422 147.952V147.952Z" fill="#415EA9"/>
  </g>
  <defs>
    <linearGradient id="paint0_linear_1981_1161" x1="-2.51242e-06" y1="183.63" x2="459.623" y2="181.277" gradientUnits="userSpaceOnUse">
      <stop stop-color="#FFF4E0"/>
      <stop offset="1" stop-color="white" stop-opacity="0"/>
    </linearGradient>
    <clipPath id="clip0_1981_1161">
      <rect width="573" height="368" rx="28" fill="white"/>
    </clipPath>
  </defs>
</svg>