<?xml version="1.0" encoding="UTF-8"?>
<svg xmlns="http://www.w3.org/2000/svg" width="556" height="419" viewBox="0 0 556 419" fill="none">
  <path d="M404.798 207.314H354.84V418.818H404.798V207.314Z" fill="#617586"/>
  <path d="M345.034 237.195H295.077V418.818H345.034V237.195Z" fill="#FAA951"/>
  <path d="M287.606 266.143H238.582V418.817H287.606V266.143Z" fill="#8A8BC4"/>
  <path d="M227.376 297.89H178.819V418.818H227.376V297.89Z" fill="#4BC8F1"/>
  <path d="M168.08 324.395H119.523V418.815H168.08V324.395Z" fill="#49BDA0"/>
  <path d="M108.318 355.321H59.2935V418.818H108.318V355.321Z" fill="#444875"/>
  <path d="M41.0862 385.202H0V418.818H41.0862V385.202Z" fill="#F7A281"/>
  <path d="M188.871 141.071C188.871 141.071 189.512 136.812 187.937 135.294C186.363 133.775 179.358 124.963 182.336 122.628C185.312 120.294 186.772 120.294 187.296 121.227C187.296 121.227 192.491 112.415 198.619 112.415C204.747 112.415 208.308 118.893 207.549 122.628C206.79 126.364 211.926 130.917 211.693 136.868C211.461 142.823 208.308 146.208 205.974 145.913C203.64 145.622 197.609 143.753 196.656 138.911C195.699 134.069 188.871 141.071 188.871 141.071Z" fill="#262C3A"/>
  <path d="M198.966 287.285C198.966 287.285 218.109 268.71 218.109 254.703C218.109 240.695 187.296 231.512 187.296 219.062C187.296 206.611 187.296 212.524 187.296 212.524C187.296 212.524 167.219 204.277 164.261 199.762C161.303 195.25 158.192 218.438 159.593 223.73C160.994 229.022 136.823 305.196 134.224 307.459C131.625 309.723 143.095 316.486 143.095 316.486H146.986C146.986 316.486 154.457 280.689 155.546 277.578C156.355 275.262 163.281 255.727 167.287 245.422C168.296 242.823 171.284 241.666 173.815 242.838C175.819 243.765 178.881 244.619 183.56 245.051C196.944 246.296 205.506 255.636 202.08 263.415C198.657 271.197 189.786 285.725 189.786 285.725L198.966 287.285Z" fill="#DDDDDD"/>
  <path d="M209.395 210.349C209.395 210.349 210.716 218.52 218.11 220.698C225.504 222.876 228.226 221.086 228.771 216.886C229.315 212.683 221.533 215.485 221.301 211.05C221.068 206.614 212.429 207.391 210.716 208.247C209.006 209.104 209.395 210.349 209.395 210.349ZM198.502 149.183C198.502 149.183 201.362 147.609 200.076 143.406C198.793 139.202 198.734 136.227 201.71 135.235C204.686 134.243 198.384 127.123 196.456 127.765C194.531 128.406 192.394 132.28 193.889 134.475C195.287 136.533 190.687 139.132 190.304 139.747C190.001 140.236 198.502 149.183 198.502 149.183ZM210.134 135.667C209.468 136.365 208.424 136.53 207.517 136.203C205.769 135.57 202.493 133.846 202.237 129.751C201.886 124.147 204.047 127.358 203.346 124.674C202.646 121.99 201.053 121.86 202.499 120.415C203.075 119.838 203.576 120.138 204.091 120.671C204.9 121.51 206.081 121.672 207.214 121.41C207.32 121.386 207.449 121.38 207.608 121.407C208.718 121.581 211.694 130.046 210.761 134.072C210.758 134.069 210.84 134.923 210.134 135.667Z" fill="#FFC6AB"/>
  <path d="M175.32 244.195L126.893 233.042C121.695 231.844 116.512 235.088 115.314 240.286L109.53 265.402C108.332 270.6 111.576 275.783 116.774 276.981L165.201 288.133C170.398 289.331 175.582 286.087 176.78 280.889L182.563 255.774C183.761 250.576 180.518 245.39 175.32 244.195Z" fill="#404251"/>
  <path d="M157.784 241.125C157.248 241.125 156.813 240.689 156.813 240.153C156.813 239.63 156.824 239.126 156.833 238.646C156.921 234.691 156.954 233.21 151.191 232.789C149.269 232.651 147.079 232.489 145.837 237.419C145.707 237.937 145.186 238.255 144.659 238.123C144.139 237.99 143.824 237.463 143.956 236.942C145.398 231.22 148.345 230.635 151.332 230.852C158.57 231.379 158.876 234.173 158.776 238.685C158.767 239.15 158.755 239.638 158.755 240.148C158.752 240.692 158.32 241.125 157.784 241.125Z" fill="#404251"/>
  <path d="M155.196 221.631C155.196 221.631 149.71 225.466 150.41 230.485C150.41 230.485 149.415 237.663 152.771 237.663C152.771 237.663 154.316 239.559 155.838 237.663C155.838 237.663 153.622 242.449 156.306 241.808C158.99 241.166 160.741 237.549 160.741 235.738C160.741 233.928 160.291 232.115 161.092 231.244C162.084 230.167 161.265 224.183 158.466 222.723C155.664 221.263 155.196 221.631 155.196 221.631Z" fill="#FFC6AB"/>
  <path d="M189.707 202.331C189.707 202.331 202.222 211.838 209.48 212.515C209.816 212.548 210.133 212.383 210.319 212.103C211.093 210.947 213.009 207.88 212.194 207C211.181 205.911 196.865 194.237 193.518 192.371C190.175 190.505 189.707 202.331 189.707 202.331Z" fill="#4BC8F1"/>
  <path d="M185.363 212.869C185.858 212.957 186.346 213.054 186.829 213.19C188.295 213.605 191.912 214.335 192.898 211.747C193.796 209.387 193.399 207.109 193.107 206.023C192.931 205.366 192.834 204.689 192.798 204.009C192.666 201.519 192.663 196.339 194.767 194.938C197.569 193.069 199.435 187.78 199.435 182.332C199.435 176.883 195.076 173.46 195.7 168.012C196.321 162.564 196.945 151.203 198.502 149.181C198.502 149.181 192.433 137.975 188.698 139.841C184.963 141.71 184.807 144.666 177.493 147.624C170.179 150.582 164.418 161.475 163.641 163.965C162.864 166.455 161.619 170.19 160.683 173.304C159.747 176.418 158.037 172.371 154.302 189.022C150.567 205.675 150.255 220.46 153.213 223.106C156.171 225.752 160.527 223.883 160.527 223.883C160.527 223.883 160.76 204.039 163.173 202.093C165.081 200.56 176.177 211.235 185.363 212.869Z" fill="#3EBEDB"/>
  <path d="M145.274 324.736H161.539C161.539 324.736 162.163 320.495 157.297 320.495C152.435 320.495 149.945 319.288 148.388 313.687C148.388 313.687 137.571 313.999 133.836 308.239C133.836 308.239 128.232 311.197 130.101 313.687C131.97 316.177 139.361 322.402 139.361 322.402C139.361 322.402 144.417 317.811 145.274 324.736ZM189.786 285.728C189.786 285.728 178.113 298.49 192.744 297.866C192.744 297.866 197.568 291.997 200.838 297.89H222.004C222.004 297.89 220.291 291.809 213.133 291.809C205.974 291.809 209.038 292.91 205.303 292.91C201.568 292.91 200.838 288.374 198.969 287.285C197.1 286.196 189.786 285.728 189.786 285.728Z" fill="#0F0F1E"/>
  <path d="M400.472 55.0818C403.68 59.7617 405.555 65.4306 405.555 71.5322C405.555 79.5823 402.294 86.867 397.019 92.1386C391.748 97.413 384.463 100.674 376.413 100.674H305.143C289.045 100.674 275.995 87.6264 275.995 71.5292C275.995 63.4792 279.259 56.1915 284.53 50.9199C286.449 49.0009 288.633 47.3496 291.026 46.0251C291.023 45.8632 291.02 45.7014 291.02 45.5336C291.02 31.1759 302.658 19.5379 317.016 19.5379C324.298 19.5379 330.882 22.5343 335.597 27.3584C339.38 11.6645 353.511 0 370.367 0C390.117 0 406.132 16.0148 406.132 35.7646C406.129 42.8816 404.051 49.5101 400.472 55.0818ZM98.5255 139.494C100.645 142.585 101.884 146.329 101.884 150.358C101.884 155.674 99.7293 160.483 96.2474 163.965C92.7654 167.45 87.956 169.602 82.6403 169.602H35.5761C24.9477 169.602 16.3296 160.986 16.3296 150.358C16.3296 145.042 18.4841 140.23 21.9661 136.748C23.2347 135.479 24.6769 134.39 26.2546 133.516C26.2516 133.41 26.2516 133.301 26.2516 133.192C26.2516 123.712 33.9367 116.027 43.4172 116.027C48.2266 116.027 52.574 118.005 55.688 121.189C58.184 110.826 67.5173 103.126 78.6461 103.126C91.6881 103.126 102.261 113.702 102.261 126.741C102.261 131.438 100.889 135.815 98.5255 139.494Z" fill="#E1E4E5"/>
  <path d="M275.991 223.067H269.174V240.613H257.009V223.067H250.198L263.093 199.185L275.991 223.067Z" fill="#E1E4E5"/>
  <path d="M392.716 160.245H385.899V177.793H373.734V160.245H366.923L379.815 136.365L392.716 160.245Z" fill="#E1E4E5"/>
  <path d="M522.568 126.299L518.865 87.1816C534.971 86.4222 549.597 96.4855 554.394 111.62C560.237 130.054 549.623 150.11 530.883 156.05C512.142 161.99 491.916 151.706 486.073 133.271C482.747 122.778 484.604 111.282 491.086 102.243L522.568 126.299Z" fill="#208AF1"/>
  <path d="M518.686 118.888L490.333 96.5211C493.294 92.7654 496.937 89.6042 501.07 87.1965C505.202 84.7918 509.75 83.1848 514.477 82.4607L518.686 118.888Z" fill="#FFA100"/>
</svg>