<?xml version="1.0" encoding="UTF-8"?>
<svg xmlns="http://www.w3.org/2000/svg" width="573" height="368" viewBox="0 0 573 368" fill="none">
  <g clip-path="url(#clip0_1981_1198)">
    <rect width="573" height="368" fill="url(#paint0_linear_1981_1198)"/>
    <path d="M408.657 312.133H162.23V314H408.657V312.133Z" fill="#CBDBEB"/>
    <path d="M373.232 242.045H350.117V229.432H373.232V242.045ZM351.416 240.752H371.933V230.733H351.416V240.752Z" fill="#CBDBEB"/>
    <path d="M389.08 253.369H365.965V240.756H389.08V253.369ZM367.264 252.076H387.781V242.046H367.264V252.076ZM316.159 133.379H293.046V120.766H316.159V133.379ZM294.343 132.084H314.86V122.05H294.343V132.084ZM275.486 272.971H252.371V260.358H275.486V272.971ZM253.67 271.678H274.192V261.644H253.67V271.678Z" fill="#CBDBEB"/>
    <path d="M297.326 272.971H274.211V260.358H297.326V272.971ZM275.51 271.678H296.027V261.644H275.51V271.678Z" fill="#CBDBEB"/>
    <path d="M286.393 284.295H263.278V271.681H286.393V284.295ZM264.571 283H285.094V272.971H264.571V283ZM241.925 200.244H218.811V187.63H241.925V200.244ZM220.109 198.949H240.627V188.92H220.109V198.949Z" fill="#CBDBEB"/>
    <path d="M226.077 211.565H202.962V198.952H226.077V211.565ZM204.261 210.272H224.778V200.243H204.261V210.272ZM203.253 148.227H180.131V135.613H203.253V148.227ZM181.437 146.932H201.954V136.903H181.437V146.932Z" fill="#CBDBEB"/>
    <path d="M225.093 148.227H201.979V135.613H225.093V148.227ZM203.277 146.932H223.794V136.903H203.277V146.932Z" fill="#CBDBEB"/>
    <path d="M214.158 159.548H191.047V146.935H214.158V159.548ZM192.346 158.25H212.863V148.227H192.346V158.25Z" fill="#CBDBEB"/>
    <path d="M390.902 311.14L391.946 311.119L390.458 278.91L389.414 278.931L390.902 311.14Z" fill="#30608E"/>
    <path d="M366.861 277.061C366.861 274.849 381.314 274.678 385.745 274.678C390.176 274.678 404.629 274.856 404.629 277.061C404.629 279.265 390.177 279.441 385.745 279.441C381.313 279.441 366.861 279.271 366.861 277.061ZM385.745 275.719C376.018 275.719 369.712 276.449 368.165 277.061C369.703 277.67 376.018 278.4 385.745 278.4C395.472 278.4 401.778 277.67 403.325 277.061C401.785 276.449 395.47 275.719 385.745 275.719Z" fill="#30608E"/>
    <path d="M403.582 260.285C404.752 263.193 405.19 266.344 404.856 269.46C404.522 272.576 403.426 275.562 401.666 278.158C399.906 280.754 397.534 282.88 394.758 284.35C391.983 285.819 388.888 286.588 385.746 286.588C382.603 286.588 379.509 285.819 376.733 284.35C373.958 282.88 371.586 280.754 369.826 278.158C368.065 275.562 366.97 272.576 366.636 269.46C366.302 266.344 366.739 263.193 367.91 260.285H403.582Z" fill="#CBDBEB"/>
    <path d="M367.908 260.283C367.908 261.839 375.893 263.101 385.744 263.101C395.596 263.101 403.58 261.839 403.58 260.283C403.58 258.727 395.594 257.467 385.744 257.467C375.895 257.467 367.908 258.729 367.908 260.283Z" fill="#C0D4E7"/>
    <path d="M369.664 260.283C369.664 261.434 376.863 262.367 385.745 262.367C394.628 262.367 401.825 261.434 401.825 260.283C401.825 259.132 394.626 258.201 385.745 258.201C376.865 258.201 369.664 259.134 369.664 260.283Z" fill="#84745A"/>
    <path opacity="0.42" d="M369.657 266.75C369.7 265.316 371.941 265.311 371.896 266.75C371.795 270.159 372.237 273.557 374.704 276.115C375.703 277.153 374.121 278.734 373.12 277.695C370.248 274.717 369.538 270.757 369.657 266.75Z" fill="white"/>
    <path d="M385.745 279.441C390.176 279.441 404.629 279.263 404.629 277.06H403.585C403.583 276.996 403.604 276.933 403.644 276.883C403.011 277.521 396.441 278.402 385.747 278.402C375.053 278.402 368.481 277.513 367.85 276.883C367.89 276.933 367.911 276.996 367.909 277.06H366.863C366.861 279.27 381.315 279.441 385.745 279.441Z" fill="#30608E"/>
    <path d="M407.321 311.12L408.363 311.049L404.372 277.334L403.33 277.407L407.321 311.12Z" fill="#30608E"/>
    <path d="M365.091 311.124L368.429 277.54L367.387 277.464L364.049 311.046L365.091 311.124Z" fill="#30608E"/>
    <path d="M382.603 278.911L381.943 311.107L382.989 311.129L383.648 278.932L382.603 278.911Z" fill="#30608E"/>
    <path d="M369.666 260.287C369.666 261.134 373.534 261.857 379.099 262.182C379.425 262.2 379.758 262.22 380.102 262.228C380.569 262.259 381.037 262.276 381.527 262.285C381.842 262.305 382.167 262.315 382.502 262.324C383.226 262.344 383.971 262.354 384.736 262.353C385.07 262.353 385.404 262.353 385.738 262.353H385.747C387.237 262.353 388.678 262.324 390.044 262.276C390.386 262.276 390.73 262.25 391.065 262.239C397.327 261.953 401.825 261.193 401.825 260.285C401.825 259.457 398.073 258.732 392.64 258.4L391.571 258.343C389.948 258.256 388.2 258.21 386.378 258.199H385.357C384.249 258.199 383.171 258.219 382.129 258.247C381.794 258.247 381.481 258.277 381.157 258.286C380.611 258.304 380.077 258.334 379.553 258.361C379.22 258.372 378.885 258.4 378.561 258.409C373.284 258.764 369.666 259.468 369.666 260.287Z" fill="#CBDBEB"/>
    <path d="M385.51 241.642C384.832 241.218 384.212 240.709 383.666 240.127C382.859 239.311 381.589 237.982 381.607 236.735C381.619 235.71 382.688 235.479 383.399 236.085C384.033 236.618 384.304 237.444 384.801 238.084C385.41 238.867 386.404 239.494 387.409 239.897C388.795 237.929 389.023 235.222 388.558 232.852C388.023 230.118 386.21 226.218 383.502 222.578C383.172 223.464 382.754 224.315 382.255 225.118C381.746 225.962 380.926 227.57 379.952 227.913C378.917 228.268 378.705 227.325 378.863 226.549C378.864 226.506 378.873 226.464 378.892 226.426V226.426C378.909 226.357 378.929 226.287 378.952 226.222C378.974 226.163 379.015 226.115 379.07 226.085C379.634 224.994 380.29 223.953 380.785 222.821C381.128 221.987 381.405 221.128 381.615 220.251C379.244 217.586 376.392 215.259 373.221 213.916C373.864 215.248 374.311 216.758 374.721 218.076C375.142 219.425 376.251 222.296 375.222 223.619C374.938 223.974 374.356 224.214 373.918 223.974C373.205 223.571 373.285 222.097 373.273 221.436C373.243 219.819 373.237 218.416 372.708 216.847C372.25 215.479 371.5 214.264 370.688 213.088C368.652 212.594 366.528 212.582 364.487 213.05C365.112 213.607 365.602 214.294 365.734 215.095C365.853 215.841 365.395 217.559 364.415 217.618C363.122 217.694 363.033 214.701 362.874 213.532C361.628 213.983 360.44 214.579 359.335 215.308C357.384 216.601 355.756 218.321 354.573 220.336C354.597 220.372 354.613 220.414 354.619 220.457C355.038 223.731 359.228 224.863 361.722 226.126C362.495 226.518 365.399 227.872 365.023 229.041C364.825 229.657 363.79 229.661 363.302 229.574C362.055 229.343 360.929 228.35 359.956 227.595C357.715 225.859 355.503 224.186 353.643 222.088C351.592 226.463 351.125 231.503 351.199 235.234C351.234 235.219 351.272 235.211 351.31 235.211C351.348 235.211 351.386 235.219 351.421 235.234C352.897 235.849 354.5 236.1 356.094 235.966C357.086 235.874 358.114 235.643 359.123 235.788C359.963 235.911 361.28 236.936 360.334 237.773C359.525 238.483 357.726 238.318 356.741 238.188C354.826 237.92 352.97 237.331 351.252 236.446C351.311 237.536 351.411 238.478 351.523 239.187C351.828 241.006 352.504 242.743 353.51 244.291C354.515 245.839 355.829 247.164 357.37 248.185C358.397 248.86 359.508 249.397 360.676 249.784C362.93 247.83 364.642 245.684 365.643 242.75C366.042 241.58 366.879 238.341 368.552 238.453C369.298 238.503 369.815 239.412 369.956 240.052C370.194 241.148 369.528 242.246 368.922 243.102C368.032 244.36 367.054 245.538 366.184 246.815C365.343 248.059 364.471 249.267 363.553 250.446C365.689 250.735 367.863 250.561 369.925 249.937C373.143 248.943 376.517 245.611 374.735 242.18C378.175 242.937 382.424 243.452 385.51 241.642ZM357.129 232.532C357.082 232.544 357.033 232.551 356.985 232.555C356.963 232.586 356.935 232.612 356.902 232.632C356.869 232.651 356.832 232.663 356.794 232.666C356.756 232.67 356.718 232.665 356.682 232.652C356.646 232.639 356.613 232.619 356.586 232.592C356.539 232.548 356.497 232.5 356.454 232.452C356.114 232.241 355.898 231.789 355.795 231.397C355.784 231.36 355.782 231.322 355.788 231.284C355.795 231.246 355.81 231.211 355.832 231.18C355.784 230.972 355.757 230.76 355.752 230.547C355.752 230.048 355.982 229.482 356.58 229.586C356.935 229.669 357.258 229.855 357.508 230.119C357.758 230.383 357.925 230.715 357.988 231.073C358.05 231.656 357.724 232.352 357.129 232.532ZM378.15 233.338C378.072 233.444 377.972 233.531 377.857 233.595C377.742 233.659 377.615 233.698 377.484 233.709C377.353 233.719 377.221 233.702 377.097 233.658C376.973 233.615 376.859 233.545 376.765 233.454C376.548 233.242 376.395 232.974 376.321 232.681C376.247 232.388 376.256 232.08 376.346 231.791C376.355 231.749 376.376 231.711 376.405 231.679C376.435 231.648 376.472 231.625 376.513 231.613C376.513 231.613 376.526 231.603 376.535 231.601C377.044 231.388 377.741 231.375 378.183 231.75C378.676 232.178 378.517 232.884 378.143 233.338H378.15Z" fill="#208AF1"/>
    <path d="M412.944 222.726C414.69 223.387 416.513 223.83 418.368 224.044C419.391 220.517 419.232 216.68 418.841 213.006C417.536 214.33 416.113 215.477 414.341 216.302C412.857 216.993 410.311 218.156 408.985 216.618C408.936 216.567 408.908 216.499 408.908 216.428C408.908 216.357 408.936 216.289 408.985 216.238C410.421 215.056 412.331 215.172 414.029 214.639C415.726 214.106 417.52 212.988 418.661 211.519C418.625 211.214 418.588 210.91 418.55 210.608C418.208 207.892 417.734 205.198 417.193 202.514C417.169 202.567 417.145 202.619 417.12 202.669C416.89 203.136 416.453 204.127 415.839 204.227C415.267 204.319 415.053 203.646 415.171 203.2C415.349 202.523 416.001 201.977 416.27 201.322C416.432 200.928 416.574 200.526 416.696 200.117C416.238 197.986 415.748 195.864 415.258 193.743C415.237 193.675 415.191 193.618 415.129 193.582C415.067 193.547 414.994 193.537 414.925 193.553C412.81 193.845 410.676 194.141 408.544 194.488C406.228 196.763 404.571 199.442 404.302 202.775C404.224 203.724 404.819 208.689 402.547 208.082C400.151 207.439 401.281 202.974 401.747 201.485C402.481 199.135 403.693 197.044 405.132 195.09C400.297 196.039 395.56 197.399 391.217 199.709C389.583 203.114 389.808 206.637 391.93 209.981C392.393 210.709 395.077 214.1 392.908 214.475C391.083 214.793 389.656 211.217 389.345 209.885C388.885 207.902 389.154 205.852 389.291 203.845C389.361 202.671 389.589 201.513 389.968 200.4C389.916 200.43 389.863 200.455 389.813 200.485C386.537 202.439 383.427 204.948 382.424 208.78C382.005 210.476 381.9 212.235 382.114 213.969C382.94 215.209 383.877 216.372 384.912 217.444C385.992 218.528 387.237 219.016 388.475 219.839C389.366 220.427 390.88 222.274 389.567 223.225C388.511 223.99 386.539 223.047 385.52 222.633C385.109 222.461 384.706 222.279 384.31 222.086C384.148 232.452 393.203 227.09 393.203 227.137C393.136 236.632 402.848 236.712 408.829 234.495C408.226 234.383 407.626 234.271 407.022 234.172C405.834 233.976 404.619 233.909 403.436 233.674C402.148 233.42 400.358 232.608 400.621 230.976C400.848 229.555 402.693 230.706 403.368 231.077C405.684 232.356 408.412 233.534 411.12 233.386C411.406 233.209 411.691 233.031 411.968 232.841C414.046 231.379 415.765 229.467 416.995 227.247C414.686 227.208 412.384 227.001 410.106 226.627C408.453 226.341 405.83 225.902 405.043 224.181C405.026 224.138 405.02 224.092 405.026 224.046C405.031 224.001 405.048 223.957 405.074 223.92C405.101 223.883 405.136 223.852 405.177 223.832C405.219 223.812 405.264 223.802 405.31 223.804C407.3 223.656 409.19 224.189 410.943 225.099C413.049 226.192 415.219 226.668 417.481 226.383C417.748 225.83 417.981 225.261 418.18 224.68C418.192 224.646 418.201 224.609 418.213 224.575C416.364 224.355 414.549 223.912 412.807 223.255C412.477 223.125 412.614 222.605 412.944 222.726ZM409.367 203.237C409.37 203.199 409.384 203.163 409.406 203.132C409.427 203.101 409.457 203.076 409.491 203.059C409.53 202.835 409.641 202.63 409.808 202.474C409.974 202.319 410.187 202.222 410.414 202.198C411.677 202.006 412.552 203.489 411.506 204.353C411.104 204.685 410.501 204.886 409.988 204.708C409.354 204.495 409.279 203.814 409.367 203.237ZM397.677 228.682C397.286 229 396.786 229.066 396.373 228.748C396.34 228.723 396.315 228.69 396.299 228.653C396.283 228.615 396.278 228.574 396.283 228.534C396.289 228.493 396.305 228.455 396.33 228.423C396.355 228.39 396.388 228.365 396.426 228.35C396.421 227.993 396.548 227.646 396.782 227.376C396.866 227.293 396.967 227.23 397.079 227.192C397.19 227.154 397.309 227.142 397.426 227.157C397.543 227.172 397.655 227.213 397.753 227.278C397.852 227.343 397.934 227.43 397.994 227.531C398.243 227.934 398.006 228.412 397.677 228.682ZM398.763 208.298C398.662 208.933 398.357 209.863 397.726 210.173C396.969 210.542 396.658 209.604 396.574 209.041C396.565 209.002 396.565 208.962 396.574 208.924C396.243 208.328 396.096 207.648 396.153 206.97C396.276 206.014 397.233 205.765 398.015 206.22C398.751 206.641 398.886 207.534 398.763 208.298ZM405.918 218.368C405.597 218.741 405.027 218.785 404.592 218.599C404.015 218.346 403.782 217.744 403.862 217.145C403.869 217.1 403.887 217.058 403.913 217.02C403.939 216.983 403.973 216.952 404.013 216.93C404.053 216.907 404.098 216.895 404.143 216.892C404.189 216.889 404.235 216.897 404.277 216.915C404.352 216.807 404.449 216.718 404.563 216.652C404.676 216.586 404.802 216.545 404.932 216.533C405.063 216.52 405.194 216.536 405.318 216.579C405.442 216.623 405.555 216.692 405.649 216.783C406.051 217.163 406.32 217.897 405.918 218.368Z" fill="url(#paint1_linear_1981_1198)"/>
    <path d="M367.007 263.254C367.528 264.319 367.91 265.446 368.143 266.608C365.851 267.432 363.294 267.526 360.839 267.464C361.677 266.592 362.345 265.574 362.811 264.46C363.198 263.49 363.848 261.824 362.763 261.067C362.726 261.038 362.679 261.024 362.632 261.028C362.585 261.031 362.541 261.052 362.509 261.086C361.796 262.051 361.974 263.25 361.696 264.346C361.398 265.534 360.755 266.608 359.847 267.432L359.236 267.407C357.415 267.329 355.604 267.166 353.797 266.96L353.893 266.906C354.194 266.738 354.832 266.411 354.868 266.018C354.903 265.625 354.444 265.553 354.155 265.649C353.713 265.792 353.384 266.233 352.962 266.437C352.707 266.556 352.448 266.665 352.183 266.766C350.745 266.588 349.311 266.382 347.879 266.182C347.834 266.172 347.795 266.147 347.768 266.109C347.742 266.072 347.731 266.026 347.738 265.981C347.829 264.634 347.916 263.272 348.05 261.909C349.449 260.331 351.148 259.154 353.348 258.814C353.975 258.718 357.301 258.844 356.788 257.441C356.254 255.963 353.334 256.908 352.368 257.263C350.882 257.856 349.504 258.689 348.289 259.727C348.686 256.631 349.358 253.575 350.687 250.72C352.869 249.516 355.224 249.477 357.542 250.648C358.048 250.902 360.43 252.424 360.57 251.037C360.691 249.871 358.254 249.15 357.349 249.024C356.012 248.836 354.661 249.109 353.338 249.297C352.563 249.399 351.805 249.601 351.082 249.898C351.1 249.862 351.114 249.829 351.13 249.795C352.265 247.631 353.786 245.542 356.282 244.716C357.391 244.365 358.553 244.21 359.715 244.257C360.575 244.714 361.391 245.246 362.156 245.847C362.929 246.475 363.312 247.235 363.92 247.979C364.352 248.512 365.653 249.374 366.221 248.498C366.679 247.787 365.961 246.59 365.632 245.974C365.498 245.723 365.357 245.48 365.211 245.24C372.089 244.615 368.963 250.596 368.995 250.593C375.296 250.07 375.82 256.192 374.635 260.074C374.532 259.701 374.428 259.329 374.334 258.953C374.145 258.212 374.042 257.45 373.83 256.716C373.598 255.917 372.978 254.828 371.902 255.076C370.974 255.291 371.822 256.396 372.102 256.803C373.062 258.205 373.976 259.861 374.015 261.575C373.915 261.765 373.81 261.953 373.694 262.138C372.812 263.535 371.624 264.715 370.221 265.59C370.084 264.135 369.835 262.693 369.478 261.277C369.207 260.25 368.79 258.612 367.609 258.21C367.581 258.196 367.55 258.189 367.519 258.19C367.488 258.192 367.457 258.201 367.431 258.218C367.405 258.235 367.383 258.258 367.369 258.286C367.354 258.313 367.348 258.344 367.349 258.375C367.349 259.639 367.792 260.804 368.482 261.863C369.308 263.137 369.729 264.481 369.651 265.92C369.296 266.12 368.929 266.298 368.553 266.453L368.484 266.48C368.248 265.322 367.866 264.199 367.347 263.137C367.253 262.939 366.912 263.055 367.007 263.254ZM353.892 261.984C353.867 261.988 353.844 261.998 353.825 262.013C353.806 262.028 353.791 262.048 353.781 262.071C353.635 262.102 353.504 262.18 353.408 262.293C353.311 262.406 353.254 262.548 353.247 262.696C353.179 263.503 354.207 263.984 354.731 263.277C354.839 263.142 354.911 262.981 354.94 262.811C354.969 262.64 354.953 262.465 354.895 262.302C354.729 261.913 354.273 261.898 353.895 261.984H353.892ZM370.224 253.325C370.324 253.21 370.378 253.062 370.374 252.909C370.371 252.757 370.311 252.611 370.206 252.501C370.188 252.481 370.165 252.466 370.139 252.458C370.114 252.45 370.087 252.449 370.06 252.454C370.034 252.459 370.01 252.471 369.989 252.489C369.969 252.506 369.954 252.529 369.944 252.554C369.709 252.568 369.486 252.666 369.316 252.829C369.264 252.885 369.227 252.952 369.208 253.025C369.188 253.098 369.185 253.175 369.201 253.249C369.217 253.323 369.25 253.392 369.298 253.45C369.345 253.509 369.407 253.556 369.476 253.586C369.759 253.721 370.066 253.547 370.228 253.325H370.224ZM356.742 255.041C357.157 254.945 357.761 254.705 357.936 254.291C358.144 253.796 357.504 253.648 357.129 253.621C357.102 253.62 357.076 253.623 357.05 253.63C356.635 253.452 356.177 253.394 355.73 253.465C355.101 253.591 354.982 254.208 355.322 254.677C355.643 255.116 356.241 255.156 356.746 255.041H356.742ZM363.773 259.043C363.878 258.931 363.943 258.787 363.959 258.635C363.975 258.482 363.941 258.328 363.862 258.196C363.76 258.033 363.607 257.907 363.427 257.837C363.247 257.767 363.049 257.756 362.863 257.807C362.834 257.813 362.806 257.825 362.782 257.843C362.759 257.861 362.74 257.884 362.726 257.911C362.713 257.938 362.707 257.967 362.707 257.997C362.707 258.027 362.714 258.056 362.728 258.082C362.66 258.133 362.606 258.198 362.567 258.273C362.529 258.347 362.508 258.43 362.506 258.514C362.504 258.598 362.521 258.681 362.556 258.757C362.591 258.834 362.643 258.901 362.708 258.955C362.982 259.187 363.485 259.321 363.777 259.043H363.773Z" fill="url(#paint2_linear_1981_1198)"/>
    <path d="M421.556 241.056C420.919 241.018 420.281 240.978 419.641 240.926C418.348 240.821 416.536 241.038 415.467 240.155C415.434 240.129 415.407 240.096 415.388 240.058C415.369 240.021 415.358 239.98 415.356 239.937C415.354 239.895 415.362 239.853 415.377 239.814C415.393 239.775 415.417 239.74 415.448 239.711C417.45 238.03 419.648 239.889 421.792 239.97C422.025 238.372 422.062 236.752 421.902 235.145C421.81 233.96 421.539 232.796 421.099 231.692C419.91 233.312 418.857 235.039 417.293 236.298C416.67 236.801 415.054 238.299 414.235 237.693C413.333 237.028 414.906 235.962 415.391 235.641C417.375 234.325 419.31 233.042 420.838 231.116C420.089 229.533 418.82 228.251 417.242 227.485C416.053 226.923 414.801 226.505 413.513 226.241C413.802 228.249 413.49 231.23 411.628 231.727C410.315 232.083 409.49 230.548 409.403 229.338C409.302 227.934 410.205 226.673 411.295 225.882C409.334 225.675 407.357 225.651 405.391 225.811C405.035 225.836 404.679 225.874 404.335 225.911C404.331 225.951 404.319 225.99 404.299 226.025C403.364 227.835 402.3 229.901 402.115 231.971C402.046 232.738 402.37 233.747 401.964 234.472C401.322 235.611 400.125 234.671 399.947 233.751C399.623 232.072 400.41 229.958 400.954 228.377C401.18 227.718 401.417 227.012 401.688 226.319C399.313 226.806 396.983 227.643 394.941 229.075C394.263 229.555 393.63 230.096 393.051 230.692C392.794 232.733 392.873 234.797 393.625 236.639C394.159 237.961 395.677 240.454 394.202 241.837C393.186 242.788 392.588 240.972 392.376 240.214C391.713 237.842 391.433 235.287 391.327 232.777C390.3 234.284 389.462 235.911 388.832 237.622C388.197 239.315 387.687 241.052 387.306 242.82C388.553 243.696 390.017 244.053 391.368 244.822C392.002 245.177 393.251 245.945 392.645 246.906C391.387 248.899 388.539 246.591 386.944 244.882C386.81 246.492 387.34 247.771 388.464 248.935C390.897 251.454 394.71 252.267 397.669 249.983C397.551 252.928 399.76 255.341 402.639 254.934C403.672 254.788 404.531 254.27 405.29 253.575C404.621 253.647 403.949 253.673 403.277 253.651C402.413 253.619 400.946 253.548 400.604 252.525C400.27 251.537 401.169 251.482 401.8 251.724C402.578 252.021 403.077 252.449 403.964 252.466C404.96 252.486 405.947 252.17 406.9 251.79C407.983 250.5 409.038 249.356 410.57 248.56C411.161 248.258 411.77 247.99 412.392 247.759C411.185 247.656 409.412 247.441 409.008 246.337C408.345 244.504 411.145 244.383 412.084 244.534C413.344 244.739 414.548 245.138 415.825 245.227C416.898 245.29 417.973 245.174 419.007 244.884C419.221 244.73 419.431 244.568 419.634 244.394C420.609 243.555 421.205 242.365 421.556 241.056ZM398.876 242.402C398.308 242.381 398.039 241.692 397.973 241.187C397.911 240.691 397.992 240.188 398.207 239.736C398.203 239.692 398.208 239.648 398.223 239.606C398.346 239.251 398.542 238.832 398.917 238.718C399.054 238.688 399.196 238.697 399.327 238.743C399.459 238.79 399.575 238.872 399.662 238.981C400.106 239.452 400.275 240.255 400.156 240.917C400.047 241.514 399.539 242.425 398.876 242.402V242.402ZM405.963 235.598C405.646 234.987 405.876 234.241 406.387 233.799C406.431 233.76 406.487 233.738 406.546 233.736C407.048 233.381 407.648 233.454 407.944 234.06C408.092 234.388 408.121 234.757 408.026 235.104C407.931 235.451 407.719 235.755 407.424 235.962C407.309 236.05 407.176 236.111 407.034 236.14C406.892 236.17 406.746 236.167 406.605 236.132C406.465 236.097 406.334 236.031 406.223 235.938C406.112 235.846 406.023 235.73 405.963 235.598V235.598ZM404.844 248.435C404.488 249.024 403.678 249.272 403.213 248.762C402.856 248.361 402.831 247.769 403.034 247.258C403.005 247.233 402.982 247.203 402.966 247.168C402.95 247.134 402.942 247.097 402.942 247.059C402.942 247.021 402.95 246.983 402.966 246.949C402.982 246.915 403.005 246.884 403.034 246.86C404.004 246.027 405.557 247.254 404.844 248.435V248.435Z" fill="#208AF1"/>
    <path d="M390.04 262.286C390.382 262.286 390.726 262.259 391.061 262.248C391.417 261.22 391.797 260.202 392.255 259.202C392.378 258.935 392.502 258.669 392.636 258.402C395.107 253.361 398.691 248.942 403.118 245.478C403.615 245.076 402.908 244.382 402.405 244.767C397.89 248.304 394.236 252.814 391.717 257.96C391.66 258.086 391.603 258.208 391.554 258.333C390.959 259.614 390.454 260.935 390.04 262.286V262.286ZM384.731 262.355C385.066 262.355 385.399 262.355 385.734 262.355C385.913 260.966 386.135 259.576 386.374 258.194C386.784 255.796 387.265 253.398 387.799 251.035C388.925 246.029 390.254 241.069 391.588 236.112C392.898 231.266 394.3 226.439 397.289 222.326C397.672 221.813 396.803 221.317 396.43 221.832C393.548 225.773 392.105 230.37 390.837 235.035C389.328 240.568 387.847 246.117 386.625 251.715C386.158 253.867 385.718 256.029 385.357 258.198C385.123 259.584 384.913 260.973 384.731 262.355ZM372.845 239.562C374.137 242.199 375.222 244.931 376.091 247.734C376.225 248.134 376.341 248.534 376.448 248.933C377.349 252.046 378.051 255.213 378.548 258.415C378.758 259.658 378.929 260.928 379.082 262.186C379.408 262.204 379.742 262.223 380.085 262.232C379.923 260.937 379.75 259.653 379.54 258.367C379.093 255.506 378.492 252.672 377.737 249.877C377.593 249.361 377.451 248.837 377.288 248.324C376.345 245.143 375.141 242.045 373.688 239.061C373.421 238.477 372.569 238.979 372.845 239.562Z" fill="#30608E"/>
    <path d="M363.605 254.813C366.183 253.108 368.75 251.367 371.347 249.691C372.797 248.759 374.23 248.062 375.967 248.7C376.134 248.765 376.297 248.842 376.455 248.929C376.932 249.178 377.37 249.496 377.753 249.873C378.255 250.36 378.69 250.91 379.05 251.509C380.244 253.481 380.832 255.831 381.161 258.288C381.34 259.61 381.448 260.963 381.518 262.285C381.833 262.305 382.157 262.315 382.492 262.324C382.407 260.99 382.314 259.61 382.136 258.249C381.707 254.873 380.809 251.624 378.642 249.405C378.243 248.991 377.794 248.626 377.306 248.32C376.927 248.075 376.52 247.877 376.093 247.73C375.019 247.345 373.842 247.362 372.78 247.778C371.281 248.357 369.879 249.519 368.541 250.404C366.739 251.603 364.935 252.8 363.129 253.994C362.611 254.326 363.088 255.154 363.605 254.813ZM175.54 312.111H338.468C343.314 312.111 346.692 308.203 346.009 303.36L331.569 192.624C330.886 187.792 326.402 183.875 321.56 183.875H158.628C153.783 183.875 150.407 187.783 151.087 192.624L165.531 303.36C166.212 308.189 170.689 312.111 175.54 312.111Z" fill="#30608E"/>
    <path d="M182.09 303.859H345.02C349.866 303.859 353.244 299.942 352.563 295.11L338.119 192.624C337.436 187.792 332.953 183.875 328.11 183.875H165.166C160.322 183.875 156.944 187.783 157.627 192.624L172.069 295.11C172.755 299.942 177.235 303.859 182.09 303.859Z" fill="#208AF1"/>
    <path d="M344.929 291.102L331.618 196.632C330.991 192.178 326.859 188.566 322.391 188.566H172.213C167.745 188.566 164.633 192.178 165.265 196.632L178.58 291.102H344.929Z" fill="#CBDBEB"/>
    <path d="M413.1 312.111L172.761 312.111C172.383 312.111 172.02 311.962 171.753 311.695C171.486 311.429 171.336 311.067 171.336 310.69V293.381H414.523L414.523 310.69C414.523 311.067 414.374 311.428 414.107 311.694C413.84 311.961 413.478 312.111 413.1 312.111V312.111Z" fill="#30608E"/>
    <path d="M172.596 300.282H414.786V293.375H171.83L172.596 300.282Z" fill="#208AF1"/>
    <path d="M329.565 286.322L193.332 286.606L169.941 119.799L306.176 119.515L329.565 286.322Z" fill="white"/>
    <path d="M187.738 158.25L184.375 134.251L210.798 134.196L214.163 158.179L187.738 158.25ZM185.946 135.612L188.928 156.877L212.592 156.829L209.61 135.56L185.946 135.612ZM191.843 187.506L188.478 163.514L214.902 163.459L218.266 187.442L191.843 187.506ZM190.049 164.875L193.031 186.141L216.695 186.094L213.712 164.823L190.049 164.875ZM195.946 216.769L192.582 192.777L219.005 192.722L222.369 216.705L195.946 216.769ZM194.152 194.136L197.134 215.404L220.799 215.355L217.817 194.088L194.152 194.136ZM200.048 246.032L196.685 222.049L223.108 221.992L226.473 245.986L200.048 246.032ZM198.256 223.401L201.237 244.667L224.902 244.618L221.92 223.351L198.256 223.401ZM204.151 275.297L200.797 251.305L227.221 251.249L230.585 275.233L204.151 275.297ZM202.359 252.664L205.341 273.93L229.005 273.881L226.022 252.616L202.359 252.664Z" fill="#30608E"/>
    <path d="M218.232 140.344L218.468 142.007L257.769 141.926L257.582 140.263L218.232 140.344Z" fill="#30608E"/>
    <path d="M218.934 145.347L219.167 147.01L302.56 146.834L302.371 145.173L218.934 145.347Z" fill="#30608E"/>
    <path d="M219.637 150.348L219.87 152.011L285.799 151.874L285.612 150.211L219.637 150.348Z" fill="#30608E"/>
    <path d="M261.882 141.917L274.014 141.89L273.827 140.228L261.693 140.254L261.882 141.917Z" fill="#30608E"/>
    <path d="M222.336 169.608L222.569 171.27L261.87 171.189L261.683 169.526L222.336 169.608Z" fill="#30608E"/>
    <path d="M223.039 174.61L223.271 176.273L306.663 176.099L306.476 174.436L223.039 174.61Z" fill="#30608E"/>
    <path d="M223.74 179.613L223.974 181.274L289.903 181.137L289.715 179.475L223.74 179.613Z" fill="#30608E"/>
    <path d="M265.986 171.179L278.12 171.155L277.931 169.492L265.799 169.517L265.986 171.179Z" fill="#30608E"/>
    <path d="M226.439 198.87L226.673 200.533L265.976 200.451L265.787 198.789L226.439 198.87Z" fill="#30608E"/>
    <path d="M227.143 203.873L227.376 205.536L310.767 205.362L310.58 203.699L227.143 203.873Z" fill="#30608E"/>
    <path d="M227.844 208.876L228.075 210.539L294.006 210.4L293.819 208.739L227.844 208.876Z" fill="#30608E"/>
    <path d="M270.089 200.443L282.221 200.418L282.032 198.755L269.9 198.78L270.089 200.443Z" fill="#30608E"/>
    <path d="M230.545 228.133L230.777 229.796L270.079 229.714L269.892 228.053L230.545 228.133Z" fill="#30608E"/>
    <path d="M231.246 233.138L231.479 234.799L314.872 234.625L314.685 232.964L231.246 233.138Z" fill="#30608E"/>
    <path d="M231.947 238.139L232.181 239.802L298.11 239.665L297.922 238.002L231.947 238.139Z" fill="#30608E"/>
    <path d="M274.193 229.705L286.325 229.68L286.138 228.018L274.004 228.044L274.193 229.705Z" fill="#30608E"/>
    <path d="M234.648 257.398L234.882 259.059L274.183 258.979L273.996 257.316L234.648 257.398Z" fill="#30608E"/>
    <path d="M235.35 262.401L235.581 264.062L318.974 263.888L318.787 262.227L235.35 262.401Z" fill="#30608E"/>
    <path d="M236.049 267.402L236.282 269.067L302.211 268.928L302.024 267.265L236.049 267.402Z" fill="#30608E"/>
    <path d="M278.296 258.97L290.428 258.945L290.241 257.281L278.107 257.307L278.296 258.97Z" fill="#30608E"/>
    <path d="M218.9 226.86L216.067 224.632L211.215 231.422L204.459 224.655L202.252 226.893L209.36 234.014L204.253 241.161L207.085 243.387L211.94 236.597L218.695 243.364L220.9 241.125L213.792 234.005L218.9 226.86Z" fill="url(#paint3_linear_1981_1198)"/>
    <path d="M223.005 256.123L220.173 253.895L215.318 260.685L208.563 253.918L206.355 256.157L213.465 263.277L208.356 270.424L211.189 272.652L216.043 265.86L222.798 272.627L225.004 270.388L217.896 263.268L223.005 256.123Z" fill="url(#paint4_linear_1981_1198)"/>
    <path d="M210.697 168.332L207.864 166.104L203.01 172.896L196.254 166.129L194.049 168.367L201.157 175.488L196.049 182.633L198.88 184.861L203.735 178.069L210.49 184.836L212.697 182.599L205.587 175.477L210.697 168.332Z" fill="url(#paint5_linear_1981_1198)"/>
    <path d="M207.033 214.282C206.226 214.282 204.339 213.797 198.029 206.255C197.413 205.518 197.443 204.495 198.095 203.971C198.747 203.446 199.775 203.615 200.393 204.358C202.34 206.683 204.793 209.318 206.169 210.485C207.906 206.754 212.977 196.45 213.223 195.951C213.599 195.189 214.566 194.967 215.381 195.456C216.195 195.944 216.556 196.957 216.18 197.717C214.267 201.606 209.192 211.972 208.68 213.239C208.562 213.535 208.36 213.79 208.099 213.974C207.838 214.158 207.528 214.262 207.209 214.274C207.161 214.278 207.102 214.282 207.033 214.282ZM198.914 156.358C198.107 156.358 196.221 155.873 189.911 148.333C189.294 147.596 189.323 146.573 189.977 146.049C190.631 145.525 191.658 145.693 192.277 146.436C194.222 148.761 196.675 151.394 198.05 152.561C199.787 148.831 204.859 138.527 205.105 138.028C205.481 137.265 206.448 137.045 207.262 137.532C208.077 138.019 208.436 139.035 208.062 139.795C206.142 143.682 201.074 154.05 200.562 155.315C200.444 155.611 200.243 155.867 199.982 156.051C199.721 156.236 199.412 156.34 199.093 156.352C199.039 156.356 198.98 156.358 198.914 156.358Z" fill="#208AF1"/>
    <path d="M381.358 293.266C380.855 290.83 379.316 288.271 377.203 285.481L382.886 281.875C384.374 284.362 384.86 285.767 387.717 288.757C389.606 290.735 388.074 296.947 383.335 298.111C383.109 298.171 382.106 296.888 381.358 293.266Z" fill="#FEDEA7"/>
    <path d="M383.398 291.724C381.816 292.612 379.171 289.395 378.875 291.617C381.223 293.321 382.616 296.462 382.215 301.921C381.845 306.896 387.56 311.07 387.56 311.07L389.473 285.272C389.473 285.272 388.7 282.378 383.07 282.872C382.864 285.579 385.787 290.397 383.398 291.724Z" fill="#264A6E"/>
    <path d="M383.565 305.702C375.506 302.291 378.11 294.536 376.795 289.553L370.722 291.845C370.722 291.845 370.792 300.925 370.4 306.713C370.008 312.501 371.663 311.966 371.663 311.966L391.4 312.112C391.4 312.112 389.187 308.088 383.565 305.702Z" fill="#FEDEA7"/>
    <path d="M383.754 305.791C382.009 305.201 380.548 303.942 379.301 302.334C378.501 301.201 374.562 302.416 373.892 304.594C373.892 304.594 372.308 305.732 370.427 305.542C370.427 305.944 370.427 306.337 370.392 306.713C370.001 312.499 371.655 311.966 371.655 311.966L391.392 312.112C391.392 312.112 389.541 307.74 383.754 305.791Z" fill="#264A6E"/>
    <path d="M361.892 162.72C356.451 180.299 346.069 230.208 346.491 232.39C346.99 234.962 360.235 243.646 362.483 232.568C365.984 215.321 398.469 168.449 377.474 154.706C369.771 149.657 363.547 157.374 361.892 162.72Z" fill="#3C6A97"/>
    <path d="M383.063 161.448C381.802 158.653 379.983 156.346 377.474 154.697C377.244 154.546 377.016 154.409 376.79 154.281L376.715 154.239C375.648 153.626 374.467 153.238 373.243 153.098C375.436 166.669 374.542 179.849 372.288 191.526L368.615 173.05C368.615 173.05 365.62 187.66 367.459 203.933C367.79 206.937 367.425 209.976 366.39 212.816C361.826 225.46 356.905 233.779 356.207 234.845C357.26 234.291 359.187 235.307 361.106 235.927C361.721 235.097 362.202 233.992 362.494 232.552C365.537 217.515 390.65 179.924 383.063 161.448Z" fill="#274C6F"/>
    <path d="M391.785 182.121C391.101 172.439 386.975 164.534 385.537 162.361C383.164 158.808 375.673 156.115 371.83 161.753C367.988 167.392 368.356 170.305 367.715 182.929C367.074 195.553 370.815 229.071 369.721 238.295C368.627 247.519 381.49 252.685 382.156 239.116C382.822 225.547 392.577 193.319 391.785 182.121Z" fill="#3C6A97"/>
    <path d="M382.353 241.834C382.305 239.221 382.424 237.355 382.579 234.746C383.239 223.637 370.065 229.958 369.804 232.887C369.477 236.565 370.196 238.615 368.367 251.241C366.537 263.867 367.873 271.093 369.058 277.755C370.243 284.417 369.858 293.089 369.858 293.089C375.381 295.656 377.86 293.952 377.86 293.952C377.86 293.952 379.505 280.431 381.27 269.624C383.036 258.818 382.469 247.945 382.353 241.834Z" fill="#3C6A97"/>
    <path d="M384.867 283.056C384.867 283.056 384.266 284.057 382.8 285.105C382.725 285.16 382.645 285.215 382.561 285.266C381.266 286.137 379.355 287.013 376.695 287.345C376.695 287.345 345.183 235.625 346.41 231.621C346.964 229.81 352.823 221.073 360.264 227.712C364.278 231.299 368.751 239.347 373.091 255.348C373.198 255.728 373.3 256.112 373.403 256.503C376.221 267.101 384.867 283.056 384.867 283.056Z" fill="#3C6A97"/>
    <path d="M384.868 283.057C384.868 283.057 384.268 284.057 382.802 285.105C382.727 285.16 382.647 285.215 382.563 285.272C376.609 276.15 369.38 259.809 367.353 251.193C366.248 246.515 364.417 240.459 362.856 235.581C361.709 231.999 360.718 229.043 360.27 227.727C364.283 231.314 368.756 239.361 373.096 255.362C373.203 255.743 373.305 256.126 373.408 256.517C376.223 267.102 384.868 283.057 384.868 283.057ZM379.18 88.1575C377.878 88.201 376.618 88.6284 375.559 89.3857C374.5 90.143 373.69 91.1963 373.231 92.4124C372.772 93.6286 372.685 94.9531 372.981 96.2185C373.277 97.484 373.942 98.6337 374.892 99.5224C375.843 100.411 377.036 100.999 378.322 101.211C379.607 101.424 380.927 101.252 382.114 100.717C383.302 100.182 384.304 99.3081 384.993 98.2056C385.683 97.1031 386.029 95.8215 385.989 94.5228C385.962 93.6587 385.764 92.8084 385.407 92.0205C385.05 91.2327 384.541 90.5228 383.909 89.9315C383.276 89.3403 382.533 88.8792 381.721 88.5748C380.91 88.2704 380.046 88.1286 379.18 88.1575V88.1575Z" fill="#274C6F"/>
    <path d="M387.07 122.35C386.147 115.514 390.219 111.225 386.457 103.501C382.695 95.7768 378.7 95.0164 374.877 93.9238C365.161 91.1542 355.144 103.254 358.978 111.709C362.525 119.525 359.028 125.697 355.883 132.212C352.739 138.726 351.595 159.263 369.46 160.894C387.325 162.524 391.344 154.889 393.015 144.034C395.008 131.043 387.994 129.188 387.07 122.35Z" fill="#274C6F"/>
    <path d="M367.633 132.313C367.098 134.491 360.074 160.645 357.91 163.557C355.371 166.975 350.752 164.04 350.499 159.082C350.255 154.328 353.687 135.013 357.297 129.392C361.182 123.343 368.798 127.623 367.633 132.313Z" fill="#FEDEA7"/>
    <path d="M366.731 131.476C353.548 138.699 350.597 157.738 350.497 159.044C350.272 154.228 353.703 135 357.297 129.394C360.89 123.787 367.061 131.296 366.731 131.476Z" fill="#F6CF8D"/>
    <path d="M383.958 151.99C384.19 149.199 385.109 146.607 387.343 136.952C388.214 133.187 389.288 130.235 388.298 128.602C387.051 126.529 383.295 126.305 380.637 126.392C375.827 126.547 377.767 114.893 377.767 114.893C376.953 112.501 368.965 113.18 369.583 120.892C370.201 128.604 362.447 125.284 360.676 126.776C358.242 128.821 358.576 133.107 358.148 135.401C357.72 137.694 354.407 140.503 355.011 144.681C355.615 148.86 359.577 148.59 359.577 148.59C361.052 150.171 362.465 153.09 362.669 155.179C363.145 160.041 360.888 164.973 360.888 164.973C375.216 170.7 387.061 164.891 387.061 164.891C387.061 164.891 383.265 160.347 383.958 151.99Z" fill="#FBD38F"/>
    <path d="M380.629 126.386C375.819 126.541 377.759 114.887 377.759 114.887C377.306 113.56 374.643 113.181 372.47 114.423C373.975 114.761 377.752 121.202 375.915 130.856C375.395 133.597 372.498 135.297 369.803 135.919C369.803 135.919 387.014 138.371 387.341 136.951C388.207 133.187 383.294 126.299 380.629 126.386Z" fill="#FBD38F"/>
    <path d="M350.439 152.615C350.439 152.615 354.323 156.111 360.594 158.184L363.088 150.65L362.582 126.311C362.582 126.311 358.428 125.622 355.912 131.241C353.397 136.86 351.633 149.426 350.439 152.615Z" fill="url(#paint6_linear_1981_1198)"/>
    <path d="M362.845 151.164L362.386 129.08C362.242 128.155 362.148 127.222 362.102 126.287C360.953 126.287 360.038 127.119 359.53 127.545C357.096 129.591 357.428 133.882 357.002 136.17C356.576 138.458 353.261 141.274 353.867 145.452C354.472 149.631 357.241 150.352 357.241 150.352C358.593 151.796 360.626 154.559 360.982 156.584L362.845 151.164Z" fill="#D29327"/>
    <path d="M383.956 151.988C384.189 149.2 385.107 146.608 387.341 136.953C388.213 133.188 389.29 130.236 388.297 128.603C387.17 126.736 384.022 126.368 381.469 126.374C378.592 132.925 372.642 136.678 368.058 134.755C365.108 133.528 363.426 130.252 363.316 126.306C362.167 126.315 361.178 126.347 360.665 126.775C358.229 128.822 358.563 133.11 358.137 135.4C357.711 137.69 354.396 140.502 355.001 144.683C355.607 148.863 359.564 148.591 359.564 148.591C361.041 150.17 362.455 153.091 362.658 155.178C363.132 160.041 360.877 164.974 360.877 164.974C375.205 170.7 387.048 164.892 387.048 164.892C387.048 164.892 383.265 160.348 383.956 151.988Z" fill="url(#paint7_linear_1981_1198)"/>
    <path d="M383.958 151.988C384.191 149.2 385.108 146.609 387.342 136.953C388.215 133.189 389.291 130.236 388.299 128.603C387.21 126.8 384.239 126.393 381.734 126.377C381.688 126.793 381.627 127.214 381.547 127.637C381.047 130.271 379.882 132.735 378.163 134.796C376.443 136.856 374.225 138.446 371.719 139.415L374.533 139.948C377.754 140.558 379.791 144.052 379.089 147.147C378.576 149.424 376.81 151.032 374.701 151.588L373.431 158.25C372.467 163.313 377.044 167.721 382.066 166.532C385.194 165.79 387.043 164.882 387.043 164.882C387.043 164.882 383.266 160.348 383.958 151.988Z" fill="#D29327"/>
    <path d="M411.272 152.784C409.703 149.263 391.592 131.533 387.883 128.022C386.565 126.779 379.934 134.692 382.336 139.248C383.665 141.773 404.212 158.669 407.67 159.785C411.73 161.093 413.294 157.321 411.272 152.784Z" fill="#FEDEA7"/>
    <path d="M388.046 140.369C386.238 136.847 384.798 133.375 385.288 129.408C383.12 131.732 380.744 136.228 382.336 139.248C383.533 141.522 400.329 155.456 406.169 159.014C405.031 158.193 390.446 145.045 388.046 140.369Z" fill="#FBD38F"/>
    <path d="M377.919 108.47C377.919 108.47 374.566 98.6988 371.327 98.3826C368.088 98.0664 365.519 98.3062 363.893 101.827C363.893 101.827 361.992 104.936 362.646 108.701C362.646 108.701 358.322 112.465 362.863 118.1C367.404 123.735 375.155 120.001 377.76 114.887C377.76 114.887 382.075 116.324 382.684 112.311C383.293 108.297 380.648 108.066 377.919 108.47Z" fill="#FEDEA7"/>
    <path d="M377.919 108.47C377.919 108.47 374.566 98.6991 371.327 98.3829C368.739 98.1306 366.574 98.239 364.98 100.094C367.15 99.5607 374.716 108.225 374.71 113.341C374.71 118.545 369.116 121.691 364.649 119.394C364.112 119.116 363.603 118.787 363.129 118.413C367.7 123.581 375.211 119.902 377.755 114.887C377.755 114.887 382.07 116.324 382.679 112.311C383.288 108.298 380.648 108.067 377.919 108.47Z" fill="#FBD38F"/>
    <path d="M351.606 155.347C358.403 156.182 358.415 164.594 353.807 165.138C346.996 165.942 328.123 160.357 324.369 162.132C320.616 163.907 319.755 167.207 316.089 164.843C312.423 162.478 312.067 160.901 312.498 158.056C312.929 155.212 317.284 155.392 321.827 156.635C326.37 157.879 345.961 154.653 351.606 155.347Z" fill="#FEDEA7"/>
    <path d="M361.395 103.186C361.395 103.186 366.5 102.462 369.431 99.6333C372.361 96.8051 373.852 97.3238 373.852 97.3238C365.153 93.4066 361.395 103.186 361.395 103.186Z" fill="#274C6F"/>
    <path d="M371.091 97.8284C369.687 98.9316 369.34 102.335 372.839 106.217C376.338 110.099 375.119 114.76 377.989 112.257C380.859 109.754 380.902 109.319 381.206 105.842C381.511 102.366 374.175 95.3999 371.091 97.8284Z" fill="#274C6F"/>
    <path d="M397.302 153.35C397.302 153.35 383.442 141.353 381.671 138.96C379.9 136.567 383.602 128.523 387.655 127.795C387.655 127.795 387.728 127.857 387.862 127.985C389.201 129.188 396.712 135.967 403.22 142.54C403.22 142.537 403.997 147.555 397.302 153.35Z" fill="url(#paint8_linear_1981_1198)"/>
    <path d="M397.302 153.35C397.302 153.35 383.442 141.353 381.671 138.96C379.9 136.567 383.602 128.523 387.655 127.795C387.655 127.795 387.728 127.857 387.862 127.985L387.883 128.024C387.883 128.024 381.942 134.158 384.338 138.561C386.734 142.963 395.654 148.644 397.302 153.35Z" fill="#D29327"/>
    <path d="M378.906 144.791C375.796 142.043 369.58 141.677 367.788 144.34C367.328 145.008 366.998 145.757 366.815 146.547C366.359 148.282 366.733 149.949 367.426 151.618C367.503 151.805 369.867 153.384 369.972 153.01C371.524 152.811 373.74 151.897 376.277 150.739C380.57 148.785 397.888 158.654 404.552 160.464C411.16 162.256 414.019 154.532 409.745 152.731C403.43 150.068 382.015 147.54 378.906 144.791Z" fill="#FEDEA7"/>
    <path d="M350.661 154.217H299.605V156.905H350.661V154.217Z" fill="#208AF1"/>
    <path d="M350.662 156.903H374.163V155.392C374.164 155.237 374.133 155.084 374.074 154.942C374.015 154.799 373.928 154.67 373.819 154.561C373.71 154.452 373.58 154.365 373.437 154.306C373.294 154.247 373.141 154.217 372.986 154.217H350.662V156.903Z" fill="#208AF1"/>
    <path d="M301.045 154.217H351.897L345.203 122.995C345.122 122.564 344.895 122.174 344.56 121.89C344.225 121.606 343.802 121.446 343.362 121.437H297.566C295.747 121.437 294.4 123.226 294.805 125.106L301.045 154.217Z" fill="#3C6A97"/>
    <path d="M299.809 154.217H350.661L343.966 122.995C343.886 122.564 343.659 122.174 343.324 121.89C342.988 121.606 342.565 121.446 342.126 121.437H295.364C294.04 121.437 293.06 122.741 293.353 124.102L299.809 154.217Z" fill="#208AF1"/>
    <path opacity="0.34" d="M319.774 121.437L305.453 154.217H312.005L326.859 121.437H319.774Z" fill="#DBE8F5"/>
    <path opacity="0.34" d="M330.476 121.437L316.156 154.217H318.706L333.561 121.437H330.476Z" fill="#DBE8F5"/>
    <path d="M352.124 54H308.088C307.257 54 306.434 54.1632 305.667 54.4802C304.9 54.7973 304.202 55.262 303.615 55.8478C303.028 56.4336 302.562 57.1291 302.244 57.8944C301.927 58.6598 301.763 59.4801 301.763 60.3085V84.3786C301.763 85.207 301.927 86.0273 302.244 86.7926C302.562 87.558 303.028 88.2534 303.615 88.8393C304.202 89.4251 304.9 89.8898 305.667 90.2068C306.434 90.5239 307.257 90.6871 308.088 90.6871H335.626L345.183 102.144C345.339 102.352 345.556 102.507 345.805 102.585C346.053 102.663 346.32 102.66 346.567 102.578C346.815 102.495 347.029 102.337 347.181 102.126C347.333 101.915 347.414 101.661 347.412 101.401L344.517 90.6817H352.126C352.957 90.6824 353.779 90.52 354.547 90.2036C355.315 89.8872 356.013 89.4231 356.601 88.8378C357.188 88.2525 357.655 87.5575 357.974 86.7924C358.292 86.0273 358.456 85.2071 358.457 84.3786V60.3085C358.457 59.4794 358.293 58.6585 357.975 57.8927C357.657 57.1268 357.19 56.4311 356.602 55.8452C356.014 55.2593 355.315 54.7948 354.547 54.4782C353.779 54.1616 352.955 53.9991 352.124 54Z" fill="url(#paint9_linear_1981_1198)"/>
    <path d="M307.119 60.7935V62.5664H332.548L332.576 60.7935H307.119Z" fill="white"/>
    <path d="M307.119 66.1299V67.9046H353.062L353.092 66.1299H307.119Z" fill="white"/>
    <path d="M307.119 71.4683V73.243H349.775L349.803 71.4683H307.119Z" fill="white"/>
    <path d="M335.209 62.5664H343.06L343.088 60.7935H335.239L335.209 62.5664Z" fill="white"/>
    <path d="M307.119 76.457V78.2318H332.548L332.576 76.457H307.119Z" fill="white"/>
    <path d="M307.119 81.7954V83.5684H353.062L353.092 81.7954H307.119Z" fill="white"/>
    <path d="M335.209 78.2318H343.06L343.088 76.457H335.239L335.209 78.2318Z" fill="white"/>
  </g>
  <defs>
    <linearGradient id="paint0_linear_1981_1198" x1="-2.51242e-06" y1="183.63" x2="459.623" y2="181.277" gradientUnits="userSpaceOnUse">
      <stop stop-color="#FBFFE0"/>
      <stop offset="1" stop-color="white" stop-opacity="0"/>
    </linearGradient>
    <linearGradient id="paint1_linear_1981_1198" x1="382.032" y1="214.626" x2="419.142" y2="214.626" gradientUnits="userSpaceOnUse">
      <stop stop-color="#668CB0"/>
      <stop offset="1" stop-color="#30608E"/>
    </linearGradient>
    <linearGradient id="paint2_linear_1981_1198" x1="347.735" y1="255.871" x2="375.143" y2="255.871" gradientUnits="userSpaceOnUse">
      <stop stop-color="#668CB0"/>
      <stop offset="1" stop-color="#30608E"/>
    </linearGradient>
    <linearGradient id="paint3_linear_1981_1198" x1="202.252" y1="234.008" x2="220.9" y2="234.008" gradientUnits="userSpaceOnUse">
      <stop stop-color="#FFA100"/>
      <stop offset="1" stop-color="#F4A620"/>
    </linearGradient>
    <linearGradient id="paint4_linear_1981_1198" x1="206.355" y1="263.273" x2="225.004" y2="263.273" gradientUnits="userSpaceOnUse">
      <stop stop-color="#FFA100"/>
      <stop offset="1" stop-color="#F4A620"/>
    </linearGradient>
    <linearGradient id="paint5_linear_1981_1198" x1="194.049" y1="175.482" x2="212.697" y2="175.482" gradientUnits="userSpaceOnUse">
      <stop stop-color="#FFA100"/>
      <stop offset="1" stop-color="#F4A620"/>
    </linearGradient>
    <linearGradient id="paint6_linear_1981_1198" x1="338.398" y1="148.899" x2="432.924" y2="86.1594" gradientUnits="userSpaceOnUse">
      <stop stop-color="#FFA100"/>
      <stop offset="1" stop-color="#F4A620"/>
    </linearGradient>
    <linearGradient id="paint7_linear_1981_1198" x1="343.254" y1="158.206" x2="398.577" y2="121.486" gradientUnits="userSpaceOnUse">
      <stop stop-color="#FFA100"/>
      <stop offset="1" stop-color="#F4A620"/>
    </linearGradient>
    <linearGradient id="paint8_linear_1981_1198" x1="359.315" y1="144.077" x2="406.435" y2="142.746" gradientUnits="userSpaceOnUse">
      <stop stop-color="#FFA100"/>
      <stop offset="1" stop-color="#F4A620"/>
    </linearGradient>
    <linearGradient id="paint9_linear_1981_1198" x1="358.448" y1="78.3207" x2="301.763" y2="78.3207" gradientUnits="userSpaceOnUse">
      <stop stop-color="#30608E"/>
      <stop offset="1" stop-color="#668CB0"/>
    </linearGradient>
    <clipPath id="clip0_1981_1198">
      <rect width="573" height="368" rx="28" fill="white"/>
    </clipPath>
  </defs>
</svg>