<?xml version="1.0" encoding="UTF-8"?>
<svg xmlns="http://www.w3.org/2000/svg" width="558" height="435" viewBox="0 0 558 435" fill="none">
  <path d="M469.438 401.556C450.636 370.13 455.188 337.89 458.512 314.35C459.919 304.385 461.133 295.779 460.226 289.539C458.518 277.793 456.097 248.598 470.485 231.213C482.728 216.42 485.278 207.878 487.743 199.618C488.552 196.909 491.037 195.126 493.169 195.724C494.608 196.129 498.984 198.663 494.866 214.312C489.292 235.491 490.696 257.406 498.529 271.505C499.49 273.236 500.403 274.992 501.27 276.772L500.683 277.057C499.819 275.281 498.902 273.519 497.959 271.821C490.048 257.581 488.621 235.481 494.235 214.146C497.387 202.169 495.66 197.101 492.993 196.352C491.197 195.848 489.077 197.429 488.368 199.804C485.883 208.127 483.315 216.733 470.987 231.629C456.766 248.813 459.175 277.786 460.871 289.445C461.792 295.777 460.571 304.426 459.157 314.441C455.847 337.885 451.314 369.993 469.998 401.221L469.438 401.556ZM445.76 387.431C442.646 380.655 441.614 373.413 440.308 364.246C438.924 354.534 437.203 342.448 432.196 327.12C432.095 326.812 431.998 326.505 431.902 326.198L432.525 326.004C432.619 326.308 432.716 326.612 432.816 326.917C437.839 342.299 439.566 354.417 440.953 364.154C442.251 373.269 443.277 380.469 446.353 387.159L445.76 387.431Z" fill="#A0A9AF"/>
  <path d="M432.277 291.34L431.65 291.162C434.266 281.984 438.56 273.706 442.347 266.403C446.531 258.337 450.144 251.37 450.773 244.985C451.652 236.055 451.056 228.322 450.577 222.109C450.013 214.779 449.604 209.483 451.814 206.253C452.016 205.917 452.315 205.65 452.672 205.487C453.028 205.324 453.426 205.272 453.812 205.339C458.409 206.056 466.822 221.351 469.47 230.215L468.845 230.402C466.246 221.7 457.953 206.645 453.712 205.983C453.447 205.933 453.173 205.968 452.929 206.083C452.685 206.197 452.483 206.385 452.352 206.621C450.272 209.661 450.673 214.861 451.228 222.059C451.708 228.297 452.306 236.062 451.421 245.049C450.78 251.559 447.141 258.577 442.926 266.703C439.152 273.979 434.875 282.226 432.277 291.34ZM475.011 400.978C460.038 353.975 469.17 336.126 485.988 312.317C489.315 307.607 491.117 302.106 492.86 296.787C495.441 288.908 498.11 280.761 505.757 274.814C507.943 273.113 509.892 272.674 511.244 273.578C513.455 275.053 513.61 279.736 511.682 286.762C509.272 295.545 510.757 305.187 512.477 316.353C515.879 338.434 520.112 365.916 494.867 400.767L494.339 400.385C519.427 365.75 515.216 338.416 511.833 316.452C510.102 305.213 508.607 295.506 511.054 286.59C513.64 277.165 511.796 274.729 510.882 274.119C509.782 273.385 508.104 273.814 506.157 275.328C498.668 281.153 496.03 289.204 493.479 296.99C491.722 302.355 489.904 307.903 486.521 312.693C469.819 336.338 460.751 354.065 475.632 400.78L475.011 400.978ZM476.807 317.88L476.212 317.614C476.329 317.354 476.442 317.091 476.553 316.824L477.155 317.075C477.042 317.347 476.926 317.615 476.807 317.881V317.88ZM478.073 314.61L477.455 314.403C477.546 314.133 477.634 313.859 477.719 313.583L478.341 313.776C478.255 314.057 478.165 314.335 478.073 314.61ZM479.044 311.246L478.411 311.089C478.48 310.811 478.547 310.531 478.612 310.249L479.247 310.395C479.182 310.681 479.114 310.964 479.044 311.246ZM479.776 307.827L479.135 307.71C479.187 307.427 479.237 307.143 479.285 306.858L479.928 306.967C479.879 307.255 479.828 307.542 479.776 307.827ZM480.315 304.376L479.669 304.291C479.706 304.006 479.742 303.72 479.777 303.432L480.424 303.51C480.389 303.8 480.353 304.088 480.316 304.376H480.315ZM480.696 300.907L480.046 300.848C480.072 300.562 480.097 300.274 480.12 299.985L480.769 300.037C480.746 300.328 480.722 300.618 480.695 300.907H480.696ZM480.945 297.427L480.294 297.392C480.31 297.104 480.325 296.816 480.338 296.526L480.989 296.557C480.976 296.848 480.961 297.138 480.945 297.427ZM481.084 293.944L480.433 293.927C480.44 293.638 480.447 293.348 480.453 293.058L481.104 293.071C481.099 293.362 481.092 293.653 481.084 293.944H481.084ZM481.13 290.457L480.479 290.454V290.256L480.477 289.587L481.129 289.584L481.131 290.256L481.13 290.457ZM480.446 286.982L480.426 286.113L481.078 286.097L481.097 286.969L480.446 286.982ZM480.346 283.51L480.311 282.642L480.963 282.615L480.997 283.485L480.346 283.51ZM480.188 280.041L480.141 279.176L480.792 279.139L480.839 280.007L480.188 280.041ZM479.982 276.577L479.925 275.714L480.575 275.669L480.633 276.534L479.982 276.577ZM479.736 273.115L479.669 272.249L480.318 272.197L480.386 273.065L479.736 273.115ZM479.456 269.651L479.382 268.785L480.031 268.729L480.105 269.596L479.456 269.651ZM479.151 266.188L479.072 265.323L479.721 265.263L479.801 266.129L479.151 266.188ZM478.829 262.726L478.747 261.86L479.396 261.799L479.478 262.664L478.829 262.726ZM478.5 259.263L478.418 258.398L479.067 258.337L479.149 259.202L478.5 259.263ZM478.177 255.8L478.099 254.933L478.748 254.875L478.826 255.74L478.177 255.8ZM477.876 252.331L477.808 251.463L478.458 251.413L478.526 252.278L477.876 252.331ZM477.63 248.854C477.612 248.558 477.596 248.267 477.582 247.983L478.233 247.95C478.247 248.233 478.263 248.521 478.28 248.816L477.63 248.854ZM477.497 245.362C477.496 245.211 477.495 245.063 477.495 244.917C477.495 244.771 477.496 244.627 477.497 244.486L478.149 244.493C478.148 244.632 478.147 244.773 478.147 244.917C478.147 245.061 478.148 245.207 478.149 245.356L477.497 245.362ZM478.297 241.922L477.65 241.853C477.68 241.565 477.715 241.275 477.755 240.981L478.401 241.068C478.362 241.356 478.328 241.64 478.298 241.922H478.297ZM478.837 238.519L478.198 238.389C478.256 238.105 478.318 237.819 478.382 237.533L479.018 237.675C478.955 237.958 478.894 238.239 478.837 238.519ZM479.646 235.158L479.017 234.986C479.093 234.707 479.171 234.426 479.252 234.145L479.879 234.324C479.799 234.603 479.721 234.881 479.646 235.158H479.646ZM480.637 231.838L480.017 231.639C480.106 231.363 480.196 231.086 480.288 230.809L480.907 231.015C480.815 231.29 480.726 231.565 480.637 231.838ZM481.757 228.556L481.144 228.336C481.241 228.063 481.34 227.79 481.44 227.516L482.053 227.74C481.953 228.012 481.854 228.284 481.757 228.556ZM482.97 225.3L482.361 225.066C482.465 224.794 482.57 224.523 482.676 224.251L483.283 224.489C483.178 224.759 483.073 225.029 482.969 225.3H482.97ZM484.244 222.066L483.64 221.822L483.966 221.017L484.569 221.262L484.244 222.066ZM485.558 218.848L484.956 218.6L485.288 217.796L485.89 218.045L485.558 218.848ZM486.89 215.634L486.288 215.385L486.621 214.582L487.224 214.831L486.89 215.634ZM488.218 212.416L487.614 212.17L487.941 211.365L488.545 211.609L488.218 212.416ZM489.508 209.178L488.901 208.943C489.006 208.67 489.11 208.4 489.211 208.133L489.82 208.363C489.719 208.632 489.615 208.904 489.508 209.178ZM490.715 205.901L490.099 205.688C490.194 205.411 490.286 205.138 490.375 204.869L490.994 205.072C490.905 205.344 490.812 205.62 490.715 205.901ZM491.739 202.548L491.107 202.388C491.179 202.101 491.245 201.823 491.304 201.553L491.941 201.69C491.881 201.968 491.814 202.254 491.739 202.548ZM77.6749 390.455C73.5695 390.455 68.6116 389.816 64.6683 387.369C56.4776 382.284 49.3942 365.84 49.0965 365.142L48.9492 364.796L49.3121 364.699C63.4646 360.918 80.5847 374.797 85.8729 389.259L86.0003 389.608L85.6378 389.689C83.0149 390.203 80.3481 390.46 77.6753 390.455H77.6749ZM49.8496 365.235C50.9361 367.679 57.6414 382.239 65.0125 386.814C72.228 391.293 83.0091 389.532 85.1281 389.127C79.8351 375.178 63.4872 361.904 49.8492 365.235H49.8496Z" fill="#A0A9AF"/>
  <path d="M91.4151 399.918C80.7891 377.002 60.2411 371.283 60.0351 371.228L60.2028 370.598C60.4123 370.654 81.2532 376.454 92.0061 399.644L91.4151 399.918ZM63.2144 363.43C63.0592 363.293 47.7191 349.392 46.4128 320.76C45.8131 307.621 50.0327 295.405 53.7548 284.628C57.851 272.768 61.3888 262.526 57.8019 253.99C53.6005 243.992 52.8092 237.186 55.6304 235.317C57.4534 234.11 60.4614 235.285 63.4795 238.385C77.4725 252.752 78.4068 264.422 79.5888 279.197C80.0833 285.372 80.6435 292.372 82.2605 300.306C85.8179 317.761 94.2706 325.677 103.36 332.885C113.281 340.754 117.214 346.391 118.946 355.222L118.306 355.348C116.609 346.692 112.735 341.153 102.955 333.396C93.7678 326.11 85.2229 318.106 81.6217 300.437C79.9969 292.463 79.435 285.443 78.9391 279.249C77.7671 264.605 76.8419 253.038 63.0127 238.839C60.2685 236.022 57.512 234.853 55.9902 235.86C55.0545 236.481 52.4628 239.602 58.4029 253.737C62.0862 262.502 58.5111 272.855 54.371 284.841C50.6676 295.563 46.4702 307.716 47.0638 320.73C48.357 349.071 63.4938 362.807 63.6468 362.942L63.2144 363.43Z" fill="#A0A9AF"/>
  <path d="M107.36 385.467C101.258 360.621 94.2353 353.365 86.7999 345.682C81.7676 340.483 76.5633 335.106 71.6045 323.885C66.5322 312.408 67.2601 299.708 67.9645 287.426C68.958 270.098 69.9853 252.18 55.3057 236.46L55.7824 236.015C70.6519 251.938 69.6168 269.998 68.6151 287.464C67.8833 300.23 67.1919 312.288 72.2003 323.622C77.1126 334.736 82.2752 340.07 87.2684 345.229C94.7668 352.977 101.849 360.294 107.993 385.312L107.36 385.467ZM91.7009 236.158L83.6502 227.635L97.259 224.699L91.7009 236.158ZM84.9182 228.029L91.5262 235.024L96.0887 225.619L84.9182 228.029ZM86.2736 219.621L78.8035 218.629L85.0308 214.317L86.2736 219.621ZM80.5609 218.205L85.4236 218.851L84.614 215.398L80.5609 218.205ZM483.604 88.2632L483.08 87.8752C483.254 87.5892 483.623 85.3677 483.879 83.3861L483.939 82.9146L488.303 85.2804L489.704 81.4645H493.615V82.1163H490.159L488.654 86.213L484.463 83.9402C484.268 85.3916 483.898 87.8773 483.604 88.2632ZM86.6422 87.1125L86.0038 82.5205L82.7506 87.0934L80.2697 83.2223L76.8579 85.409L76.5059 84.8602L80.4666 82.3219L82.7789 85.9292L86.4236 80.8057L87.2875 87.0226L86.6422 87.1125ZM461.127 181.151C460.333 181.15 459.55 180.96 458.845 180.596C458.139 180.231 457.531 179.704 457.07 179.058C456.609 178.411 456.31 177.664 456.196 176.878C456.082 176.092 456.158 175.291 456.416 174.54C456.675 173.789 457.109 173.111 457.682 172.562C458.255 172.013 458.952 171.608 459.713 171.383C460.474 171.157 461.278 171.116 462.058 171.263C462.838 171.411 463.572 171.743 464.198 172.231C465.018 172.87 465.618 173.749 465.914 174.745C466.21 175.741 466.187 176.805 465.849 177.788C465.51 178.771 464.873 179.623 464.026 180.226C463.18 180.829 462.166 181.152 461.127 181.151ZM461.137 171.831C460.111 171.83 459.119 172.194 458.336 172.856C457.553 173.519 457.031 174.437 456.862 175.449C456.693 176.46 456.888 177.499 457.413 178.38C457.937 179.261 458.757 179.927 459.727 180.261C460.697 180.594 461.754 180.572 462.709 180.2C463.664 179.827 464.457 179.128 464.945 178.226C465.433 177.325 465.586 176.279 465.376 175.275C465.166 174.272 464.606 173.375 463.797 172.745C463.038 172.151 462.101 171.83 461.137 171.831ZM457.86 169.386C457.509 169.386 457.162 169.301 456.85 169.14C456.538 168.979 456.268 168.746 456.064 168.459C455.86 168.173 455.727 167.842 455.677 167.494C455.627 167.146 455.66 166.791 455.775 166.459C455.889 166.126 456.081 165.826 456.335 165.583C456.589 165.34 456.897 165.161 457.234 165.061C457.571 164.961 457.927 164.942 458.273 165.008C458.618 165.073 458.943 165.22 459.221 165.436C459.584 165.719 459.85 166.108 459.981 166.549C460.113 166.991 460.102 167.462 459.953 167.897C459.803 168.333 459.52 168.71 459.145 168.977C458.77 169.244 458.321 169.387 457.86 169.386ZM457.866 165.621C457.801 165.621 457.736 165.625 457.671 165.633C457.314 165.678 456.983 165.844 456.734 166.105C456.486 166.366 456.336 166.705 456.31 167.065C456.283 167.424 456.382 167.781 456.59 168.076C456.798 168.37 457.101 168.583 457.448 168.679C457.795 168.775 458.165 168.748 458.494 168.602C458.824 168.456 459.092 168.2 459.254 167.878C459.416 167.556 459.461 167.188 459.382 166.837C459.302 166.485 459.104 166.172 458.82 165.951C458.548 165.737 458.212 165.621 457.866 165.622V165.621Z" fill="#A0A9AF"/>
  <path d="M244.112 281.722H237.538V281.07H243.46V233.094H206.807V244.174H206.155V232.442H244.112V281.722ZM322.386 281.079H254.464L254.46 270.625L322.386 270.729V281.079ZM255.115 280.427H321.735V271.38L255.111 271.277L255.115 280.427ZM443.331 402.354H104.916C102.622 402.352 100.424 401.44 98.802 399.818C97.1803 398.196 96.2682 395.998 96.2656 393.704V389.414H451.981V393.704C451.978 395.998 451.066 398.196 449.445 399.818C447.823 401.44 445.624 402.352 443.331 402.354ZM96.9175 390.066V393.704C96.9199 395.825 97.7633 397.858 99.2627 399.357C100.762 400.857 102.795 401.7 104.916 401.703H443.331C445.452 401.7 447.485 400.857 448.984 399.357C450.483 397.858 451.327 395.825 451.329 393.704V390.066H96.9175Z" fill="#103050"/>
  <path d="M312.247 395.955H235.999C234.789 395.954 233.629 395.473 232.774 394.617C231.918 393.761 231.437 392.601 231.436 391.391V389.74H232.087V391.392C232.089 392.429 232.501 393.423 233.234 394.156C233.968 394.89 234.962 395.302 235.999 395.304H312.247C313.285 395.302 314.279 394.89 315.012 394.156C315.746 393.423 316.158 392.428 316.159 391.391V389.995H316.811V391.391C316.81 392.601 316.329 393.761 315.473 394.617C314.617 395.473 313.457 395.954 312.247 395.955Z" fill="#103050"/>
  <path d="M417.869 382.949H417.217V184.153H393.096V183.501H417.869V382.949ZM130.012 382.626L129.938 183.501H168.756V184.153H130.591L130.664 382.626L130.012 382.626Z" fill="#A0A9AF"/>
  <path d="M120.003 385.213H119.352V175.509C119.353 174.327 119.823 173.194 120.659 172.358C121.495 171.522 122.628 171.052 123.81 171.051H169.758V171.703H123.81C122.801 171.704 121.833 172.105 121.119 172.819C120.406 173.532 120.004 174.5 120.003 175.509V385.213ZM428.893 385.859H428.241V175.509C428.24 174.5 427.839 173.533 427.125 172.819C426.412 172.106 425.444 171.704 424.435 171.703H393.096V171.052H424.435C425.617 171.053 426.75 171.523 427.586 172.359C428.422 173.194 428.892 174.327 428.893 175.509V385.859Z" fill="#A0A9AF"/>
  <path d="M131.029 198.462H163.748V199.114H131.029V198.462ZM357.794 198.462H414.458V199.114H357.794V198.462ZM408.765 193.293C408.412 193.293 408.068 193.189 407.775 192.993C407.482 192.798 407.254 192.519 407.119 192.194C406.984 191.869 406.948 191.51 407.017 191.165C407.086 190.819 407.255 190.502 407.505 190.253C407.754 190.003 408.071 189.834 408.417 189.765C408.762 189.696 409.12 189.731 409.446 189.866C409.771 190.001 410.05 190.229 410.245 190.522C410.441 190.815 410.546 191.16 410.546 191.512C410.545 191.984 410.357 192.437 410.023 192.771C409.689 193.105 409.237 193.293 408.764 193.293H408.765ZM408.765 190.383C408.541 190.383 408.323 190.449 408.137 190.573C407.951 190.697 407.806 190.874 407.721 191.08C407.635 191.286 407.613 191.514 407.657 191.733C407.7 191.952 407.808 192.153 407.966 192.311C408.124 192.469 408.325 192.577 408.544 192.62C408.763 192.664 408.99 192.641 409.197 192.556C409.403 192.47 409.579 192.325 409.704 192.14C409.828 191.954 409.894 191.735 409.894 191.512C409.893 191.213 409.774 190.926 409.562 190.714C409.351 190.502 409.064 190.383 408.764 190.383H408.765ZM401.488 193.293C401.136 193.293 400.792 193.189 400.499 192.993C400.206 192.797 399.978 192.519 399.843 192.193C399.708 191.868 399.673 191.51 399.742 191.164C399.811 190.819 399.98 190.501 400.229 190.252C400.479 190.003 400.796 189.834 401.141 189.765C401.487 189.696 401.845 189.732 402.171 189.866C402.496 190.001 402.774 190.23 402.97 190.522C403.166 190.815 403.27 191.16 403.27 191.512C403.27 191.984 403.082 192.437 402.748 192.771C402.414 193.105 401.961 193.293 401.488 193.293ZM401.488 190.383C401.265 190.383 401.047 190.449 400.861 190.574C400.675 190.698 400.531 190.874 400.445 191.081C400.36 191.287 400.337 191.514 400.381 191.733C400.425 191.952 400.532 192.153 400.69 192.311C400.848 192.469 401.05 192.577 401.269 192.62C401.488 192.664 401.715 192.641 401.921 192.556C402.128 192.47 402.304 192.325 402.428 192.14C402.552 191.954 402.618 191.735 402.618 191.512C402.618 191.213 402.499 190.925 402.287 190.714C402.075 190.502 401.788 190.383 401.488 190.383ZM394.212 193.293C393.86 193.293 393.516 193.189 393.223 192.993C392.93 192.797 392.702 192.519 392.567 192.194C392.432 191.868 392.397 191.51 392.465 191.164C392.534 190.819 392.704 190.502 392.953 190.252C393.202 190.003 393.519 189.834 393.865 189.765C394.21 189.696 394.569 189.731 394.894 189.866C395.22 190.001 395.498 190.229 395.694 190.522C395.889 190.815 395.994 191.16 395.994 191.512C395.993 191.984 395.805 192.437 395.471 192.771C395.138 193.105 394.685 193.293 394.212 193.293ZM394.212 190.383C393.989 190.383 393.771 190.449 393.585 190.573C393.399 190.698 393.254 190.874 393.169 191.08C393.083 191.287 393.061 191.514 393.105 191.733C393.148 191.952 393.256 192.153 393.414 192.311C393.572 192.469 393.773 192.577 393.992 192.62C394.211 192.664 394.439 192.641 394.645 192.556C394.851 192.47 395.028 192.325 395.152 192.14C395.276 191.954 395.342 191.735 395.342 191.512C395.342 191.213 395.222 190.926 395.011 190.714C394.799 190.502 394.512 190.383 394.212 190.383ZM140.302 188.599H148.225V189.251H140.302V188.599ZM140.302 191.348H148.225V192H140.302V191.348ZM140.302 194.097H148.225V194.749H140.302V194.097Z" fill="#A0A9AF"/>
  <path d="M171.716 228.217H171.064V167.26C171.067 164.685 172.091 162.217 173.912 160.397C175.732 158.576 178.2 157.552 180.775 157.549H363.552V158.201H180.775C178.374 158.204 176.071 159.159 174.373 160.857C172.674 162.555 171.719 164.858 171.716 167.26V228.217Z" fill="#103050"/>
  <path d="M355.365 387.223H354.713V167.39C354.713 164.78 355.75 162.277 357.595 160.432C359.441 158.586 361.944 157.549 364.553 157.549C367.163 157.549 369.666 158.586 371.512 160.432C373.357 162.277 374.394 164.78 374.394 167.39V177.071C374.41 179.276 375.297 181.386 376.862 182.939C378.427 184.493 380.543 185.365 382.748 185.365C384.953 185.365 387.069 184.493 388.634 182.939C390.199 181.386 391.086 179.276 391.102 177.071V131.001C391.118 128.624 392.074 126.349 393.761 124.674C395.448 122.998 397.73 122.058 400.107 122.058C402.485 122.058 404.766 122.998 406.453 124.674C408.14 126.349 409.097 128.624 409.113 131.001V169.893H408.461V131.001C408.445 128.796 407.558 126.687 405.993 125.133C404.428 123.58 402.313 122.708 400.107 122.708C397.902 122.708 395.786 123.58 394.221 125.133C392.657 126.687 391.769 128.796 391.754 131.001V177.071C391.754 179.46 390.805 181.75 389.116 183.439C387.427 185.128 385.136 186.077 382.748 186.077C380.359 186.077 378.068 185.128 376.379 183.439C374.69 181.75 373.742 179.46 373.742 177.071V167.39C373.742 164.953 372.774 162.616 371.05 160.893C369.327 159.17 366.99 158.202 364.553 158.202C362.116 158.202 359.779 159.17 358.056 160.893C356.333 162.616 355.365 164.953 355.365 167.39V387.223Z" fill="#103050"/>
  <path d="M355.539 185.425H382.746V186.077H355.539V185.425ZM301.98 121.996H400.106V122.647H301.98V121.996ZM444.334 401.697H516.666V402.349H444.334V401.697ZM41.3691 401.697H104.709V402.349H41.3691V401.697ZM188.945 379.377H188.293V305.273H336.389V377.875H335.738V305.925H188.945V379.377Z" fill="#103050"/>
  <path d="M196.966 369.203H277.087V369.855H196.966V369.203ZM286.601 332.799C286.207 332.799 285.821 332.682 285.493 332.463C285.165 332.243 284.909 331.932 284.758 331.567C284.607 331.203 284.568 330.801 284.645 330.414C284.722 330.027 284.912 329.672 285.191 329.393C285.47 329.114 285.825 328.924 286.212 328.847C286.599 328.77 287 328.809 287.365 328.96C287.729 329.111 288.041 329.367 288.26 329.695C288.48 330.023 288.597 330.409 288.597 330.804C288.596 331.333 288.386 331.84 288.012 332.214C287.638 332.588 287.13 332.798 286.601 332.799ZM286.601 329.46C286.336 329.46 286.076 329.539 285.855 329.687C285.634 329.834 285.462 330.044 285.36 330.29C285.259 330.535 285.232 330.805 285.284 331.066C285.336 331.326 285.464 331.566 285.652 331.754C285.839 331.941 286.079 332.069 286.339 332.121C286.6 332.173 286.87 332.146 287.115 332.045C287.361 331.943 287.571 331.771 287.718 331.55C287.866 331.329 287.945 331.069 287.945 330.804C287.944 330.448 287.803 330.106 287.551 329.854C287.299 329.603 286.958 329.461 286.601 329.46ZM286.601 339.976C286.207 339.976 285.821 339.859 285.493 339.64C285.165 339.421 284.909 339.109 284.758 338.745C284.607 338.38 284.568 337.979 284.645 337.592C284.722 337.205 284.912 336.85 285.191 336.571C285.47 336.292 285.825 336.102 286.212 336.025C286.599 335.948 287 335.987 287.365 336.138C287.729 336.289 288.041 336.545 288.26 336.873C288.48 337.201 288.597 337.587 288.597 337.981C288.596 338.51 288.385 339.017 288.011 339.391C287.637 339.765 287.13 339.975 286.601 339.976V339.976ZM286.601 336.638C286.336 336.638 286.076 336.717 285.855 336.864C285.634 337.012 285.462 337.221 285.36 337.467C285.259 337.712 285.232 337.982 285.284 338.243C285.336 338.503 285.464 338.743 285.651 338.931C285.839 339.118 286.079 339.246 286.339 339.298C286.6 339.35 286.87 339.324 287.115 339.222C287.361 339.12 287.57 338.948 287.718 338.728C287.866 338.507 287.945 338.247 287.945 337.981C287.944 337.625 287.803 337.284 287.551 337.032C287.299 336.78 286.958 336.639 286.601 336.638V336.638ZM286.601 347.154C286.207 347.154 285.821 347.037 285.493 346.818C285.165 346.598 284.909 346.287 284.758 345.922C284.607 345.557 284.568 345.156 284.645 344.769C284.722 344.382 284.912 344.027 285.191 343.748C285.47 343.469 285.825 343.279 286.212 343.202C286.6 343.125 287.001 343.165 287.365 343.316C287.73 343.467 288.041 343.722 288.26 344.051C288.48 344.379 288.597 344.765 288.597 345.159C288.596 345.688 288.385 346.195 288.011 346.569C287.637 346.943 287.13 347.153 286.601 347.154ZM286.601 343.815C286.336 343.815 286.076 343.894 285.855 344.042C285.634 344.189 285.462 344.399 285.36 344.645C285.259 344.89 285.232 345.16 285.284 345.421C285.336 345.681 285.464 345.921 285.652 346.109C285.839 346.296 286.079 346.424 286.339 346.476C286.6 346.528 286.87 346.501 287.115 346.4C287.361 346.298 287.571 346.126 287.718 345.905C287.866 345.684 287.945 345.424 287.945 345.159C287.944 344.803 287.802 344.461 287.551 344.21C287.299 343.958 286.957 343.816 286.601 343.816V343.815ZM286.601 354.331C286.207 354.331 285.821 354.214 285.493 353.995C285.165 353.776 284.909 353.464 284.758 353.1C284.607 352.735 284.568 352.334 284.645 351.947C284.722 351.56 284.912 351.205 285.191 350.926C285.47 350.647 285.825 350.457 286.212 350.38C286.599 350.303 287 350.342 287.365 350.493C287.729 350.644 288.041 350.9 288.26 351.228C288.48 351.556 288.597 351.942 288.597 352.336C288.596 352.865 288.385 353.372 288.011 353.746C287.637 354.12 287.13 354.33 286.601 354.331V354.331ZM286.601 350.993C286.336 350.993 286.076 351.072 285.855 351.22C285.634 351.367 285.462 351.577 285.36 351.822C285.259 352.068 285.232 352.338 285.284 352.599C285.336 352.859 285.464 353.099 285.652 353.286C285.84 353.474 286.079 353.602 286.34 353.654C286.6 353.706 286.87 353.679 287.116 353.577C287.361 353.476 287.571 353.303 287.719 353.082C287.866 352.861 287.945 352.602 287.945 352.336C287.944 351.98 287.802 351.639 287.551 351.387C287.299 351.135 286.957 350.994 286.601 350.993ZM293.111 330.311H324.158V330.963H293.111V330.311ZM293.111 337.321H324.158V337.973H293.111V337.321ZM293.111 344.332H324.158V344.984H293.111V344.332ZM293.111 351.343H324.158V351.994H293.111V351.343Z" fill="#103050"/>
  <path d="M208.976 369.529H208.324V350.659H201.297V369.406H200.646V350.007H208.976V369.529ZM224.332 369.529H223.68V338.307H216.654V369.328H216.002V337.655H224.332V369.529ZM239.689 369.529H239.037V355.667H232.01V369.439H231.358V355.015H239.689V369.529ZM255.045 369.529H254.393V326.456H247.367V369.253H246.715V325.804H255.045V369.529ZM270.402 369.529H269.75V317.442H262.724V369.195H262.072V316.79H270.402V369.529Z" fill="#103050"/>
  <path d="M381.163 67.3126L380.384 66.9293L380.671 66.3439L381.452 66.7285L381.163 67.3126ZM378.039 65.7959L377.254 65.4244L377.532 64.8347L378.319 65.208L378.039 65.7959ZM374.891 64.3267L374.101 63.9668L374.37 63.3728L375.163 63.7339L374.891 64.3267ZM371.722 62.9048L370.926 62.5571L371.186 61.9592L371.984 62.3081L371.722 62.9048ZM368.531 61.5315L367.73 61.1952L367.98 60.5937L368.784 60.9305L368.531 61.5315ZM365.319 60.2061L364.513 59.8824L364.755 59.277L365.563 59.6016L365.319 60.2061ZM362.088 58.9298L361.276 58.6182L361.509 58.0094L362.322 58.3218L362.088 58.9298ZM358.837 57.7026L358.021 57.4036L358.244 56.7909L359.062 57.0907L358.837 57.7026ZM355.568 56.5249L354.748 56.2381L354.962 55.6228L355.784 55.91L355.568 56.5249ZM352.281 55.3972L351.457 55.123L351.661 54.5042L352.488 54.7788L352.281 55.3972ZM348.977 54.3195L348.149 54.0574L348.344 53.436L349.175 53.6981L348.977 54.3195ZM345.658 53.2917L344.825 53.0427L345.011 52.4178L345.846 52.6677L345.658 53.2917ZM342.322 52.3148L341.486 52.0784L341.662 51.4505L342.501 51.6878L342.322 52.3148ZM338.973 51.3883L338.133 51.1645L338.3 50.5344L339.142 50.7591L338.973 51.3883ZM335.609 50.5131L334.766 50.3024L334.923 49.6696L335.769 49.8808L335.609 50.5131ZM224.664 49.9977L224.511 49.3641L225.356 49.1612L225.507 49.7952L224.664 49.9977ZM332.233 49.6892L331.386 49.491L331.533 48.8557L332.383 49.0547L332.233 49.6892ZM228.043 49.2068L227.899 48.5706L228.748 48.3803L228.889 49.0169L228.043 49.2068ZM328.844 48.9161L327.994 48.731L328.132 48.0939L328.983 48.2795L328.844 48.9161ZM231.433 48.4668L231.299 47.8288L232.151 47.6515L232.282 48.2899L231.433 48.4668ZM325.443 48.1947L324.59 48.0226L324.718 47.3834L325.573 47.5563L325.443 48.1947ZM234.834 47.7784L234.71 47.1383L235.564 46.974L235.686 47.6141L234.834 47.7784ZM322.031 47.5251L321.177 47.3656L321.295 46.7246L322.153 46.8845L322.031 47.5251ZM238.246 47.1413L238.131 46.4995L238.987 46.3483L239.099 46.9901L238.246 47.1413ZM318.61 46.9071L317.753 46.7607L317.861 46.1179L318.721 46.2648L318.61 46.9071ZM241.666 46.556L241.561 45.9128L242.419 45.7742L242.522 46.4178L241.666 46.556ZM315.18 46.3409L314.32 46.2075L314.419 45.5634L315.281 45.6973L315.18 46.3409ZM245.094 46.0228L244.999 45.3779L245.859 45.2523L245.952 45.8976L245.094 46.0228ZM311.74 45.8272L310.879 45.7064L310.968 45.0606L311.832 45.1814L311.74 45.8272ZM248.531 45.5408L248.445 44.8946L249.307 44.7821L249.39 45.4287L248.531 45.5408ZM308.293 45.3648L307.43 45.2571L307.51 44.61L308.376 44.7178L308.293 45.3648ZM251.974 45.111L251.898 44.4635L252.761 44.364L252.835 45.0115L251.974 45.111ZM304.84 44.9546L303.976 44.8599L304.045 44.2115L304.912 44.3062L304.84 44.9546ZM255.423 44.733L255.357 44.0846L256.222 43.9977L256.285 44.6465L255.423 44.733ZM301.381 44.5961L300.515 44.5144L300.575 43.8656L301.443 43.9473L301.381 44.5961ZM258.877 44.4066L258.821 43.7574L259.687 43.6835L259.741 44.3332L258.877 44.4066ZM297.916 44.2897L297.049 44.2215L297.099 43.5714L297.969 43.64L297.916 44.2897ZM262.336 44.132L262.289 43.4819L263.156 43.421L263.2 44.0716L262.336 44.132ZM294.447 44.0355L293.579 43.9799L293.619 43.3293L294.49 43.385L294.447 44.0355ZM265.798 43.9095L265.761 43.2585L266.629 43.2107L266.664 43.8617L265.798 43.9095ZM290.975 43.833L290.106 43.7904L290.136 43.1394L291.008 43.182L290.975 43.833ZM269.264 43.7378L269.236 43.0868L270.105 43.0521L270.13 43.7031L269.264 43.7378ZM287.499 43.6826L286.629 43.6531L286.65 43.0012L287.523 43.0312L287.499 43.6826ZM272.731 43.6183L272.713 42.9665L273.583 42.9447L273.598 43.5966L272.731 43.6183ZM284.022 43.5836L283.151 43.567L283.163 42.9152L284.036 42.9321L284.022 43.5836ZM276.199 43.5501L276.192 42.8982L277.061 42.8891L277.067 43.541L276.199 43.5501ZM280.543 43.5366L279.672 43.5327L279.674 42.8809L280.546 42.8848L280.543 43.5366ZM55.6328 217.465L55.001 217.306L55.2161 216.459L55.8475 216.621L55.6328 217.465ZM56.5098 214.095L55.8801 213.926L56.1083 213.083L56.7371 213.254L56.5098 214.095ZM57.4376 210.74L56.8109 210.561L57.0513 209.722L57.6775 209.903L57.4376 210.74ZM58.4167 207.399L57.7922 207.211L58.0455 206.376L58.6691 206.566L58.4167 207.399ZM59.4457 204.074L58.8243 203.876L59.0907 203.045L59.7108 203.245L59.4457 204.074ZM60.5256 200.765L59.9077 200.558L60.1858 199.731L60.8033 199.94L60.5256 200.765ZM61.6555 197.474L61.0406 197.258L61.3317 196.435L61.9458 196.654L61.6555 197.474ZM62.8353 194.2L62.2234 193.975L62.5272 193.157L63.1378 193.385L62.8353 194.2ZM64.0643 190.946L63.4559 190.711L63.7722 189.897L64.3793 190.135L64.0643 190.946ZM65.3428 187.71L64.7387 187.466L65.0668 186.658L65.67 186.904L65.3428 187.71ZM66.6699 184.495L66.0694 184.242L66.4096 183.439L67.0093 183.694L66.6699 184.495ZM68.0458 181.301L67.4491 181.038L67.8015 180.241L68.3973 180.506L68.0458 181.301ZM69.4698 178.128L68.8771 177.856L69.2421 177.065L69.8331 177.338L69.4698 178.128ZM70.9413 174.977L70.3529 174.698L70.7292 173.911L71.3167 174.194L70.9413 174.977ZM72.4609 171.85L71.8769 171.561L72.265 170.78L72.8481 171.072L72.4609 171.85ZM74.0271 168.746L73.4474 168.449L73.8472 167.674L74.426 167.974L74.0271 168.746ZM75.6398 165.667L75.0649 165.36L75.4764 164.592L76.0509 164.9L75.6398 165.667ZM77.299 162.612L76.7288 162.297L77.1521 161.535L77.7214 161.852L77.299 162.612ZM79.0042 159.583L78.4384 159.259L78.8729 158.504L79.4379 158.83L79.0042 159.583ZM80.7542 156.581L80.1936 156.249L80.6395 155.5L81.1992 155.835L80.7542 156.581ZM82.5498 153.606L81.994 153.265L82.4512 152.523L83.0057 152.866L82.5498 153.606ZM84.3898 150.658L83.8396 150.308L84.3076 149.574L84.8565 149.925L84.3898 150.658ZM86.2736 147.738L85.7286 147.381L86.2075 146.653L86.7516 147.013L86.2736 147.738ZM88.2013 144.848L87.6616 144.482L88.1513 143.762L88.6902 144.129L88.2013 144.848ZM90.1716 141.987L89.638 141.613L90.1386 140.901L90.6714 141.276L90.1716 141.987ZM92.1854 139.156L91.657 138.774L92.1685 138.069L92.6952 138.453L92.1854 139.156ZM94.2409 136.356L93.7181 135.966L94.2396 135.269L94.7611 135.66L94.2409 136.356ZM96.3373 133.587L95.821 133.189L96.3529 132.5L96.8683 132.9L96.3373 133.587ZM98.4757 130.85L97.9651 130.445L98.5075 129.764L99.0168 130.171L98.4757 130.85ZM100.655 128.146L100.151 127.733L100.703 127.06L101.206 127.475L100.655 128.146ZM102.874 125.475L102.376 125.055L102.938 124.39L103.435 124.812L102.874 125.475ZM105.133 122.837L104.641 122.41L105.214 121.754L105.703 122.184L105.133 122.837ZM107.431 120.234L106.945 119.8L107.527 119.152L108.011 119.589L107.431 120.234ZM109.767 117.666L109.288 117.224L109.88 116.585L110.357 117.03L109.767 117.666ZM112.142 115.133L111.669 114.685L112.271 114.054L112.741 114.506L112.142 115.133ZM114.553 112.637L114.088 112.181L114.699 111.56L115.162 112.018L114.553 112.637ZM117.003 110.177L116.544 109.714L117.163 109.103L117.62 109.568L117.003 110.177ZM119.487 107.754L119.035 107.284L119.664 106.682L120.114 107.154L119.487 107.754ZM122.009 105.368L121.564 104.892L122.202 104.3L122.644 104.778L122.009 105.368ZM124.565 103.021L124.128 102.538L124.774 101.956L125.209 102.441L124.565 103.021ZM127.156 100.713L126.726 100.223L127.381 99.6503L127.809 100.141L127.156 100.713ZM129.781 98.4435L129.358 97.9473L130.022 97.3845L130.442 97.8821L129.781 98.4435ZM132.439 96.2142L132.024 95.7114L132.696 95.1586L133.109 95.6628L132.439 96.2142ZM135.131 94.0244L134.723 93.516L135.403 92.9732L135.809 93.4834L135.131 94.0244ZM137.855 91.8759L137.455 91.361L138.143 90.8291L138.541 91.3453L137.855 91.8759ZM140.61 89.7683L140.218 89.2477L140.913 88.7262L141.303 89.2481L140.61 89.7683ZM143.397 87.7028L143.013 87.1761L143.716 86.6651L144.098 87.1931L143.397 87.7028ZM146.214 85.6795L145.837 85.1471L146.548 84.6465L146.923 85.1802L146.214 85.6795ZM149.06 83.6983L148.692 83.1607L149.411 82.6705L149.777 83.2103L149.06 83.6983ZM151.937 81.7606L151.576 81.2174L152.302 80.7385L152.66 81.283L151.937 81.7606ZM154.841 79.8667L154.489 79.3179L155.222 78.8503L155.572 79.4L154.841 79.8667ZM157.773 78.0163L157.43 77.4627L158.169 77.006L158.51 77.5609L157.773 78.0163ZM160.733 76.2112L160.398 75.6519L161.144 75.2064L161.477 75.767L160.733 76.2112ZM163.719 74.4503L163.392 73.8862L164.145 73.4517L164.47 74.017L163.719 74.4503ZM166.732 72.7351L166.414 72.1658L167.172 71.7434L167.489 72.3131L166.732 72.7351ZM169.769 71.0655L169.459 70.4918L170.224 70.0803L170.532 70.6552L169.769 71.0655ZM172.831 69.4419L172.53 68.864L173.301 68.4642L173.6 69.0434L172.831 69.4419ZM175.916 67.8645L175.624 67.2821L176.401 66.8941L176.691 67.4781L175.916 67.8645ZM179.025 66.3348L178.742 65.7481L179.524 65.3718L179.805 65.9598L179.025 66.3348ZM182.157 64.8521L181.882 64.261L182.67 63.8964L182.943 64.4888L182.157 64.8521ZM185.311 63.4162L185.045 62.8209L185.84 62.4685L186.103 63.0647L185.311 63.4162ZM188.488 62.0274L188.232 61.4281L189.032 61.0874L189.286 61.6871L188.488 62.0274ZM191.689 60.6859L191.441 60.0827L192.248 59.7542L192.493 60.3582L191.689 60.6859Z" fill="#A0A9AF"/>
  <path d="M315.259 81.4195C314.319 81.1204 313.325 81.031 312.346 81.1575C311.607 81.226 310.89 81.4437 310.237 81.7973C309.584 82.1509 309.01 82.6331 308.549 83.2149C308.088 83.7966 307.749 84.4658 307.554 85.182C307.359 85.8981 307.311 86.6465 307.413 87.3818C307.643 89.3408 308.902 90.3551 310.454 90.1717C311.086 90.0966 311.685 89.8524 312.189 89.4648C312.694 89.0773 313.084 88.5607 313.319 87.9697L313.367 87.9641C313.635 89.2156 314.515 89.6937 315.638 89.5611C318.217 89.2569 319.917 86.8286 319.506 83.3412C319.033 79.328 315.682 76.7923 311.479 77.2877C306.08 77.9243 303.043 82.5685 303.617 87.4417C304.169 92.1237 307.992 94.5556 311.957 94.088C313.467 93.9633 314.928 93.4927 316.227 92.7126C316.337 92.5875 316.407 92.4331 316.431 92.2683C316.454 92.1036 316.428 91.9357 316.357 91.7852C316.305 91.6426 316.203 91.5233 316.07 91.4488C315.938 91.3742 315.783 91.3491 315.634 91.378C314.615 92.0237 313.46 92.425 312.26 92.5505C308.701 92.9698 305.877 91.0021 305.407 87.0128C304.87 82.4499 307.733 79.2067 311.388 78.7756C315.09 78.3393 317.381 80.5156 317.747 83.621C318.071 86.3684 316.935 87.8337 315.905 87.931C315.234 87.9862 314.991 87.3605 315.064 85.9234L315.259 81.4195ZM312.871 85.4067C312.82 86.8173 312.02 88.0497 311.137 88.154C310.348 88.247 309.875 87.7212 309.768 86.8138C309.551 84.9743 310.61 83.2751 312.186 83.0896C312.436 83.0604 312.689 83.0633 312.938 83.0982L312.871 85.4067ZM146.828 133.934C147.703 130.133 144.163 126.074 138.922 124.867C133.681 123.661 128.723 125.765 127.849 129.566C126.974 133.367 130.513 137.426 135.754 138.633C136.296 138.755 136.845 138.844 137.399 138.898C138.139 140.114 139.029 141.232 140.046 142.228C140.084 141.074 140.265 139.929 140.587 138.82C143.756 138.309 146.234 136.515 146.827 133.934H146.828ZM133.646 128.164L142.227 130.139C142.45 130.192 142.643 130.331 142.764 130.526C142.885 130.721 142.924 130.956 142.873 131.179C142.821 131.402 142.683 131.597 142.49 131.719C142.296 131.841 142.061 131.882 141.837 131.833L133.255 129.857C133.142 129.833 133.035 129.787 132.94 129.722C132.844 129.656 132.763 129.572 132.701 129.475C132.639 129.377 132.596 129.268 132.577 129.155C132.557 129.041 132.56 128.924 132.586 128.811C132.612 128.698 132.66 128.592 132.728 128.498C132.795 128.404 132.881 128.325 132.98 128.265C133.078 128.204 133.188 128.164 133.303 128.147C133.417 128.13 133.534 128.135 133.646 128.164ZM140.954 135.67L132.372 133.695C132.149 133.642 131.956 133.502 131.835 133.307C131.715 133.113 131.676 132.878 131.727 132.654C131.778 132.431 131.916 132.237 132.11 132.114C132.304 131.992 132.538 131.951 132.762 132.001L141.344 133.976C141.569 134.028 141.764 134.166 141.886 134.362C142.008 134.557 142.048 134.793 141.996 135.018C141.944 135.243 141.805 135.437 141.61 135.56C141.414 135.682 141.178 135.722 140.954 135.67Z" fill="#E0E8F3"/>
  <path d="M492.117 185.929L491.833 185.244L492.433 184.993L492.719 185.679L492.117 185.929ZM490.816 182.847L490.471 182.051L491.069 181.791L491.414 182.589L490.816 182.847ZM489.418 179.672L489.062 178.882L489.655 178.612L490.013 179.405L489.418 179.672ZM487.974 176.519L487.605 175.735L488.195 175.456L488.565 176.243L487.974 176.519ZM486.482 173.388L486.102 172.61L486.687 172.323L487.068 173.104L486.482 173.388ZM484.942 170.281L484.55 169.507L485.132 169.212L485.525 169.987L484.942 170.281ZM483.356 167.196L482.953 166.429L483.529 166.125L483.934 166.894L483.356 167.196ZM481.724 164.136L481.309 163.375L481.881 163.062L482.297 163.825L481.724 164.136ZM480.046 161.101L479.619 160.346L480.186 160.024L480.614 160.781L480.046 161.101ZM478.321 158.091L477.883 157.342L478.445 157.012L478.884 157.762L478.321 158.091ZM476.552 155.107L476.103 154.365L476.659 154.026L477.11 154.77L476.552 155.107ZM474.738 152.15L474.277 151.415L474.829 151.068L475.291 151.805L474.738 152.15ZM472.879 149.22L472.407 148.493L472.954 148.137L473.427 148.867L472.879 149.22ZM470.976 146.319L470.493 145.598L471.035 145.235L471.518 145.958L470.976 146.319ZM469.03 143.447L468.537 142.733L469.072 142.361L469.567 143.077L469.03 143.447ZM467.041 140.603L466.536 139.898L467.067 139.518L467.572 140.226L467.041 140.603ZM465.009 137.791L464.494 137.092L465.019 136.705L465.534 137.405L465.009 137.791ZM462.935 135.008L462.41 134.317L462.928 133.922L463.455 134.615L462.935 135.008ZM460.82 132.257L460.284 131.574L460.797 131.171L461.333 131.856L460.82 132.257ZM458.663 129.538L458.118 128.863L458.624 128.453L459.171 129.129L458.663 129.538ZM456.466 126.851L455.911 126.185L456.411 125.766L456.968 126.435L456.466 126.851ZM454.229 124.198L453.664 123.54L454.157 123.114L454.724 123.774L454.229 124.198ZM451.952 121.578L451.377 120.928L451.864 120.496L452.441 121.147L451.952 121.578ZM449.636 118.992L449.051 118.352L449.532 117.911L450.119 118.554L449.636 118.992ZM447.282 116.442L446.688 115.81L447.161 115.362L447.758 115.997L447.282 116.442ZM444.89 113.927L444.286 113.304L444.753 112.849L445.359 113.474L444.89 113.927ZM442.46 111.448L441.847 110.834L442.308 110.372L442.923 110.988L442.46 111.448ZM439.993 109.005L439.371 108.4L439.824 107.932L440.448 108.539L439.993 109.005ZM437.49 106.6L436.859 106.004L437.305 105.529L437.938 106.126L437.49 106.6ZM434.951 104.232L434.311 103.645L434.75 103.164L435.392 103.752L434.951 104.232ZM432.377 101.902L431.728 101.326L432.16 100.838L432.811 101.416L432.377 101.902ZM429.768 99.6113L429.11 99.0446L429.535 98.5501L430.195 99.1181L429.768 99.6113ZM427.125 97.3594L426.459 96.8031L426.876 96.3021L427.544 96.8605L427.125 97.3594ZM424.448 95.1474L423.774 94.6012L424.183 94.0941L424.86 94.6425L424.448 95.1474ZM421.739 92.9764L421.057 92.4397L421.458 91.9264L422.143 92.4644L421.739 92.9764ZM418.997 90.8457L418.306 90.3194L418.7 89.8001L419.393 90.3277L418.997 90.8457ZM416.223 88.7559L415.525 88.24L415.911 87.7151L416.611 88.2322L416.223 88.7559ZM413.418 86.7082L412.712 86.2032L413.09 85.6722L413.798 86.1789L413.418 86.7082ZM410.583 84.7031L409.869 84.2081L410.239 83.6719L410.955 84.1681L410.583 84.7031Z" fill="#A0A9AF"/>
  <path fill-rule="evenodd" clip-rule="evenodd" d="M401.349 64.8442L387.555 68.2407C387.22 68.3232 386.932 68.535 386.754 68.8298C386.576 69.1245 386.522 69.478 386.604 69.8125L386.969 71.2961L396.35 74.216L403.35 67.5376L402.921 65.795C402.88 65.6293 402.807 65.4733 402.706 65.3358C402.605 65.1984 402.478 65.0822 402.332 64.9939C402.186 64.9056 402.024 64.8469 401.855 64.8212C401.687 64.7955 401.514 64.8033 401.349 64.8442Z" fill="#E0E8F3"/>
  <path fill-rule="evenodd" clip-rule="evenodd" d="M387.559 73.6917L389.567 81.8485C389.608 82.0141 389.681 82.1701 389.782 82.3075C389.883 82.445 390.01 82.5612 390.156 82.6495C390.302 82.7377 390.464 82.7964 390.633 82.8221C390.801 82.8478 390.973 82.8401 391.139 82.7993L404.933 79.4032C405.268 79.3207 405.556 79.1089 405.734 78.8141C405.912 78.5193 405.966 78.1658 405.884 77.8314L403.934 69.9136L396.92 76.6054L387.559 73.6917Z" fill="#E0E8F3"/>
  <path d="M216.423 52.3217L215.357 52.3712C215.302 52.3738 215.251 52.3873 215.197 52.3951C214.952 51.4376 214.527 50.5352 213.945 49.736C213.99 49.707 214.033 49.6755 214.074 49.6417L214.793 48.8526C215.079 48.5385 215.229 48.1237 215.209 47.6994C215.189 47.2751 215.001 46.8762 214.687 46.5902C214.373 46.3043 213.958 46.1548 213.534 46.1747C213.11 46.1946 212.711 46.3822 212.425 46.6962L211.706 47.4854C211.673 47.521 211.663 47.5671 211.634 47.6049C210.784 47.0903 209.843 46.7424 208.863 46.5798C208.864 46.5407 208.871 46.5024 208.869 46.4624L208.819 45.396C208.799 44.9718 208.612 44.5728 208.298 44.2868C207.984 44.0008 207.569 43.8513 207.145 43.8711C206.721 43.891 206.322 44.0785 206.036 44.3925C205.75 44.7065 205.6 45.1213 205.62 45.5455L205.67 46.6119C205.671 46.6432 205.68 46.6728 205.683 46.7032C204.712 46.9445 203.796 47.3701 202.986 47.9569C202.967 47.9382 202.96 47.9126 202.94 47.8948L202.151 47.176C201.996 47.0323 201.814 46.9208 201.615 46.8479C201.417 46.7749 201.206 46.742 200.995 46.751C200.783 46.76 200.576 46.8107 200.385 46.9002C200.193 46.9898 200.021 47.1164 199.879 47.2727C199.736 47.429 199.626 47.612 199.555 47.811C199.484 48.0101 199.453 48.2213 199.463 48.4325C199.474 48.6436 199.527 48.8505 199.618 49.0413C199.709 49.2321 199.837 49.4029 199.995 49.5439L200.784 50.2627C200.798 50.2758 200.817 50.2792 200.832 50.2918C200.312 51.1539 199.962 52.1082 199.804 53.1026C199.789 53.1026 199.776 53.0996 199.761 53.1L198.694 53.15C198.275 53.1764 197.883 53.3666 197.602 53.6796C197.322 53.9925 197.176 54.4032 197.195 54.8229C197.215 55.2427 197.399 55.6379 197.707 55.9234C198.016 56.2088 198.424 56.3616 198.844 56.3488L199.91 56.2993C199.925 56.2984 199.938 56.2941 199.954 56.2927C200.204 57.2678 200.641 58.1853 201.239 58.9949C201.225 59.0092 201.207 59.014 201.193 59.0283L200.474 59.8179C200.333 59.9734 200.223 60.1553 200.152 60.3531C200.08 60.551 200.049 60.7609 200.059 60.971C200.068 61.1811 200.119 61.3872 200.209 61.5775C200.298 61.7678 200.424 61.9387 200.58 62.0803C200.735 62.2219 200.917 62.3315 201.115 62.4028C201.313 62.4742 201.523 62.5058 201.733 62.496C201.943 62.4862 202.149 62.4351 202.339 62.3457C202.53 62.2562 202.701 62.1302 202.842 61.9747L203.561 61.1851C203.579 61.1655 203.584 61.1395 203.601 61.119C204.462 61.6276 205.414 61.9658 206.404 62.1155C206.403 62.1463 206.397 62.1763 206.398 62.2081L206.448 63.2745C206.468 63.6987 206.656 64.0977 206.97 64.3837C207.284 64.6697 207.698 64.8192 208.123 64.7994C208.547 64.7795 208.946 64.592 209.232 64.278C209.518 63.964 209.667 63.5492 209.648 63.125L209.598 62.0586C209.596 62.0186 209.585 61.9812 209.58 61.9421C210.541 61.6889 211.446 61.2548 212.245 60.6632C212.277 60.6979 212.291 60.7431 212.327 60.7762L213.116 61.4945C213.43 61.7805 213.845 61.93 214.269 61.9102C214.694 61.8903 215.093 61.7027 215.379 61.3887C215.665 61.0746 215.814 60.6598 215.795 60.2355C215.775 59.8112 215.587 59.4121 215.273 59.1261L214.483 58.4078C214.439 58.378 214.394 58.3506 214.347 58.3256C214.851 57.4758 215.19 56.5379 215.345 55.5618C215.399 55.5649 215.452 55.5731 215.506 55.5705L216.573 55.5205C216.785 55.514 216.994 55.4654 217.188 55.3773C217.381 55.2893 217.555 55.1636 217.699 55.0077C217.843 54.8518 217.955 54.6687 218.028 54.4691C218.101 54.2695 218.133 54.0574 218.124 53.8451C218.114 53.6329 218.062 53.4247 217.97 53.2328C217.879 53.0409 217.751 52.869 217.593 52.7272C217.434 52.5855 217.249 52.4766 217.049 52.4069C216.848 52.3373 216.635 52.3083 216.423 52.3217ZM207.791 58.9966C206.87 59.0397 205.956 58.8086 205.166 58.3324C204.376 57.8563 203.745 57.1565 203.352 56.3216C202.96 55.4867 202.824 54.5542 202.961 53.642C203.099 52.7298 203.504 51.8789 204.125 51.1968C204.746 50.5148 205.556 50.0323 206.451 49.8103C207.346 49.5884 208.288 49.6369 209.155 49.9499C210.023 50.2628 210.779 50.8261 211.326 51.5684C211.874 52.3107 212.189 53.1988 212.232 54.1204C212.29 55.356 211.855 56.5639 211.022 57.4785C210.189 58.393 209.027 58.9393 207.791 58.9971V58.9966Z" fill="#E0E8F3"/>
  <path d="M343.553 270.41L339.971 268.015L338.776 268.467L342.295 271.49L343.553 270.41Z" fill="#FFD3B7"/>
  <path d="M340.356 269.076L339.971 268.015L337.468 268.538L337.182 269.288L340.356 269.076ZM341.367 271.818C341.367 271.818 342.096 271.454 343.657 272.752C345.218 274.049 345.317 272.183 345.317 272.183C344.816 271.511 344.222 270.914 343.552 270.41C342.648 269.806 341.367 271.818 341.367 271.818V271.818Z" fill="#FFD3B7"/>
  <path d="M375.241 271.334L372.676 266.635C372.676 266.635 362.347 276.961 358.575 281.838C354.198 277.475 344.25 270.168 344.25 270.168L341.19 274.644C341.19 274.644 351.358 292.166 355.855 293.369C360.352 294.573 376.522 287.885 376.522 287.885L375.241 271.334Z" fill="url(#paint0_linear_1893_1282)"/>
  <path d="M377.626 380.719L377.367 382.386L377.769 388.586L378.774 389L379.229 387.777L378.982 381.807L377.626 380.719Z" fill="#FFD3B7"/>
  <path d="M378.403 387.906L377.583 387.857C377.583 387.857 374.612 388.153 373.052 388.994C372.991 389.028 372.943 389.081 372.916 389.146C372.889 389.21 372.883 389.281 372.901 389.349C372.919 389.417 372.959 389.476 373.014 389.519C373.07 389.561 373.138 389.584 373.207 389.584H379.23V387.588L378.403 387.906Z" fill="#103050"/>
  <path d="M394.455 380.719L394.197 382.386L394.599 388.586L395.603 389L396.059 387.777L395.811 381.807L394.455 380.719Z" fill="#FFD3B7"/>
  <path d="M395.231 387.906L394.411 387.857C394.411 387.857 391.441 388.153 389.881 388.994C389.82 389.028 389.772 389.082 389.745 389.146C389.717 389.21 389.712 389.282 389.73 389.349C389.748 389.417 389.788 389.477 389.843 389.519C389.899 389.562 389.967 389.585 390.037 389.584H396.059V387.588L395.231 387.906ZM370.422 318.757V350.172C372.204 365.83 377.423 385.988 377.423 385.988H379.46C379.46 385.988 383.024 366.538 380.351 352.372C385.315 339.225 386.333 320.03 386.333 320.03L370.422 318.757Z" fill="#103050"/>
  <path d="M383.787 318.757L388.497 353.354L393.855 385.988H396.401C396.401 385.988 400.717 364.047 397.662 353.354C400.972 332.86 401.99 319.648 401.99 319.648L383.787 318.757Z" fill="#103050"/>
  <path d="M421.371 317.484L421.532 320.934L420.528 321.725L419.756 317.151L421.371 317.484Z" fill="#FFD3B7"/>
  <path d="M421.008 320.476L421.532 320.935L420.581 324.065L420.061 324.09L420.528 321.725L421.008 320.476ZM420.267 318.952L419.766 320.147L419.821 321.334C419.821 321.334 419.129 321.627 419.153 321.365C419.178 321.104 419.084 319.881 419.084 319.881L418.986 317.804L419.96 317.126L420.267 318.952Z" fill="#FFD3B7"/>
  <path d="M418.986 317.804C418.986 317.804 419.659 317.41 419.354 315.403C419.049 313.397 420.698 314.276 420.698 314.276C421.013 315.324 421.238 316.397 421.371 317.483C421.422 318.57 418.986 317.804 418.986 317.804Z" fill="#FFD3B7"/>
  <path d="M372.507 266.723C370.269 268.081 362.804 316.894 362.506 318.536C362.207 320.178 372.06 324.358 387.136 324.358C402.213 324.358 408.333 320.477 408.333 320.477C408.333 320.477 401.537 279.078 399.347 268.905C399.211 268.267 398.877 267.688 398.394 267.25C397.911 266.812 397.303 266.537 396.654 266.463C388.624 265.58 380.517 265.668 372.507 266.723Z" fill="url(#paint1_linear_1893_1282)"/>
  <path d="M395.685 272.105L398.447 267.302C398.447 267.302 415.351 287.518 416.879 289.867C418.406 292.217 422.976 313.801 422.976 313.801L417.706 317.484C417.706 317.484 409.525 302.718 408.333 300.299C404.878 299.785 396.958 292.104 396.958 292.104L395.685 272.105Z" fill="url(#paint2_linear_1893_1282)"/>
  <path d="M381.441 270.146L388.357 268.015C387.888 263.878 387.197 259.77 386.286 255.708H382.684C382.81 258.08 382.938 264.187 381.441 270.146Z" fill="url(#paint3_linear_1893_1282)"/>
  <path d="M388.763 255.745C390.06 252.543 389.444 249.271 387.387 248.438C385.33 247.604 382.611 249.525 381.313 252.727C380.016 255.93 380.632 259.202 382.689 260.035C384.746 260.868 387.466 258.948 388.763 255.745Z" fill="url(#paint4_linear_1893_1282)"/>
  <path d="M379.229 238.792C378.176 243.531 379.658 250.688 384.204 251.698C388.75 252.708 387.059 255.429 387.059 255.429C387.059 255.429 388.072 255.753 388.458 254.362C388.843 252.971 389.44 253.513 389.44 253.513L389.079 255.134C389.079 255.134 391.946 255.439 393.258 249.537C394.569 243.635 390.413 243.559 389.294 243.31C388.176 243.061 386.095 241.132 386.565 239.02C386.695 238.543 386.724 238.045 386.65 237.557C386.576 237.069 386.401 236.601 386.136 236.185C385.871 235.768 385.522 235.412 385.111 235.138C384.7 234.865 384.236 234.68 383.749 234.596C381.591 234.116 379.809 236.182 379.229 238.792ZM380.698 255.052C380.698 255.052 382.265 256.87 384.56 256.386C385.296 259.829 383.506 261.133 383.506 261.133C383.506 261.133 379.35 261.071 378.427 259.63C378.697 257.031 380.698 255.052 380.698 255.052Z" fill="#103050"/>
  <path d="M390.237 254.099C390.086 254.78 389.567 255.243 389.079 255.135C388.591 255.026 388.319 254.387 388.47 253.707C388.62 253.026 389.139 252.563 389.627 252.671C390.115 252.779 390.388 253.419 390.237 254.099V254.099Z" fill="url(#paint5_linear_1893_1282)"/>
  <path d="M391.154 266.016C387.162 265.808 383.162 265.826 379.172 266.068C379.021 268.286 379.101 273.423 383.079 273.423C386.979 273.423 389.976 268.359 391.154 266.016Z" fill="url(#paint6_linear_1893_1282)"/>
  <path d="M404.97 299.363C402.005 297.282 399.243 294.926 396.72 292.327L397.195 291.88C399.685 294.446 402.411 296.771 405.337 298.825L404.97 299.363Z" fill="white"/>
  <path d="M261.472 245.938L269.15 243.934L269.314 244.565L261.637 246.569L261.472 245.938Z" fill="#103050"/>
  <path d="M258.839 228.549L258.927 227.903L266.272 228.905L266.184 229.55L258.839 228.549Z" fill="#103050"/>
  <path d="M268.693 202.105L269.104 201.599L274.446 205.94L274.035 206.446L268.693 202.105Z" fill="#103050"/>
  <path d="M280.968 190.667L281.532 190.34L284.759 195.904L284.195 196.231L280.968 190.667Z" fill="#103050"/>
  <path d="M328.845 280.186L335.985 252.448C336.076 252.094 336.236 251.762 336.455 251.47C336.675 251.178 336.95 250.932 337.264 250.747C337.578 250.561 337.926 250.439 338.288 250.388C338.649 250.336 339.017 250.357 339.371 250.448L342.549 251.266C342.902 251.357 343.235 251.517 343.526 251.736C343.818 251.956 344.064 252.23 344.25 252.545C344.435 252.859 344.557 253.207 344.608 253.568C344.66 253.93 344.639 254.298 344.548 254.651L337.408 282.39C337.317 282.743 337.157 283.075 336.938 283.367C336.719 283.659 336.444 283.905 336.129 284.09C335.815 284.276 335.467 284.398 335.106 284.449C334.744 284.5 334.376 284.48 334.023 284.389L330.844 283.571C330.13 283.387 329.519 282.927 329.144 282.292C328.769 281.657 328.662 280.899 328.845 280.186Z" fill="#103050"/>
  <path d="M332.175 253.483C332.154 253.478 332.135 253.467 332.114 253.461L331.182 257.084C331.023 257.702 330.987 258.345 331.077 258.977C331.166 259.609 331.379 260.217 331.704 260.766C332.028 261.316 332.458 261.796 332.968 262.179C333.478 262.563 334.058 262.842 334.676 263.001L340.232 264.431C341.48 264.752 342.805 264.564 343.914 263.909C345.024 263.254 345.828 262.184 346.149 260.936L347.081 257.32L332.175 253.483Z" fill="#103050"/>
  <path d="M286.062 217.662C285.005 217.39 284.189 218.571 283.734 220.34C283.279 222.109 284.116 223.036 283.56 225.194C283.004 227.353 281.824 227.76 281.369 229.53C280.914 231.3 281.057 232.728 282.114 233L286.538 234.138L287.789 226.283L290.485 218.801L286.062 217.662Z" fill="url(#paint7_linear_1893_1282)"/>
  <path d="M339.251 226.617C339.251 226.617 296.709 209.717 298.402 195.215C292.264 219.06 290.421 226.961 290.421 226.961C290.421 226.961 287.925 235.251 281.787 259.096C287.388 245.84 332.711 252.023 332.711 252.023L340.837 240.57L339.251 226.617Z" fill="url(#paint8_linear_1893_1282)"/>
  <path d="M360.296 234.703C363.001 235.399 365.319 237.141 366.74 239.547C368.16 241.952 368.567 244.823 367.871 247.529C367.175 250.234 365.432 252.552 363.027 253.973C360.621 255.393 357.75 255.8 355.045 255.104L339.647 251.14L344.898 230.739L360.296 234.703Z" fill="url(#paint9_linear_1893_1282)"/>
  <path d="M330.175 250.098L336.099 227.079C336.19 226.726 336.35 226.393 336.569 226.101C336.789 225.81 337.063 225.564 337.378 225.378C337.692 225.192 338.04 225.07 338.402 225.019C338.763 224.968 339.131 224.989 339.485 225.08L354.696 228.995C355.049 229.086 355.381 229.245 355.673 229.465C355.965 229.684 356.211 229.959 356.397 230.273C356.582 230.587 356.704 230.935 356.756 231.297C356.807 231.658 356.786 232.026 356.695 232.38L350.771 255.399C350.68 255.752 350.52 256.084 350.3 256.376C350.081 256.668 349.806 256.914 349.492 257.099C349.177 257.285 348.83 257.407 348.468 257.458C348.107 257.509 347.739 257.489 347.385 257.398L332.174 253.483C331.821 253.392 331.488 253.232 331.197 253.013C330.905 252.793 330.659 252.519 330.473 252.204C330.288 251.89 330.166 251.542 330.114 251.181C330.063 250.819 330.084 250.451 330.175 250.098Z" fill="#103050"/>
  <path d="M369.388 250.935C369.03 252.328 368.132 253.522 366.894 254.253C365.655 254.984 364.176 255.194 362.783 254.835L361.842 254.593L365.975 238.536L366.917 238.778C368.31 239.137 369.503 240.034 370.235 241.272C370.966 242.511 371.176 243.989 370.817 245.382L369.388 250.935ZM280.063 259.924C280.279 259.98 280.503 259.992 280.723 259.961C280.943 259.93 281.155 259.856 281.347 259.742C281.538 259.629 281.705 259.48 281.839 259.302C281.972 259.124 282.07 258.922 282.125 258.706L298.605 194.604C298.66 194.389 298.673 194.165 298.642 193.945C298.611 193.725 298.536 193.513 298.423 193.321C298.31 193.13 298.161 192.963 297.983 192.829C297.805 192.695 297.603 192.598 297.388 192.543C297.172 192.487 296.948 192.475 296.728 192.506C296.508 192.537 296.296 192.612 296.105 192.725C295.913 192.838 295.746 192.987 295.613 193.165C295.479 193.343 295.382 193.545 295.326 193.76L278.847 257.863C278.735 258.298 278.8 258.759 279.028 259.146C279.256 259.532 279.629 259.812 280.063 259.924Z" fill="#103050"/>
  <path d="M341.047 270.127L339.764 269.939L338.698 269.378C338.698 269.378 338.168 269.72 338.405 269.834C338.641 269.948 339.639 270.66 339.639 270.66L341.367 271.818L342.451 271.334L341.047 270.127ZM190.474 253.852L188.925 255.258L190.525 256.567L192.161 254.474L190.474 253.852ZM191.684 252.026C191.684 252.026 192.413 251.741 192.509 251.318C192.534 251.192 192.525 251.062 192.484 250.94C192.442 250.818 192.369 250.71 192.272 250.626L190.945 251.682C190.945 251.682 191.208 252.342 191.684 252.026Z" fill="#FFD3B7"/>
  <path d="M190.858 251.735C190.932 251.667 193.296 249.527 193.296 249.527L194.423 249.769L191.693 252.94L190.858 251.735Z" fill="#FFD3B7"/>
  <path d="M193.391 250.03L193.296 249.527L196.128 248.258L196.445 248.604L194.423 249.768L193.391 250.03ZM192.532 251.975L193.901 251.333L194.693 250.611C194.693 250.611 195.295 250.923 195.099 251.056C194.903 251.189 193.614 253.036 193.614 253.036L192.375 254.288L191.693 252.94L192.532 251.975Z" fill="#FFD3B7"/>
  <path d="M190.858 251.734L190.125 254.137L191.365 255.424L192.403 254.26L193.002 252.438L190.858 251.734ZM172.399 379.997L172.674 381.768L172.246 388.36L171.179 388.8L170.695 387.499L170.958 381.152L172.399 379.997Z" fill="#FFD3B7"/>
  <path d="M171.574 387.636L172.445 387.584C172.445 387.584 175.603 387.899 177.261 388.793C177.326 388.83 177.377 388.886 177.406 388.955C177.434 389.023 177.44 389.099 177.421 389.171C177.402 389.242 177.36 389.306 177.301 389.351C177.242 389.396 177.17 389.421 177.096 389.42H170.695V387.298L171.574 387.636Z" fill="url(#paint10_linear_1893_1282)"/>
  <path d="M141.473 379.997L141.748 381.768L141.32 388.36L140.252 388.8L139.768 387.499L140.031 381.153L141.473 379.997Z" fill="#FFD3B7"/>
  <path d="M140.647 387.636L141.519 387.584C141.519 387.584 144.677 387.899 146.335 388.793C146.4 388.83 146.45 388.886 146.479 388.955C146.508 389.023 146.514 389.099 146.495 389.171C146.476 389.242 146.434 389.306 146.375 389.351C146.316 389.396 146.244 389.421 146.17 389.42H139.768V387.298L140.647 387.636Z" fill="url(#paint11_linear_1893_1282)"/>
  <path d="M154.777 249.272C154.102 251.542 154.722 253.729 156.162 254.158C157.603 254.587 160.325 254.117 161 251.847C161.676 249.577 159.096 245.313 157.656 244.885C156.216 244.456 155.453 247.002 154.777 249.272Z" fill="#103050"/>
  <path d="M162.259 245.886C163.492 246.872 165.031 247.396 166.609 247.367C168.71 247.367 169.509 246.476 169.509 245.612C169.509 244.452 168.213 243.911 168.213 242.986C168.213 242.06 172.224 242.831 172.224 240.364C172.224 237.896 171.206 234.286 168.892 234.286C167.719 234.286 168.861 236.538 168.861 237.68C168.861 238.821 168.059 239.747 165.467 239.747C162.875 239.747 162.426 238.173 159.103 238.173C155.78 238.173 153.281 239.808 153.281 243.387C153.281 246.966 159.103 249.495 159.103 249.495L162.259 245.886Z" fill="#103050"/>
  <path d="M179.032 317.952C179.032 317.952 179.751 346.836 179.032 356.304C177.474 368.649 173.062 385.035 173.062 385.035H170.306C170.306 385.035 165.25 368.888 166.808 356.903C158.179 341.083 157.22 317.952 157.22 317.952H179.032Z" fill="url(#paint12_linear_1893_1282)"/>
  <path d="M162.941 321.466C162.941 321.466 155.295 348.552 154.086 352.839C152.878 357.125 142.133 385.035 142.133 385.035H139.23C139.23 385.035 136.252 359.353 141.747 351.33C138.471 335.614 136.483 314.857 136.483 314.857C136.483 314.857 154.369 315.092 162.941 321.466Z" fill="url(#paint13_linear_1893_1282)"/>
  <path d="M153.436 264.399C153.314 263.896 169.061 264.059 174.948 263.25C183.238 257.553 189.341 253.578 189.341 253.578L192.521 257.68C192.521 257.68 184.453 271.513 179.33 274.011C171.194 276.711 157.426 276.784 157.426 276.784C157.426 276.784 155.528 273.04 153.436 264.399V264.399Z" fill="url(#paint14_linear_1893_1282)"/>
  <path d="M160.801 259.563C160.801 259.563 159.066 260.051 156.886 260.715C153.701 261.671 150.765 263.317 148.288 265.536C145.811 267.754 143.854 270.492 142.554 273.553C135.345 290.776 133.611 319.262 133.611 319.262C133.611 319.262 140.857 325.871 159.011 325.871C177.165 325.871 181.702 322.502 181.702 322.502C181.702 322.502 180.352 283.816 171.983 268.063C171.615 267.375 171.112 266.768 170.504 266.279C162.215 259.563 160.801 259.563 160.801 259.563Z" fill="url(#paint15_linear_1893_1282)"/>
  <path d="M163.193 249.275C163.193 249.275 162.486 256.779 164.739 263.028C165.014 263.746 165.028 264.538 164.778 265.265C164.528 265.992 164.03 266.607 163.372 267.004C161.685 267.966 160.459 266.978 159.648 265.72C158.76 264.299 158.398 262.613 158.626 260.953C159.124 256.734 159.866 252.547 160.849 248.414C162.427 242.291 163.193 249.275 163.193 249.275Z" fill="url(#paint16_linear_1893_1282)"/>
  <path d="M162.9 255.951C164.915 255.613 166.122 252.796 165.595 249.659C165.069 246.522 163.009 244.254 160.994 244.592C158.979 244.93 157.772 247.747 158.298 250.883C158.825 254.02 160.885 256.289 162.9 255.951Z" fill="url(#paint17_linear_1893_1282)"/>
  <path d="M161.664 247.608C164.077 246.491 165.457 244.345 164.748 242.814C164.039 241.283 161.509 240.948 159.097 242.066C156.685 243.183 155.304 245.329 156.013 246.86C156.722 248.39 159.252 248.725 161.664 247.608Z" fill="#103050"/>
  <path d="M157.168 249.109C157.168 249.854 157.602 250.459 158.136 250.459C158.671 250.459 159.104 249.854 159.104 249.109C159.104 248.364 158.67 247.76 158.136 247.76C157.602 247.76 157.168 248.364 157.168 249.109Z" fill="url(#paint18_linear_1893_1282)"/>
  <path d="M193.99 293.207L191.985 293.804L191.855 295.966L195.242 294.498L193.99 293.207Z" fill="#FFD3B7"/>
  <path d="M150.476 270.119C150.688 269.646 166.959 285.16 172.111 288.121C181.781 290.22 192.456 293.449 192.456 293.449L192.303 299.22C192.303 299.22 174.575 300.472 168.995 299.315C160.906 296.473 149.862 290.509 149.862 290.509C149.862 290.509 146.846 278.234 150.476 270.119V270.119Z" fill="url(#paint19_linear_1893_1282)"/>
  <path d="M177.017 300.135C173.741 300.135 170.729 300.008 168.927 299.634C164.373 298.077 159.949 296.164 155.695 293.914L156.014 293.346C160.222 295.572 164.598 297.465 169.101 299.008C174.533 300.131 192.102 298.907 192.279 298.895L192.325 299.545C191.834 299.58 183.854 300.135 177.017 300.135Z" fill="#103050"/>
  <path d="M159.722 334.072L159.097 333.887C159.106 333.855 160.05 330.663 160.479 328.99L161.11 329.152C160.678 330.837 159.731 334.04 159.722 334.072V334.072ZM140.48 383.341L139.829 383.305C139.881 382.353 141.166 359.974 146.366 351.876C146.284 349.422 144.98 327.034 144.966 326.804L145.617 326.766C145.673 327.718 146.976 350.095 147.021 351.96L147.023 352.061L146.968 352.146C141.817 360.025 140.493 383.109 140.48 383.341Z" fill="#C40000"/>
  <path d="M227.406 267.815L222.162 264.485L214.557 278.504L206.501 275.138L199.269 284.298L200.272 293.19L230.293 289.295L227.406 267.815Z" fill="url(#paint20_linear_1893_1282)"/>
  <path d="M198.695 295.603L192.813 250.263L227.063 245.819L232.945 291.159L198.695 295.603ZM193.543 250.825L199.258 294.873L232.215 290.597L226.5 246.55L193.543 250.825Z" fill="#103050"/>
  <path d="M207.299 259.485C207.384 260.14 207.273 260.805 206.979 261.396C206.686 261.988 206.224 262.479 205.652 262.809C205.079 263.138 204.422 263.289 203.764 263.245C203.105 263.201 202.474 262.962 201.951 262.559C201.428 262.156 201.036 261.607 200.825 260.981C200.614 260.356 200.593 259.682 200.765 259.044C200.937 258.407 201.295 257.835 201.792 257.4C202.289 256.966 202.904 256.689 203.559 256.604C203.993 256.547 204.435 256.577 204.858 256.691C205.281 256.806 205.678 257.002 206.025 257.27C206.373 257.537 206.664 257.87 206.882 258.251C207.101 258.631 207.242 259.05 207.299 259.485Z" fill="url(#paint21_linear_1893_1282)"/>
  <path d="M192.532 251.976L193.9 251.334L194.692 250.611C194.692 250.611 195.294 250.923 195.098 251.056C194.902 251.189 193.613 253.037 193.613 253.037L192.375 254.289L191.693 252.94L192.532 251.976ZM199.306 293.367L196.425 294.758L196.235 293.921C196.235 293.921 198.554 292.908 198.855 292.86C199.156 292.812 199.615 292.943 199.306 293.366V293.367Z" fill="#FFD3B7"/>
  <path d="M200.165 291.985L199.664 290.9L194.784 291.638L194.01 292.538C193.942 292.616 193.9 292.713 193.888 292.815C193.875 292.917 193.894 293.021 193.941 293.113L194.887 294.963C194.937 295.063 195.02 295.144 195.121 295.194C195.222 295.243 195.337 295.258 195.447 295.236C196.006 295.126 199.257 293.243 200.165 291.985Z" fill="#FFD3B7"/>
  <path d="M195.303 292.269C195.303 292.269 197.309 291.628 197.578 291.289C197.656 291.187 197.704 291.065 197.719 290.937C197.734 290.81 197.716 290.68 197.664 290.562L194.785 291.639C194.785 291.639 194.736 292.348 195.303 292.269H195.303ZM257.727 122.376L261.341 121.163L262.257 121.826L258.551 123.591L257.727 122.376Z" fill="#FFD3B7"/>
  <path d="M261.227 121.651L261.341 121.162L264.386 121.146L264.533 121.582L262.257 121.826L261.227 121.651ZM260.029 122.886L261.168 123.023L262.165 122.689C262.165 122.689 262.582 123.208 262.354 123.249C262.125 123.291 261.107 123.668 261.107 123.668L259.363 124.255L258.55 123.59L260.029 122.886Z" fill="#FFD3B7"/>
  <path d="M259.363 124.255L256.686 124.581L255.401 123.71C256.123 123.179 256.904 122.732 257.727 122.376C258.64 122.07 259.363 124.255 259.363 124.255Z" fill="#FFD3B7"/>
  <path d="M221.713 86.9478C216.655 85.7615 206.977 91.33 204.391 102.32C198.6 127 186.064 124.485 184.616 130.655C183.168 136.825 188.417 139.017 192.159 139.895C195.902 140.773 205.98 131.933 205.98 131.933L212.24 106.616L221.713 86.9478Z" fill="url(#paint22_linear_1893_1282)"/>
  <path d="M226.547 94.0421C220.183 92.549 217.464 95.3328 215.87 102.125C214.19 109.285 219.972 117.237 217.057 129.659C213.57 144.519 202.955 159.634 185.271 155.484C177.47 153.654 175.156 149.819 176.045 146.029C178.067 137.41 199.093 141.011 204.271 118.944C206.049 111.365 205.954 106.091 207.384 99.9983C208.814 93.9057 214.292 84.9219 223.58 87.1013C232.867 89.2806 226.547 94.0421 226.547 94.0421Z" fill="url(#paint23_linear_1893_1282)"/>
  <path d="M256.849 200.98L257.563 203.209L257.429 204.994L256.381 203.992L256.018 202.425L256.849 200.98Z" fill="#FFD3B7"/>
  <path d="M256.053 205.947L255.52 204.788L254.909 206.94L256.04 207.539L256.765 206.824L256.053 205.947Z" fill="url(#paint24_linear_1893_1282)"/>
  <path d="M257.059 205.832C256.618 205.328 256.274 204.747 256.045 204.118C256.693 203.537 258.197 204.988 259.144 206.663C259.289 206.917 259.435 207.151 259.58 207.368C258.913 207.276 257.949 206.711 257.059 205.832Z" fill="#FFD3B7"/>
  <path d="M256.21 203.995C256.545 204.625 256.977 205.198 257.491 205.693C258.381 206.572 258.722 206.981 259.389 207.073C260.408 208.594 261.983 209.375 261.582 209.78C261.124 210.243 259.878 209.609 257.941 208.109C255.904 206.532 255.351 205.229 255.553 204.61C255.593 204.455 255.676 204.316 255.792 204.207C255.909 204.098 256.053 204.025 256.21 203.995Z" fill="url(#paint25_linear_1893_1282)"/>
  <path d="M221.719 134.659L232.85 135.922C232.85 135.922 255.155 153.024 257.541 164.389C260.206 176.034 257.745 203.574 257.745 203.574H256.272C256.272 203.574 251.452 190.681 250.44 182.585C249.457 174.728 251.227 166.353 251.227 166.353C251.227 166.353 233.394 164.578 225.087 149.651C220.128 140.739 221.719 134.659 221.719 134.659Z" fill="url(#paint26_linear_1893_1282)"/>
  <path d="M216.512 201.686L216.725 203.24L215.423 204.774L214.595 203.698L215.299 202.22L216.512 201.686Z" fill="#FFD3B7"/>
  <path d="M214.096 205.441L213.745 204.215L212.816 206.251L213.842 207.014L214.668 206.417L214.096 205.441Z" fill="url(#paint27_linear_1893_1282)"/>
  <path d="M215.109 205.48C214.75 204.915 214.498 204.289 214.366 203.633C215.093 203.156 216.362 204.817 217.045 206.616C217.15 206.889 217.258 207.143 217.369 207.379C216.724 207.187 215.856 206.483 215.109 205.48Z" fill="#FFD3B7"/>
  <path d="M214.546 203.536C214.782 204.209 215.123 204.841 215.556 205.408C216.303 206.411 216.579 206.866 217.224 207.058C218.002 208.715 219.441 209.725 218.984 210.066C218.461 210.454 217.325 209.639 215.636 207.864C213.861 205.998 213.511 204.626 213.804 204.044C213.866 203.898 213.97 203.772 214.101 203.682C214.233 203.592 214.387 203.541 214.546 203.536Z" fill="url(#paint28_linear_1893_1282)"/>
  <path d="M233.249 138.117L232.381 142.703C232.381 142.703 242.07 165.783 239.05 173.817C236.03 181.85 216.601 203.666 216.601 203.666L215.009 202.634C215.009 202.634 218.444 192.098 222.295 183.675C225.966 175.644 231.817 172.467 231.817 172.467C231.817 172.467 210.919 158.021 214.214 144.259C216.012 134.192 222.012 132.62 222.012 132.62L233.249 138.117Z" fill="url(#paint29_linear_1893_1282)"/>
  <path d="M239.58 169.82L238.929 169.784C239.513 159.24 234.649 145.29 234.6 145.15L235.214 144.934C235.264 145.075 240.171 159.144 239.58 169.82V169.82Z" fill="#061A2B"/>
  <path d="M255.01 125.784L253.895 124.341L256.129 123.234L257.173 124.389L255.01 125.784Z" fill="#FFD3B7"/>
  <path d="M232.368 107.36C238.846 113.022 240.604 123.031 242.785 127.83C246.905 126.189 255.805 123.073 255.805 123.073L257.558 125.159C257.558 125.159 246.639 134.782 241.475 133.741C240.792 133.601 240.145 133.319 239.578 132.911C236 130.275 232.832 127.124 230.175 123.56C230.175 123.56 228.907 111.389 232.368 107.36Z" fill="url(#paint30_linear_1893_1282)"/>
  <path d="M217.676 135.606C219.013 136.568 220.502 137.298 222.081 137.765C224.944 138.681 228.084 139.36 233.88 138.09C237.006 134.473 238.884 128.061 237.836 120.789C236.346 110.447 231.448 103.86 225.346 104.739C219.245 105.618 214.254 113.63 215.743 123.972C216.358 128.237 216.856 132.866 217.676 135.605V135.606Z" fill="url(#paint31_linear_1893_1282)"/>
  <path d="M229.826 91.3749C229.779 92.1841 229.492 92.9608 229.001 93.606C228.51 94.2513 227.839 94.7358 227.072 94.9978C226.305 95.2599 225.477 95.2875 224.694 95.0773C223.912 94.8671 223.209 94.4285 222.676 93.8174C222.144 93.2064 221.805 92.4506 221.704 91.6464C221.603 90.8422 221.743 90.026 222.108 89.302C222.472 88.578 223.044 87.9789 223.75 87.581C224.456 87.1832 225.265 87.0048 226.073 87.0684C227.142 87.1418 228.138 87.6368 228.841 88.4444C229.545 89.252 229.9 90.3061 229.826 91.3749Z" fill="url(#paint32_linear_1893_1282)"/>
  <path d="M228.799 100.147C228.799 100.147 228.27 105.653 230.012 110.025C226.457 114.043 225.014 108.662 225.014 108.662C225.596 105.554 226.368 102.484 227.326 99.4708C228.659 95.5897 228.799 100.147 228.799 100.147H228.799Z" fill="url(#paint33_linear_1893_1282)"/>
  <path d="M231.916 96.659C232.44 94.5624 231.773 92.59 230.426 92.2535C229.079 91.9169 227.562 93.3437 227.039 95.4403C226.515 97.5368 227.182 99.5093 228.529 99.8458C229.876 100.182 231.393 98.7556 231.916 96.659Z" fill="url(#paint34_linear_1893_1282)"/>
  <path d="M228.487 94.6437C228.618 94.1957 228.897 93.8059 229.28 93.5389C229.663 93.2719 230.125 93.1437 230.59 93.1757L230.633 93.1788C232.811 93.3504 232.123 97.5305 235.597 97.8038C239.071 98.0772 240.368 95.83 240.462 94.635C240.555 93.4399 239.867 92.2388 238.95 92.1667C238.032 92.0945 237.58 92.8698 235.996 92.7446C234.411 92.6195 234.263 88.5893 230.316 88.2786C226.369 87.9679 223.913 90.0916 223.684 93.0015C223.565 94.5177 224.387 96.876 225.985 97.0016C226.555 97.0464 227.85 96.8482 228.487 94.6437Z" fill="url(#paint35_linear_1893_1282)"/>
  <path d="M237.854 128.844L237.211 128.735C238.238 122.676 236.489 115.887 236.472 115.819L237.102 115.654C237.121 115.723 238.904 122.648 237.854 128.844Z" fill="#C40000"/>
  <path d="M228.391 95.408C228.369 95.5679 228.3 95.7177 228.193 95.8389C228.087 95.9602 227.947 96.0476 227.791 96.0903C227.636 96.1331 227.471 96.1294 227.317 96.0797C227.163 96.0299 227.028 95.9364 226.927 95.8104C226.825 95.6845 226.763 95.5318 226.748 95.3711C226.733 95.2103 226.765 95.0486 226.84 94.9059C226.916 94.7631 227.031 94.6456 227.173 94.5677C227.314 94.4898 227.475 94.455 227.636 94.4676C227.861 94.4924 228.067 94.6054 228.208 94.7817C228.35 94.958 228.415 95.1833 228.391 95.408H228.391Z" fill="url(#paint36_linear_1893_1282)"/>
  <path d="M232.64 110.047C233.451 113.763 232.214 115.485 229.659 116.042C227.103 116.6 224.195 115.782 223.385 112.067C222.574 108.352 223.989 104.888 226.545 104.331C229.1 103.774 231.83 106.332 232.64 110.047H232.64Z" fill="url(#paint37_linear_1893_1282)"/>
  <path d="M228.532 116.529C227.163 116.58 225.825 116.108 224.791 115.209C222.882 113.49 222.758 110.741 222.754 110.625L223.406 110.601C223.407 110.627 223.527 113.196 225.231 114.727C226.185 115.585 227.465 115.966 229.04 115.86L229.084 116.51C228.897 116.523 228.713 116.529 228.532 116.529V116.529ZM223.397 110.129L222.746 110.113C222.752 109.837 222.846 109.136 222.857 109.057L223.503 109.145C223.475 109.349 223.402 109.926 223.397 110.129H223.397Z" fill="#C40000"/>
  <path d="M232.77 155.121L217.585 144.74L240.922 137.789L255.804 148.027L232.77 155.121Z" fill="#E0E8F3"/>
  <path d="M219.368 144.205L222.289 146.773L224.781 147.401L225.115 146.734L222.041 143.555L219.368 144.205Z" fill="#FFD3B7"/>
  <path d="M222.375 146.268L222.289 146.773L225.146 147.99L225.456 147.638L223.412 146.51L222.375 146.268ZM221.649 143.084C221.649 143.084 220.502 143.066 219.26 141.721C218.018 140.375 217.707 142.033 217.707 142.033C218.177 142.817 218.735 143.546 219.369 144.205C220.106 144.853 221.649 143.084 221.649 143.084V143.084Z" fill="#FFD3B7"/>
  <path d="M222.131 144.555L223.3 144.566L224.265 145.036C224.265 145.036 224.755 144.566 224.53 144.493C224.304 144.42 223.324 143.906 223.324 143.906L221.637 143.082L220.379 144.009L222.131 144.555Z" fill="#FFD3B7"/>
  <path d="M220.842 112.216L221.111 106.629C217.548 109.024 212.652 113.586 206.417 125.229C205.999 126.01 205.245 126.815 205.641 127.607C211.985 140.293 218.773 144.271 218.773 144.271L220.553 142.38C220.553 142.38 216.435 133.338 212.986 128.387C212.986 128.387 215.968 125.387 218.272 122.572C220.578 119.753 220.842 112.215 220.842 112.215V112.216Z" fill="url(#paint38_linear_1893_1282)"/>
  <path d="M219.9 141.498C216.605 134.991 212.855 128.728 212.817 128.665L212.685 128.445L212.869 128.265C215.316 125.789 217.564 123.125 219.592 120.296L220.122 120.675C218.119 123.463 215.908 126.095 213.507 128.549C214.2 129.716 217.524 135.361 220.482 141.203L219.9 141.498Z" fill="white"/>
  <path d="M291.755 134.453L259.604 123.86L266.894 101.737L299.044 112.33L291.755 134.453ZM260.428 123.445L291.34 133.63L298.221 112.746L267.309 102.56L260.428 123.445Z" fill="#103050"/>
  <path d="M278.711 120.793L266.828 102.325L267.376 101.972L278.969 119.989L298.513 112.235L298.753 112.841L278.711 120.793Z" fill="#103050"/>
  <path d="M266.121 120.952L276.551 116.639L276.8 117.241L266.37 121.555L266.121 120.952Z" fill="#103050"/>
  <path d="M282.639 118.918L283.207 118.598L291.832 133.882L291.264 134.203L282.639 118.918Z" fill="#103050"/>
  <path d="M298.359 112.714L287.38 95.6655L267.205 102.457L266.997 101.839L287.653 94.8859L298.906 112.361L298.359 112.714Z" fill="#103050"/>
  <path d="M260.029 122.886L261.168 123.023L262.166 122.689C262.166 122.689 262.583 123.208 262.354 123.249C262.126 123.291 261.108 123.668 261.108 123.668L259.363 124.255L258.55 123.59L260.029 122.886Z" fill="#FFD3B7"/>
  <path d="M228.182 149.158L227.531 149.137L227.665 144.973L237.165 146.577L237.811 144.395L238.436 144.58L237.626 147.316L228.292 145.74L228.182 149.158Z" fill="#103050"/>
  <path d="M239.242 144.155L239.374 143.516L247.366 145.159L247.235 145.797L239.242 144.155Z" fill="#103050"/>
  <path d="M238.442 144.69C238.223 144.69 238.01 144.625 237.828 144.504C237.646 144.382 237.505 144.21 237.421 144.008C237.338 143.806 237.316 143.584 237.358 143.369C237.401 143.155 237.506 142.958 237.661 142.804C237.816 142.649 238.012 142.544 238.227 142.501C238.441 142.459 238.663 142.481 238.865 142.564C239.067 142.648 239.24 142.79 239.361 142.971C239.483 143.153 239.547 143.367 239.547 143.585C239.547 143.878 239.43 144.159 239.223 144.366C239.016 144.574 238.735 144.69 238.442 144.69ZM238.442 143.132C238.352 143.132 238.265 143.159 238.19 143.209C238.116 143.258 238.058 143.329 238.023 143.412C237.989 143.495 237.98 143.586 237.998 143.674C238.015 143.762 238.059 143.843 238.122 143.906C238.185 143.969 238.266 144.012 238.354 144.03C238.442 144.047 238.533 144.038 238.616 144.004C238.699 143.97 238.769 143.912 238.819 143.837C238.869 143.762 238.896 143.675 238.896 143.585C238.895 143.465 238.848 143.35 238.762 143.265C238.677 143.18 238.562 143.132 238.442 143.132ZM247.855 146.748C247.636 146.748 247.423 146.683 247.241 146.561C247.059 146.44 246.918 146.267 246.834 146.065C246.75 145.863 246.728 145.641 246.771 145.427C246.814 145.212 246.919 145.016 247.074 144.861C247.228 144.706 247.425 144.601 247.639 144.559C247.854 144.516 248.076 144.538 248.278 144.621C248.48 144.705 248.652 144.847 248.774 145.028C248.895 145.21 248.96 145.424 248.96 145.642C248.96 145.935 248.843 146.216 248.636 146.423C248.429 146.631 248.148 146.747 247.855 146.748ZM247.855 145.189C247.765 145.189 247.678 145.216 247.603 145.266C247.529 145.315 247.471 145.386 247.436 145.469C247.402 145.552 247.393 145.643 247.41 145.731C247.428 145.819 247.471 145.9 247.534 145.963C247.598 146.026 247.679 146.069 247.767 146.087C247.854 146.104 247.946 146.095 248.028 146.061C248.111 146.027 248.182 145.969 248.232 145.894C248.282 145.82 248.308 145.732 248.308 145.642C248.308 145.522 248.26 145.407 248.175 145.322C248.09 145.237 247.975 145.189 247.855 145.189Z" fill="#103050"/>
  <defs>
    <linearGradient id="paint0_linear_1893_1282" x1="358.399" y1="273.539" x2="365.933" y2="296.108" gradientUnits="userSpaceOnUse">
      <stop stop-color="#F22003"/>
      <stop offset="1" stop-color="#FF6130"/>
    </linearGradient>
    <linearGradient id="paint1_linear_1893_1282" x1="392.407" y1="279.068" x2="386.562" y2="312.104" gradientUnits="userSpaceOnUse">
      <stop stop-color="#F22003"/>
      <stop offset="1" stop-color="#FF6130"/>
    </linearGradient>
    <linearGradient id="paint2_linear_1893_1282" x1="411.135" y1="282.753" x2="405.359" y2="315.405" gradientUnits="userSpaceOnUse">
      <stop stop-color="#F22003"/>
      <stop offset="1" stop-color="#FF6130"/>
    </linearGradient>
    <linearGradient id="paint3_linear_1893_1282" x1="381.441" y1="262.927" x2="388.357" y2="262.927" gradientUnits="userSpaceOnUse">
      <stop stop-color="#FFD3B7"/>
      <stop offset="1" stop-color="#FFA277"/>
    </linearGradient>
    <linearGradient id="paint4_linear_1893_1282" x1="380.634" y1="254.236" x2="389.443" y2="254.236" gradientUnits="userSpaceOnUse">
      <stop stop-color="#FFD3B7"/>
      <stop offset="1" stop-color="#FFA277"/>
    </linearGradient>
    <linearGradient id="paint5_linear_1893_1282" x1="388.428" y1="253.903" x2="390.279" y2="253.903" gradientUnits="userSpaceOnUse">
      <stop stop-color="#FFD3B7"/>
      <stop offset="1" stop-color="#FFA277"/>
    </linearGradient>
    <linearGradient id="paint6_linear_1893_1282" x1="379.132" y1="269.648" x2="391.154" y2="269.648" gradientUnits="userSpaceOnUse">
      <stop stop-color="#FFD3B7"/>
      <stop offset="1" stop-color="#FFA277"/>
    </linearGradient>
    <linearGradient id="paint7_linear_1893_1282" x1="281.486" y1="225.576" x2="289.993" y2="226.142" gradientUnits="userSpaceOnUse">
      <stop stop-color="#F22003"/>
      <stop offset="1" stop-color="#FF6130"/>
    </linearGradient>
    <linearGradient id="paint8_linear_1893_1282" x1="283.936" y1="226.753" x2="341.497" y2="230.583" gradientUnits="userSpaceOnUse">
      <stop stop-color="#226CC8"/>
      <stop offset="1" stop-color="#5EA8FF"/>
    </linearGradient>
    <linearGradient id="paint9_linear_1893_1282" x1="340.226" y1="242.371" x2="368.269" y2="244.237" gradientUnits="userSpaceOnUse">
      <stop stop-color="#F22003"/>
      <stop offset="1" stop-color="#FF6130"/>
    </linearGradient>
    <linearGradient id="paint10_linear_1893_1282" x1="170.694" y1="388.359" x2="177.434" y2="388.359" gradientUnits="userSpaceOnUse">
      <stop stop-color="#09111D"/>
      <stop offset="1" stop-color="#313945"/>
    </linearGradient>
    <linearGradient id="paint11_linear_1893_1282" x1="139.768" y1="388.359" x2="146.507" y2="388.359" gradientUnits="userSpaceOnUse">
      <stop stop-color="#09111D"/>
      <stop offset="1" stop-color="#313945"/>
    </linearGradient>
    <linearGradient id="paint12_linear_1893_1282" x1="6252.7" y1="-45.5006" x2="6230.57" y2="-45.3147" gradientUnits="userSpaceOnUse">
      <stop stop-color="#F22003"/>
      <stop offset="1" stop-color="#FF6130"/>
    </linearGradient>
    <linearGradient id="paint13_linear_1893_1282" x1="6273.42" y1="-47.2223" x2="6246.96" y2="-47" gradientUnits="userSpaceOnUse">
      <stop stop-color="#F22003"/>
      <stop offset="1" stop-color="#FF6130"/>
    </linearGradient>
    <linearGradient id="paint14_linear_1893_1282" x1="177.284" y1="255.245" x2="163.049" y2="275.424" gradientUnits="userSpaceOnUse">
      <stop stop-color="#226CC8"/>
      <stop offset="1" stop-color="#5EA8FF"/>
    </linearGradient>
    <linearGradient id="paint15_linear_1893_1282" x1="203.104" y1="80.9045" x2="212.158" y2="142.623" gradientUnits="userSpaceOnUse">
      <stop stop-color="#226CC8"/>
      <stop offset="1" stop-color="#5EA8FF"/>
    </linearGradient>
    <linearGradient id="paint16_linear_1893_1282" x1="161.405" y1="259.843" x2="160.815" y2="255.343" gradientUnits="userSpaceOnUse">
      <stop stop-color="#FFD3B7"/>
      <stop offset="1" stop-color="#FFA277"/>
    </linearGradient>
    <linearGradient id="paint17_linear_1893_1282" x1="162.021" y1="250.499" x2="160.546" y2="245.999" gradientUnits="userSpaceOnUse">
      <stop stop-color="#FFD3B7"/>
      <stop offset="1" stop-color="#FFA277"/>
    </linearGradient>
    <linearGradient id="paint18_linear_1893_1282" x1="158.925" y1="251.514" x2="157.449" y2="247.014" gradientUnits="userSpaceOnUse">
      <stop stop-color="#FFD3B7"/>
      <stop offset="1" stop-color="#FFA277"/>
    </linearGradient>
    <linearGradient id="paint19_linear_1893_1282" x1="142.252" y1="267.619" x2="178.269" y2="297.971" gradientUnits="userSpaceOnUse">
      <stop stop-color="#226CC8"/>
      <stop offset="1" stop-color="#5EA8FF"/>
    </linearGradient>
    <linearGradient id="paint20_linear_1893_1282" x1="218.421" y1="305.528" x2="211.98" y2="270.35" gradientUnits="userSpaceOnUse">
      <stop stop-color="#D59445"/>
      <stop offset="1" stop-color="#FFE0A2"/>
    </linearGradient>
    <linearGradient id="paint21_linear_1893_1282" x1="6228.46" y1="-157.217" x2="6186.37" y2="-120.138" gradientUnits="userSpaceOnUse">
      <stop stop-color="#F22003"/>
      <stop offset="1" stop-color="#FF6130"/>
    </linearGradient>
    <linearGradient id="paint22_linear_1893_1282" x1="190.13" y1="114.891" x2="165.357" y2="117.204" gradientUnits="userSpaceOnUse">
      <stop stop-color="#D59445"/>
      <stop offset="1" stop-color="#FFE0A2"/>
    </linearGradient>
    <linearGradient id="paint23_linear_1893_1282" x1="210.987" y1="92.7245" x2="185.224" y2="173.648" gradientUnits="userSpaceOnUse">
      <stop stop-color="#D59445"/>
      <stop offset="1" stop-color="#FFE0A2"/>
    </linearGradient>
    <linearGradient id="paint24_linear_1893_1282" x1="256.416" y1="207.116" x2="254.768" y2="205.487" gradientUnits="userSpaceOnUse">
      <stop stop-color="#F22003"/>
      <stop offset="1" stop-color="#FF6130"/>
    </linearGradient>
    <linearGradient id="paint25_linear_1893_1282" x1="262.036" y1="208.788" x2="255.132" y2="205.285" gradientUnits="userSpaceOnUse">
      <stop stop-color="#F22003"/>
      <stop offset="1" stop-color="#FF6130"/>
    </linearGradient>
    <linearGradient id="paint26_linear_1893_1282" x1="240.619" y1="193.411" x2="239.758" y2="131.997" gradientUnits="userSpaceOnUse">
      <stop stop-color="#09111D"/>
      <stop offset="1" stop-color="#313945"/>
    </linearGradient>
    <linearGradient id="paint27_linear_1893_1282" x1="214.346" y1="206.656" x2="212.963" y2="204.797" gradientUnits="userSpaceOnUse">
      <stop stop-color="#F22003"/>
      <stop offset="1" stop-color="#FF6130"/>
    </linearGradient>
    <linearGradient id="paint28_linear_1893_1282" x1="219.651" y1="209.158" x2="213.354" y2="204.651" gradientUnits="userSpaceOnUse">
      <stop stop-color="#F22003"/>
      <stop offset="1" stop-color="#FF6130"/>
    </linearGradient>
    <linearGradient id="paint29_linear_1893_1282" x1="238.538" y1="196.023" x2="215.591" y2="155.179" gradientUnits="userSpaceOnUse">
      <stop stop-color="#09111D"/>
      <stop offset="1" stop-color="#313945"/>
    </linearGradient>
    <linearGradient id="paint30_linear_1893_1282" x1="249.131" y1="127.334" x2="234.441" y2="119.206" gradientUnits="userSpaceOnUse">
      <stop stop-color="#F22003"/>
      <stop offset="1" stop-color="#FF6130"/>
    </linearGradient>
    <linearGradient id="paint31_linear_1893_1282" x1="230.188" y1="112.92" x2="221.508" y2="138.292" gradientUnits="userSpaceOnUse">
      <stop stop-color="#F22003"/>
      <stop offset="1" stop-color="#FF6130"/>
    </linearGradient>
    <linearGradient id="paint32_linear_1893_1282" x1="226.04" y1="88.6949" x2="225.259" y2="91.7919" gradientUnits="userSpaceOnUse">
      <stop stop-color="#F22003"/>
      <stop offset="1" stop-color="#FF6130"/>
    </linearGradient>
    <linearGradient id="paint33_linear_1893_1282" x1="227.664" y1="103.372" x2="227.975" y2="99.425" gradientUnits="userSpaceOnUse">
      <stop stop-color="#FFD3B7"/>
      <stop offset="1" stop-color="#FFA277"/>
    </linearGradient>
    <linearGradient id="paint34_linear_1893_1282" x1="231.709" y1="97.8719" x2="226.755" y2="93.8248" gradientUnits="userSpaceOnUse">
      <stop stop-color="#FFD3B7"/>
      <stop offset="1" stop-color="#FFA277"/>
    </linearGradient>
    <linearGradient id="paint35_linear_1893_1282" x1="236.704" y1="105.816" x2="240.998" y2="116.717" gradientUnits="userSpaceOnUse">
      <stop stop-color="#D59445"/>
      <stop offset="1" stop-color="#FFE0A2"/>
    </linearGradient>
    <linearGradient id="paint36_linear_1893_1282" x1="231.292" y1="98.3839" x2="226.337" y2="94.3369" gradientUnits="userSpaceOnUse">
      <stop stop-color="#FFD3B7"/>
      <stop offset="1" stop-color="#FFA277"/>
    </linearGradient>
    <linearGradient id="paint37_linear_1893_1282" x1="227.478" y1="107.915" x2="229.212" y2="118.072" gradientUnits="userSpaceOnUse">
      <stop stop-color="#FFD3B7"/>
      <stop offset="1" stop-color="#FFA277"/>
    </linearGradient>
    <linearGradient id="paint38_linear_1893_1282" x1="221.493" y1="109.946" x2="212.813" y2="135.317" gradientUnits="userSpaceOnUse">
      <stop stop-color="#F22003"/>
      <stop offset="1" stop-color="#FF6130"/>
    </linearGradient>
  </defs>
</svg>