<?xml version="1.0" encoding="UTF-8"?>
<svg xmlns="http://www.w3.org/2000/svg" width="573" height="368" viewBox="0 0 573 368" fill="none">
  <g clip-path="url(#clip0_1981_1334)">
    <rect width="573" height="368" fill="url(#paint0_linear_1981_1334)"/>
    <path d="M400.766 212.039C396.787 212.453 392.7 212.391 389.909 212.269L392.754 206.135L375.203 201.749C376.384 199.311 379.689 193.399 383.53 194.449C388.353 195.776 382.687 200.108 385.823 199.265C388.959 198.421 389.794 192.878 396.664 190.47C403.534 188.062 407.989 197.095 403.051 199.027C398.114 200.951 399.923 203.965 402.568 203.965C405.229 203.965 407.759 211.318 400.766 212.039Z" fill="#33699E"/>
    <path d="M396.909 195.707C396.909 195.707 395.107 203.727 388.482 204.686" stroke="#3D7EBE" stroke-width="2" stroke-miterlimit="10" stroke-linecap="round" stroke-linejoin="round"/>
    <path d="M292.334 169.66C292.334 169.66 287.128 176.799 281.431 176.944C275.742 177.09 272.215 170.772 272.215 170.772C272.215 170.772 287.849 165.704 287.849 165.972C287.849 166.248 292.334 169.66 292.334 169.66Z" fill="#D8992E"/>
    <path d="M211.817 204.938C211.817 204.938 209.225 201.626 206.273 203.067C203.321 204.517 207.055 223.187 208.412 224.03C209.77 224.874 211.94 224.452 212.538 222.765C213.143 221.078 212.239 211.801 212.239 211.801L211.817 204.938Z" fill="#1A1A1A" stroke="#1A1A1A" stroke-width="6.876" stroke-miterlimit="10" stroke-linecap="round" stroke-linejoin="round"/>
    <path d="M246.759 249.763C231.616 251.327 218.251 227.711 212.746 216.371C212.761 214.868 213.129 209.547 217.354 209.355C226.157 216.754 236.408 226.944 238.677 231.093C236.025 223.141 243.615 192.41 243.615 192.41L266.748 194.818L268.312 194.94C272.905 201.803 266.641 247.716 246.759 249.763Z" fill="#204060"/>
    <path d="M238.256 224.107C238.256 224.107 242.327 232.25 249.404 234.941C253.1 236.942 255.615 241.267 255.968 245.085C258.015 243.084 258.36 240.201 258.36 240.201L255.048 226.798L238.264 219.599V224.107H238.256Z" fill="#1A1A1A" stroke="#1A1A1A" stroke-width="2" stroke-miterlimit="10" stroke-linecap="round" stroke-linejoin="round"/>
    <path d="M217.362 209.355C213.137 209.547 212.769 214.876 212.754 216.371C211.029 212.828 210.078 210.482 210.078 210.482C210.078 210.482 208.813 204.938 211.826 204.938C213.528 206.204 215.407 207.706 217.362 209.355Z" fill="#FCD490"/>
    <path d="M277.299 278.408C277.299 278.408 276.249 278.079 276.64 280.578C277.031 283.078 278.219 286.889 280.573 288.062C282.92 289.235 289.069 294.479 292.91 293.483C296.752 292.486 291.239 287.924 290.518 286.705C289.797 285.485 283.694 277.534 282.521 277.665C281.34 277.81 277.299 278.408 277.299 278.408Z" fill="#1A1A1A" stroke="#1A1A1A" stroke-width="6.876" stroke-miterlimit="10" stroke-linecap="round" stroke-linejoin="round"/>
    <path d="M278.58 267.505L283.096 278.171C283.096 278.171 279.208 280.793 276.954 278.577C273.925 273.424 272.254 269.813 272.254 269.813C272.254 269.813 277.092 267.007 278.58 267.505Z" fill="#FCD490"/>
    <path d="M259.285 203.313C259.285 203.313 263.71 217.077 267.421 227.29C271.124 237.503 277.902 263.258 279.888 268.587C277.81 267.59 273.378 269.223 272.842 271.025C272.305 272.827 264.622 260.812 260.282 253.942C255.942 247.072 258.204 239.573 251.879 235.417C222.781 216.617 235.072 188.239 235.072 188.239L262.905 191.674" fill="#204060"/>
    <path d="M258.359 203.198L266.587 224.621" stroke="#1A1A1A" stroke-width="2" stroke-miterlimit="10" stroke-linecap="round" stroke-linejoin="round"/>
    <path d="M233.502 193.414C233.487 193.959 235.526 193.828 238.823 194.051C242.12 194.273 246.575 197.463 250.616 197.225C254.649 196.987 256.489 196.841 258.644 197.608C260.798 198.375 269.37 200.123 269.754 198.797C268.933 195.484 268.933 195.484 268.933 195.484L234.238 190.424L233.502 193.414Z" fill="#1A1A1A" stroke="#1A1A1A" stroke-width="6.876" stroke-miterlimit="10" stroke-linecap="round" stroke-linejoin="round"/>
    <path d="M252.724 158.604C252.724 158.604 244.835 157.201 246.008 151.604C247.181 146.007 271.402 143.062 271.402 143.062L252.724 158.604Z" fill="#EFB756"/>
    <path d="M242.312 191.383C240.993 190.854 239.414 189.803 239.145 188.216C237.037 180.042 241.254 173.188 245.732 166.601C248.63 162.384 251.528 158.428 254.695 154.74C260.147 149.058 266.971 145.539 273.81 141.973C272.982 141.828 271.011 140.931 268.504 143.599C266.779 145.439 257.302 150.76 248.569 156.986C242.688 161.173 237.152 165.773 234.53 169.99C228.02 180.472 230.734 192.586 235.074 192.402C239.414 192.218 248.745 197.402 257.754 196.106C261.573 197.601 269.11 198.858 272.215 195.285C262.056 195.876 252.088 194.94 242.312 191.383Z" fill="#E8AC46"/>
    <path d="M269.048 182.189C269.317 178.578 269.754 175.955 269.754 175.955C269.754 175.955 280.795 174.33 284.23 170.627C287.665 166.923 295.708 168.188 286.576 146.857C286.576 146.857 276.455 141.076 274.109 141.981C274.04 142.012 273.94 142.004 273.818 141.981C266.978 145.546 260.154 149.073 254.703 154.747C251.536 158.435 248.638 162.392 245.739 166.609C241.262 173.195 237.044 180.05 239.153 188.223C239.414 189.803 241.001 190.861 242.32 191.39C252.096 194.948 262.063 195.876 272.223 195.293C272.499 194.971 272.744 194.618 272.944 194.219C275.374 189.335 272.391 183.546 269.048 182.189Z" fill="#EFB756"/>
    <path d="M269.025 144.097C269.025 144.097 254.135 152.922 248.967 157.055" stroke="#996711" stroke-width="2" stroke-miterlimit="10" stroke-linecap="round" stroke-linejoin="round"/>
    <path d="M285.924 138.454C285.924 138.454 292.518 141.751 296.674 138.454C300.829 135.157 296.674 122.59 296.674 122.59L278.992 128.962L273.633 143.062C273.633 143.062 281.055 148.422 286.077 147.218C287.664 147.011 287.388 146.949 286.844 145.976C286.299 145.002 285.801 140.8 287.434 139.198" fill="#FCD490"/>
    <path d="M285.303 138.231C285.333 138.308 286.806 139.826 286.806 139.826L287.335 139.029L285.303 138.231Z" fill="#DBB067"/>
    <path d="M232.498 134.083C232.498 134.083 210.975 133.363 216.642 148.299C222.308 163.235 246.399 144.319 252.909 143.238C259.419 142.157 266.12 145.048 269.754 144.687C273.389 144.327 284.836 140.708 284.652 134.743C283.387 131.791 283.203 129.621 285.68 128.716C287.305 128.839 288.149 130.403 288.149 130.403C288.149 130.403 289.115 130.464 289.115 129.498C289.115 128.532 289.582 126.845 290.794 126.784C292.005 126.723 298.392 126.845 298.691 121.118C298.99 115.398 291.162 115.934 287.006 117.56C282.85 119.185 278.756 125.756 268.029 125.756C257.302 125.756 241.569 120.052 234.538 126.117C228.81 131.07 232.498 134.083 232.498 134.083Z" fill="#102840"/>
    <path d="M352.056 185.778C350.63 188.96 347.394 193.675 342.986 194.45L330.626 191.605C331.354 190.286 331.691 188.929 331.385 187.319C330.265 182.435 325.734 179.069 324.315 174.3C321.563 167.169 329.33 160.306 334.743 166.801C333.47 161.012 340.639 157.324 345.102 160.797C349.564 163.994 349.127 170.926 345.202 174.399C351.182 172.444 354.341 181.001 352.056 185.778Z" fill="#33699E"/>
    <path d="M337.134 192.97C337.84 186.199 339.312 175.886 339.588 169.085M332.572 171.033C335.731 176.945 336.007 185.992 335.103 192.632M346.581 181.967C343.307 184.643 340.815 189.757 338.852 193.491" stroke="#103C66" stroke-width="2" stroke-miterlimit="10" stroke-linecap="round" stroke-linejoin="round"/>
    <path d="M393.022 206.037L357.958 222.468L276.453 205.017L316.033 188.325L330.624 191.684L342.991 194.528L370.104 200.77L387.01 204.657L393.022 206.037Z" stroke="#204060" stroke-width="2" stroke-miterlimit="10" stroke-linecap="round" stroke-linejoin="round"/>
    <path d="M295.026 157.385C302.671 152.11 310.576 149.74 318.75 144.734C320.858 143.415 323.756 142.625 325.865 141.045C328.955 138.906 332.045 136.123 332.428 132.496C332.053 131.883 331.608 131.308 331.24 130.832C330.159 129.414 330.366 129.774 321.149 135.203C311.933 140.624 286.331 147.402 286.331 147.402L277.629 162.928C282.436 163.036 287.459 161.51 292.381 159.685C293.163 158.796 294.037 157.998 295.026 157.385Z" fill="#EFB756"/>
    <path d="M332.434 132.496C332.051 136.115 328.961 138.898 325.871 141.045C323.762 142.625 320.864 143.415 318.755 144.733C310.582 149.74 302.676 152.117 295.032 157.385C294.043 158.006 293.169 158.796 292.387 159.685C296.519 158.151 300.583 156.419 304.386 155.268C315.136 152.017 331.222 137.948 332.702 136.261C333.676 135.126 333.185 133.723 332.434 132.496Z" fill="#E6AB45"/>
    <path d="M290.71 160.283C286.332 161.824 281.9 163.013 277.637 162.921" stroke="#996711" stroke-width="2" stroke-miterlimit="10" stroke-linecap="round" stroke-linejoin="round"/>
    <path d="M329.891 131.131C329.891 131.131 343.93 119.623 344.681 119.952C345.433 120.282 346.912 120.918 342.09 124.622C339.621 126.945 339.498 127.367 339.498 127.367C339.498 127.367 343.562 129.023 341.484 131.346C339.406 133.669 339.299 136.192 336.124 134.843C332.95 133.493 332.298 134.39 331.516 134.935C330.734 135.471 329.891 131.131 329.891 131.131Z" fill="#FCD490"/>
    <path d="M357.958 222.461L346.94 254.657L284.412 241.645L276.461 205.017C276.461 205.017 266.071 202.065 263.633 194.383C261.195 186.7 252.791 182.843 252.791 182.843L298.704 167.631C298.704 167.631 303.258 171.296 303.994 179.232C304.654 186.324 316.04 188.333 316.04 188.333L317.397 213.789" stroke="#204060" stroke-width="2" stroke-miterlimit="10" stroke-linecap="round" stroke-linejoin="round"/>
    <path d="M393.021 206.037L374.588 243.454L346.939 254.657" stroke="#203560" stroke-width="2" stroke-miterlimit="10" stroke-linecap="round" stroke-linejoin="round"/>
    <path d="M320.506 53L302.127 62.6533L303.469 66.5791L321.786 57.3858L320.506 53Z" fill="url(#paint1_linear_1981_1334)"/>
    <path d="M325.559 70.2824L321.786 57.3857L303.469 66.579L307.847 79.3837L325.559 70.2824Z" fill="#D7EBFF"/>
    <path d="M331.631 61.6029L320.506 53L321.909 57.7922L332.291 64.9689L331.631 61.6029Z" fill="url(#paint2_linear_1981_1334)"/>
    <path d="M321.908 57.7925L325.558 70.2828L334.575 76.6238L332.29 64.9692L321.908 57.7925Z" fill="url(#paint3_linear_1981_1334)"/>
    <path d="M334.575 76.6232L319.109 83.4856L307.846 79.3835L325.558 70.2822L334.575 76.6232Z" fill="url(#paint4_linear_1981_1334)"/>
    <path d="M245.211 80.2887C245.211 80.2887 239.291 76.8537 236.876 81.4311C234.737 85.4872 239.913 92.664 249.198 94.8952C255.301 88.5389 257.655 81.3698 252.848 77.283C249.29 74.2544 245.211 80.2887 245.211 80.2887Z" fill="#EFB551"/>
    <path d="M404.915 147.394L391.398 152.639L391.137 152.738C390.186 150.384 389.381 148.383 389.289 148.061L403.627 142.878L404.915 147.394Z" fill="url(#paint5_linear_1981_1334)"/>
    <path d="M413.987 160.475L407.477 156.373L406.588 153.245L404.916 147.395L412.56 153.391L412.583 153.483L413.987 160.475Z" fill="url(#paint6_linear_1981_1334)"/>
    <path d="M412.56 153.39L404.915 147.394L403.627 142.878L411.816 149.687L412.56 153.39Z" fill="url(#paint7_linear_1981_1334)"/>
    <path d="M413.987 160.475L402.777 164.508L394.588 161.196L407.477 156.373L413.987 160.475Z" fill="url(#paint8_linear_1981_1334)"/>
    <path d="M373.808 113.78C373.801 113.78 373.793 113.688 373.931 114.248C377.512 116.226 383.109 116.579 387.387 114.854C387.487 114.432 387.594 113.995 387.709 113.566C383.715 110.859 378.646 113.121 373.808 113.78Z" fill="#FFA100"/>
    <path d="M380.732 81.4307C372.612 81.4307 366.033 88.0094 366.033 96.1292C366.033 100.4 367.85 104.241 370.756 106.925C371.968 108.558 372.995 111.771 373.616 113.78C373.624 113.78 383.5 111.794 387.494 114.5C388.131 112.154 389.289 108.819 390.715 106.917C393.613 104.234 395.43 100.392 395.43 96.1292C395.43 88.0094 388.852 81.4307 380.732 81.4307Z" fill="#FFCA70"/>
    <path d="M373.932 114.255C375.005 118.61 375.036 122.59 375.036 122.59L380.725 123.602L386.422 122.59C386.422 122.59 386.453 118.971 387.388 114.853C383.11 116.586 377.52 116.226 373.932 114.255Z" fill="#FFA100"/>
    <path d="M407.476 156.373L394.587 161.196C394.587 161.196 392.662 156.526 391.129 152.746L404.907 147.402L406.579 153.252L407.476 156.373Z" fill="#D7EBFF"/>
    <path d="M378.429 113.683C378.429 113.683 374.143 98.1794 375.254 95.4881C376.098 93.4409 377.164 97.612 378.528 97.6043C379.901 97.5966 380.438 94.9974 381.281 94.8517C382.968 94.5526 383.758 97.6043 384.256 97.704C384.754 97.8036 387.3 93.4102 387.959 95.8791C388.266 97.0139 383.98 106.269 383.259 113.683" stroke="#204060" stroke-miterlimit="10" stroke-linecap="round" stroke-linejoin="round"/>
    <path d="M374.315 121.133H386.966C386.966 121.133 389.933 130.74 380.809 130.74C371.685 130.74 374.315 121.133 374.315 121.133Z" fill="#1B72C6"/>
    <path d="M336.571 263.326C338.709 262.197 339.274 259.071 337.834 256.346C336.394 253.62 333.493 252.326 331.355 253.456C329.217 254.585 328.652 257.711 330.092 260.436C331.532 263.162 334.433 264.456 336.571 263.326Z" fill="#102840" stroke="#204060" stroke-width="3.438" stroke-miterlimit="10"/>
    <path d="M368.831 271.675C370.968 270.546 371.534 267.42 370.094 264.695C368.654 261.969 365.753 260.675 363.615 261.805C361.477 262.934 360.912 266.06 362.352 268.785C363.792 271.511 366.693 272.805 368.831 271.675Z" fill="#102840" stroke="#204060" stroke-width="3.438" stroke-miterlimit="10"/>
    <path d="M292.332 243.294C292.332 243.294 297.002 260.921 303.266 263.214C309.53 265.507 357 277.069 357 277.069C357 277.069 359.001 278.334 363.655 275.988C366.783 274.409 373.508 271.579 377.564 269.892C378.606 269.463 378.491 267.945 377.395 267.677C366.323 264.962 332.379 256.582 327.15 254.672C325.302 253.998 323.592 251.989 322.105 249.489" stroke="#204060" stroke-width="2" stroke-miterlimit="10" stroke-linecap="round" stroke-linejoin="round"/>
    <path d="M310.611 272.252C312.999 270.99 313.632 267.499 312.024 264.455C310.415 261.411 307.175 259.967 304.786 261.229C302.397 262.491 301.765 265.982 303.373 269.026C304.982 272.07 308.222 273.514 310.611 272.252Z" fill="#102840" stroke="#204060" stroke-width="3.438" stroke-miterlimit="10"/>
    <path d="M346.044 282.834C348.433 281.571 349.065 278.081 347.457 275.037C345.849 271.993 342.608 270.548 340.22 271.81C337.831 273.073 337.198 276.563 338.807 279.607C340.415 282.651 343.655 284.096 346.044 282.834Z" fill="#102840" stroke="#204060" stroke-width="3.438" stroke-miterlimit="10"/>
    <path d="M267.846 167.943C267.846 167.943 273.205 163.818 277.905 162.929Z" fill="#EFB756"/>
    <path d="M357.83 103.253C357.561 102.632 356.841 102.356 356.227 102.624L348.483 106.005C347.862 106.274 347.586 106.994 347.854 107.615C348.123 108.236 348.843 108.512 349.465 108.244L357.209 104.863C357.814 104.587 358.098 103.866 357.83 103.253ZM357.607 86.1925L351.098 82.4354C350.576 82.1364 349.917 82.3127 349.618 82.8341C349.319 83.3555 349.495 84.0149 350.017 84.3139L356.526 88.071C357.048 88.37 357.707 88.1937 358.006 87.6723C358.305 87.1586 358.129 86.4915 357.607 86.1925ZM374.315 72.9201L372.536 65.613C372.398 65.0302 371.808 64.6699 371.225 64.8156C370.642 64.9612 370.282 65.544 370.427 66.1267L372.206 73.4338C372.344 74.0165 372.935 74.3769 373.517 74.2312C374.1 74.0932 374.46 73.5028 374.315 72.9201ZM397.287 77.2062L402.592 71.885C403.014 71.4633 403.014 70.7732 402.592 70.3515C402.171 69.9298 401.481 69.9298 401.059 70.3515L395.753 75.6727C395.331 76.0944 395.331 76.7845 395.753 77.2062C396.175 77.6279 396.865 77.6279 397.287 77.2062ZM403.229 91.0766L410.712 90.3866C411.31 90.3329 411.747 89.8039 411.694 89.2058C411.64 88.6077 411.111 88.1707 410.513 88.2244L403.03 88.9144C402.431 88.9681 401.994 89.4972 402.048 90.0952C402.102 90.6856 402.631 91.1303 403.229 91.0766ZM401.174 108.658L407.53 112.668C408.036 112.99 408.711 112.837 409.025 112.331C409.34 111.825 409.194 111.15 408.688 110.836L402.332 106.826C401.826 106.504 401.151 106.657 400.837 107.163C400.515 107.669 400.668 108.336 401.174 108.658Z" fill="#FFCA70"/>
    <path d="M373.961 177.021C377.213 177.021 379.85 174.385 379.85 171.133C379.85 167.881 377.213 165.244 373.961 165.244C370.709 165.244 368.072 167.881 368.072 171.133C368.072 174.385 370.709 177.021 373.961 177.021Z" fill="white"/>
    <path d="M289.95 168.396C289.95 168.396 284.606 169.975 285.296 170.757C285.986 171.539 290.241 170.389 291.33 169.914C292.419 169.438 289.95 168.396 289.95 168.396Z" fill="#FCD490"/>
    <path d="M289.03 167.483C289.03 167.483 295.141 163.895 296.406 164.562C297.671 165.221 299.143 168.541 298.001 169.415C296.858 170.289 293.822 171.938 293.032 171.462C292.258 170.979 287.65 168.694 289.03 167.483Z" fill="#FCD490"/>
    <path d="M286.061 207.034L290.784 242.358" stroke="#204060" stroke-width="2" stroke-miterlimit="10" stroke-linecap="round" stroke-linejoin="round"/>
    <path d="M295.252 208.775L298.879 244.659" stroke="#204060" stroke-width="2" stroke-miterlimit="10" stroke-linecap="round" stroke-linejoin="round"/>
    <path d="M307.244 211.612L307.689 246.491" stroke="#204060" stroke-width="2" stroke-miterlimit="10" stroke-linecap="round" stroke-linejoin="round"/>
    <path d="M318.684 214.295L315.494 248.117" stroke="#204060" stroke-width="2" stroke-miterlimit="10" stroke-linecap="round" stroke-linejoin="round"/>
    <path d="M328.743 216.212L324.135 249.919" stroke="#204060" stroke-width="2" stroke-miterlimit="10" stroke-linecap="round" stroke-linejoin="round"/>
    <path d="M338.98 218.275L331.635 250.9" stroke="#204060" stroke-width="2" stroke-miterlimit="10" stroke-linecap="round" stroke-linejoin="round"/>
    <path d="M349.602 220.596L339.926 253.121" stroke="#204060" stroke-width="2" stroke-miterlimit="10" stroke-linecap="round" stroke-linejoin="round"/>
    <path d="M246.929 199.349C246.96 201.373 246.561 203.497 245.296 205.084C244.031 206.672 241.754 207.553 239.891 206.756" stroke="#1A1A1A" stroke-width="2" stroke-miterlimit="10" stroke-linecap="round" stroke-linejoin="round"/>
    <path d="M283.018 281.966L285.571 280.724L284.566 283.507H287.403L285.54 285.769L287.733 285.585L288.983 287.003" stroke="white" stroke-width="6.876" stroke-miterlimit="10" stroke-linecap="round" stroke-linejoin="round"/>
    <path d="M210.8 214.845L212.096 215.688C212.096 215.688 210.532 216.861 210.647 217.137C210.769 217.406 212.702 218.249 212.702 218.249L211.038 218.878C211.038 218.878 212.38 219.675 212.441 219.829C212.502 219.982 211.314 221.117 211.314 221.117" stroke="white" stroke-width="6.876" stroke-miterlimit="10" stroke-linecap="round" stroke-linejoin="round"/>
    <path d="M366.153 218.627L353.893 251.513" stroke="#204060" stroke-width="2" stroke-miterlimit="10" stroke-linecap="round" stroke-linejoin="round"/>
    <path d="M374.212 214.855L361.553 248.738" stroke="#204060" stroke-width="2" stroke-miterlimit="10" stroke-linecap="round" stroke-linejoin="round"/>
    <path d="M384.165 210.186L369.221 245.632" stroke="#204060" stroke-width="2" stroke-miterlimit="10" stroke-linecap="round" stroke-linejoin="round"/>
    <path d="M257.52 294.106C262.917 295.893 293.48 306.021 298.878 307.808M313.385 291.001C318.783 292.787 380.414 313.213 385.804 315M353.532 284.897C358.93 286.684 359.88 286.998 365.278 288.793" stroke="#204060" stroke-width="2" stroke-miterlimit="10" stroke-linecap="round" stroke-linejoin="round"/>
    <path d="M182.827 173.663C182.39 173.264 181.907 172.911 181.37 172.605C177.46 170.381 172.484 171.746 170.26 175.656L159.257 195.001C158.721 195.952 159.05 197.156 159.994 197.693L163.099 199.456C162.148 198.92 161.818 197.708 162.363 196.765L173.366 177.42C175.29 174.054 179.262 172.574 182.827 173.663Z" fill="#DEEFFF"/>
    <path d="M188.308 179.306C187.756 177.297 186.437 175.495 184.482 174.383C183.945 174.077 183.393 173.847 182.833 173.67C179.268 172.581 175.296 174.061 173.372 177.435L162.369 196.78C161.832 197.731 162.162 198.935 163.105 199.471L173.839 205.575C174.79 206.111 175.994 205.782 176.531 204.831L187.533 185.493C188.645 183.531 188.86 181.315 188.308 179.306ZM179.36 183.37C178.785 183.04 178.348 182.564 178.079 182.012C177.627 181.092 177.619 179.973 178.164 179.014C178.708 178.056 179.674 177.489 180.702 177.404C181.315 177.358 181.951 177.489 182.527 177.811C184.06 178.685 184.597 180.632 183.723 182.173C182.849 183.715 180.893 184.244 179.36 183.37Z" fill="#1B72C6"/>
    <path d="M277.628 162.921C277.628 162.921 271.763 163.527 267.377 168.012" stroke="#996711" stroke-width="2" stroke-miterlimit="10" stroke-linecap="round" stroke-linejoin="round"/>
  </g>
  <defs>
    <linearGradient id="paint0_linear_1981_1334" x1="-2.51242e-06" y1="183.63" x2="459.623" y2="181.277" gradientUnits="userSpaceOnUse">
      <stop stop-color="#FBFFE0"/>
      <stop offset="1" stop-color="white" stop-opacity="0"/>
    </linearGradient>
    <linearGradient id="paint1_linear_1981_1334" x1="302.124" y1="59.7895" x2="321.789" y2="59.7895" gradientUnits="userSpaceOnUse">
      <stop stop-color="#68B3FC"/>
      <stop offset="1" stop-color="#52A6F7"/>
    </linearGradient>
    <linearGradient id="paint2_linear_1981_1334" x1="320.506" y1="58.9859" x2="332.291" y2="58.9859" gradientUnits="userSpaceOnUse">
      <stop stop-color="#208AF1"/>
      <stop offset="1" stop-color="#2779C9"/>
    </linearGradient>
    <linearGradient id="paint3_linear_1981_1334" x1="321.908" y1="67.2085" x2="334.574" y2="67.2085" gradientUnits="userSpaceOnUse">
      <stop stop-color="#68B3FC"/>
      <stop offset="1" stop-color="#52A6F7"/>
    </linearGradient>
    <linearGradient id="paint4_linear_1981_1334" x1="307.848" y1="76.8867" x2="334.573" y2="76.8867" gradientUnits="userSpaceOnUse">
      <stop stop-color="#4698E8"/>
      <stop offset="1" stop-color="#2779C9"/>
    </linearGradient>
    <linearGradient id="paint5_linear_1981_1334" x1="389.288" y1="147.811" x2="404.915" y2="147.811" gradientUnits="userSpaceOnUse">
      <stop stop-color="#68B3FC"/>
      <stop offset="1" stop-color="#52A6F7"/>
    </linearGradient>
    <linearGradient id="paint6_linear_1981_1334" x1="404.915" y1="153.935" x2="413.986" y2="153.935" gradientUnits="userSpaceOnUse">
      <stop stop-color="#68B3FC"/>
      <stop offset="1" stop-color="#52A6F7"/>
    </linearGradient>
    <linearGradient id="paint7_linear_1981_1334" x1="403.624" y1="148.133" x2="412.56" y2="148.133" gradientUnits="userSpaceOnUse">
      <stop stop-color="#4698E8"/>
      <stop offset="1" stop-color="#2779C9"/>
    </linearGradient>
    <linearGradient id="paint8_linear_1981_1334" x1="394.59" y1="160.443" x2="413.986" y2="160.443" gradientUnits="userSpaceOnUse">
      <stop stop-color="#4698E8"/>
      <stop offset="1" stop-color="#2779C9"/>
    </linearGradient>
    <clipPath id="clip0_1981_1334">
      <rect width="573" height="368" rx="28" fill="white"/>
    </clipPath>
  </defs>
</svg>